SplineFontDB: 3.2
FontName: Roboto-GMM-Italic
FullName: Roboto-GMM Italic
FamilyName: Roboto-GMM
Weight: Book
Copyright: Copyright 2011 Google Inc. All Rights Reserved.
Version: 2.138
ItalicAngle: -12
UnderlinePosition: -200
UnderlineWidth: 100
Ascent: 1638
Descent: 410
InvalidEm: 0
sfntRevision: 0x00022354
LayerCount: 2
Layer: 0 1 "Back" 1
Layer: 1 1 "Fore" 0
XUID: [1021 847 435918304 24133]
StyleMap: 0x0001
FSType: 0
OS2Version: 4
OS2_WeightWidthSlopeOnly: 0
OS2_UseTypoMetrics: 0
CreationTime: 1221247774
ModificationTime: 1611266989
PfmFamily: 17
TTFWeight: 400
TTFWidth: 5
LineGap: 0
VLineGap: 0
Panose: 2 0 0 0 0 0 0 0 0 0
OS2TypoAscent: 2146
OS2TypoAOffset: 0
OS2TypoDescent: -555
OS2TypoDOffset: 0
OS2TypoLinegap: 0
OS2WinAscent: 2146
OS2WinAOffset: 0
OS2WinDescent: 555
OS2WinDOffset: 0
HheadAscent: 1900
HheadAOffset: 0
HheadDescent: -500
HheadDOffset: 0
OS2SubXSize: 1434
OS2SubYSize: 1331
OS2SubXOff: 0
OS2SubYOff: 287
OS2SupXSize: 1434
OS2SupYSize: 1331
OS2SupXOff: 0
OS2SupYOff: 977
OS2StrikeYSize: 102
OS2StrikeYPos: 512
OS2CapHeight: 1456
OS2XHeight: 1082
OS2Vendor: 'GOOG'
OS2CodePages: 2000019f.00000000
OS2UnicodeRanges: e0000aff.5000217f.00000021.00000000
Lookup: 1 0 0 "'c2sc' Capitals to Small Capitals lookup 0" { "'c2sc' Capitals to Small Capitals lookup 0 subtable"  } ['c2sc' ('DFLT' <'dflt' > 'cyrl' <'dflt' > 'grek' <'dflt' > 'latn' <'AZE ' 'CRT ' 'FRA ' 'MOL ' 'NAV ' 'ROM ' 'TRK ' 'dflt' > ) ]
Lookup: 1 0 0 "'smcp' Lowercase to Small Capitals lookup 1" { "'smcp' Lowercase to Small Capitals lookup 1 subtable"  } ['smcp' ('DFLT' <'dflt' > 'cyrl' <'dflt' > 'grek' <'dflt' > 'latn' <'AZE ' 'CRT ' 'FRA ' 'MOL ' 'NAV ' 'ROM ' 'TRK ' 'dflt' > ) ]
Lookup: 1 0 0 "'unic' Unicase lookup 2" { "'unic' Unicase lookup 2 subtable"  } ['unic' ('DFLT' <'dflt' > 'cyrl' <'dflt' > 'grek' <'dflt' > 'latn' <'AZE ' 'CRT ' 'FRA ' 'MOL ' 'NAV ' 'ROM ' 'TRK ' 'dflt' > ) ]

StartChar: .notdef
Encoding: 1114112 -1 0
Width: 918
Flags: W
LayerCount: 2
Fore
SplineSet
100 0 m 1,0,-1
 100 1456 l 1,1,-1
 808 1456 l 1,2,-1
 808 0 l 1,3,-1
 100 0 l 1,0,-1
194 1402 m 1,4,-1
 452 796 l 1,5,-1
 709 1402 l 1,6,-1
 194 1402 l 1,4,-1
480 728 m 1,7,-1
 754 84 l 1,8,-1
 754 1372 l 1,9,-1
 480 728 l 1,7,-1
154 1360 m 1,10,-1
 154 96 l 1,11,-1
 422 728 l 1,12,-1
 154 1360 l 1,10,-1
194 54 m 1,13,-1
 709 54 l 1,14,-1
 452 660 l 1,15,-1
 194 54 l 1,13,-1
EndSplineSet
EndChar

StartChar: exclam
Encoding: 33 33 6
Width: 512
Flags: W
LayerCount: 2
Fore
SplineSet
499 1456 m 1,0,-1
 305 411 l 1,1,-1
 141 411 l 1,2,-1
 309 1456 l 1,3,-1
 499 1456 l 1,0,-1
67 90 m 0,4,5
 68 137 68 137 97.5 168.5 c 128,-1,6
 127 200 127 200 174 201 c 0,7,8
 220 202 220 202 250.5 172 c 128,-1,9
 281 142 281 142 280 96 c 0,10,11
 280 50 280 50 249.5 19 c 128,-1,12
 219 -12 219 -12 173 -13 c 256,13,14
 127 -14 127 -14 97 15 c 128,-1,15
 67 44 67 44 67 90 c 0,4,5
EndSplineSet
EndChar

StartChar: quotedbl
Encoding: 34 34 7
Width: 636
Flags: W
LayerCount: 2
Fore
SplineSet
394 1390 m 1,0,-1
 311 1043 l 1,1,-1
 201 1043 l 1,2,-1
 279 1536 l 1,3,-1
 417 1536 l 1,4,-1
 394 1390 l 1,0,-1
656 1390 m 1,5,-1
 573 1043 l 1,6,-1
 463 1043 l 1,7,-1
 541 1536 l 1,8,-1
 679 1536 l 1,9,-1
 656 1390 l 1,5,-1
EndSplineSet
EndChar

StartChar: numbersign
Encoding: 35 35 8
Width: 1223
Flags: W
LayerCount: 2
Fore
SplineSet
557 0 m 1,0,-1
 707 410 l 1,1,-1
 456 410 l 1,2,-1
 307 0 l 1,3,-1
 163 0 l 1,4,-1
 312 410 l 1,5,-1
 81 410 l 1,6,-1
 105 548 l 1,7,-1
 361 548 l 1,8,-1
 489 901 l 1,9,-1
 240 901 l 1,10,-1
 264 1040 l 1,11,-1
 539 1040 l 1,12,-1
 690 1456 l 1,13,-1
 836 1456 l 1,14,-1
 684 1040 l 1,15,-1
 935 1040 l 1,16,-1
 1086 1456 l 1,17,-1
 1231 1456 l 1,18,-1
 1079 1040 l 1,19,-1
 1274 1040 l 1,20,-1
 1250 901 l 1,21,-1
 1029 901 l 1,22,-1
 901 548 l 1,23,-1
 1116 548 l 1,24,-1
 1092 410 l 1,25,-1
 851 410 l 1,26,-1
 702 0 l 1,27,-1
 557 0 l 1,0,-1
506 548 m 1,28,-1
 756 548 l 1,29,-1
 885 901 l 1,30,-1
 634 901 l 1,31,-1
 506 548 l 1,28,-1
EndSplineSet
EndChar

StartChar: dollar
Encoding: 36 36 9
Width: 1116
Flags: W
LayerCount: 2
Fore
SplineSet
975 384 m 0,0,1
 962 201 962 201 839.5 101.5 c 128,-1,2
 717 2 717 2 544 -17 c 1,3,-1
 510 -208 l 1,4,-1
 364 -208 l 1,5,-1
 399 -16 l 1,6,7
 223 11 223 11 145.5 135 c 128,-1,8
 68 259 68 259 78 429 c 1,9,-1
 259 429 l 1,10,11
 251 311 251 311 302.5 227 c 128,-1,12
 354 143 354 143 483 141 c 0,13,14
 598 139 598 139 689 200 c 128,-1,15
 780 261 780 261 794 382 c 0,16,17
 806 491 806 491 734.5 550.5 c 128,-1,18
 663 610 663 610 573 645 c 0,19,20
 424 702 424 702 323.5 800 c 128,-1,21
 223 898 223 898 236 1072 c 0,22,23
 248 1246 248 1246 360 1349 c 128,-1,24
 472 1452 472 1452 639 1473 c 1,25,-1
 678 1692 l 1,26,-1
 825 1692 l 1,27,-1
 785 1470 l 1,28,29
 958 1438 958 1438 1016 1302 c 128,-1,30
 1074 1166 1074 1166 1063 1008 c 1,31,-1
 884 1008 l 1,32,33
 891 1112 891 1112 853 1211.5 c 128,-1,34
 815 1311 815 1311 689 1315 c 0,35,36
 577 1318 577 1318 503 1252.5 c 128,-1,37
 429 1187 429 1187 417 1076 c 0,38,39
 404 961 404 961 475.5 903.5 c 128,-1,40
 547 846 547 846 642 809 c 0,41,42
 791 750 791 750 889 654 c 128,-1,43
 987 558 987 558 975 384 c 0,0,1
EndSplineSet
Substitution2: "'c2sc' Capitals to Small Capitals lookup 0 subtable" dollar.smcp
Position2: "'cpsp' Capital Spacing lookup 0 subtable" dx=36 dy=0 dh=72 dv=0
EndChar

StartChar: percent
Encoding: 37 37 10
Width: 1455
Flags: W
LayerCount: 2
Fore
SplineSet
191 1099 m 2,0,-1
 198 1175 l 2,1,2
 211 1303 211 1303 299.5 1392 c 128,-1,3
 388 1481 388 1481 521 1478 c 0,4,5
 648 1475 648 1475 717 1386.5 c 128,-1,6
 786 1298 786 1298 778 1176 c 2,7,-1
 772 1099 l 1,8,9
 758 972 758 972 670 884 c 128,-1,10
 582 796 582 796 450 799 c 0,11,12
 324 802 324 802 253.5 890 c 128,-1,13
 183 978 183 978 191 1099 c 2,0,-1
336 1176 m 2,14,-1
 327 1097 l 2,15,16
 322 1032 322 1032 350.5 976.5 c 128,-1,17
 379 921 379 921 454 919 c 0,18,19
 532 917 532 917 578 972.5 c 128,-1,20
 624 1028 624 1028 634 1099 c 2,21,-1
 643 1177 l 2,22,23
 648 1242 648 1242 620.5 1299 c 128,-1,24
 593 1356 593 1356 517 1358 c 0,25,26
 439 1360 439 1360 392.5 1303.5 c 128,-1,27
 346 1247 346 1247 336 1176 c 2,14,-1
1237 1242 m 1,28,-1
 357 113 l 1,29,-1
 258 185 l 1,30,-1
 1139 1313 l 1,31,-1
 1237 1242 l 1,28,-1
737 279 m 2,32,-1
 744 356 l 2,33,34
 757 484 757 484 845.5 572.5 c 128,-1,35
 934 661 934 661 1066 658 c 0,36,37
 1193 655 1193 655 1262.5 567 c 128,-1,38
 1332 479 1332 479 1324 357 c 2,39,-1
 1317 279 l 2,40,41
 1304 151 1304 151 1216.5 63 c 128,-1,42
 1129 -25 1129 -25 996 -22 c 0,43,44
 869 -19 869 -19 799 69 c 128,-1,45
 729 157 729 157 737 279 c 2,32,-1
882 357 m 2,46,-1
 875 276 l 2,47,48
 870 211 870 211 897.5 155.5 c 128,-1,49
 925 100 925 100 1000 98 c 0,50,51
 1079 96 1079 96 1125 151.5 c 128,-1,52
 1171 207 1171 207 1181 279 c 2,53,-1
 1190 358 l 2,54,55
 1195 424 1195 424 1167 480 c 128,-1,56
 1139 536 1139 536 1063 538 c 0,57,58
 984 540 984 540 938 484.5 c 128,-1,59
 892 429 892 429 882 357 c 2,46,-1
EndSplineSet
EndChar

StartChar: ampersand
Encoding: 38 38 11
Width: 1236
Flags: W
LayerCount: 2
Fore
SplineSet
927 0 m 1,0,-1
 854 114 l 1,1,2
 680 -23 680 -23 471 -19 c 0,3,4
 294 -16 294 -16 173 91 c 128,-1,5
 52 198 52 198 67 385 c 0,6,7
 78 532 78 532 182.5 626 c 128,-1,8
 287 720 287 720 402 792 c 1,9,10
 359 867 359 867 323.5 946 c 128,-1,11
 288 1025 288 1025 294 1115 c 0,12,13
 306 1279 306 1279 414 1379.5 c 128,-1,14
 522 1480 522 1480 687 1476 c 0,15,16
 815 1473 815 1473 906.5 1392.5 c 128,-1,17
 998 1312 998 1312 990 1177 c 0,18,19
 983 1066 983 1066 915.5 988.5 c 128,-1,20
 848 911 848 911 762 852 c 2,21,-1
 630 764 l 1,22,-1
 878 382 l 1,23,24
 969 513 969 513 993 672 c 1,25,-1
 1152 672 l 1,26,27
 1140 552 1140 552 1097 444.5 c 128,-1,28
 1054 337 1054 337 972 247 c 1,29,-1
 1129 0 l 1,30,-1
 927 0 l 1,0,-1
474 1121 m 0,31,32
 467 1058 467 1058 494 1000 c 128,-1,33
 521 942 521 942 552 890 c 1,34,-1
 658 962 l 2,35,36
 718 1003 718 1003 765 1052 c 128,-1,37
 812 1101 812 1101 820 1178 c 0,38,39
 826 1244 826 1244 783.5 1285 c 128,-1,40
 741 1326 741 1326 676 1326 c 0,41,42
 590 1327 590 1327 536.5 1264.5 c 128,-1,43
 483 1202 483 1202 474 1121 c 0,31,32
250 384 m 0,44,45
 234 270 234 270 300 202.5 c 128,-1,46
 366 135 366 135 477 133 c 0,47,48
 558 131 558 131 629 165 c 128,-1,49
 700 199 700 199 762 247 c 1,50,-1
 490 668 l 1,51,-1
 444 636 l 2,52,53
 380 591 380 591 320.5 528.5 c 128,-1,54
 261 466 261 466 250 384 c 0,44,45
EndSplineSet
Substitution2: "'smcp' Lowercase to Small Capitals lookup 1 subtable" ampersand.smcp
Substitution2: "'c2sc' Capitals to Small Capitals lookup 0 subtable" ampersand.smcp
Position2: "'cpsp' Capital Spacing lookup 0 subtable" dx=36 dy=0 dh=72 dv=0
EndChar

StartChar: quotesingle
Encoding: 39 39 12
Width: 347
Flags: W
LayerCount: 2
Fore
SplineSet
393 1536 m 1,0,-1
 374 1419 l 1,1,-1
 298 1058 l 1,2,-1
 171 1058 l 1,3,-1
 231 1434 l 1,4,-1
 247 1536 l 1,5,-1
 393 1536 l 1,0,-1
EndSplineSet
EndChar

StartChar: parenleft
Encoding: 40 40 13
Width: 680
Flags: W
LayerCount: 2
Fore
SplineSet
126 577 m 1,0,-1
 128 588 l 1,1,2
 157 784 157 784 233.5 992.5 c 128,-1,3
 310 1201 310 1201 440 1375.5 c 128,-1,4
 570 1550 570 1550 759 1644 c 1,5,-1
 787 1520 l 1,6,7
 567 1357 567 1357 458.5 1105.5 c 128,-1,8
 350 854 350 854 310 593 c 1,9,-1
 308 578 l 2,10,11
 287 435 287 435 285 257.5 c 128,-1,12
 283 80 283 80 328 -85.5 c 128,-1,13
 373 -251 373 -251 493 -359 c 1,14,-1
 447 -470 l 1,15,16
 289 -360 289 -360 212 -179.5 c 128,-1,17
 135 1 135 1 119 202.5 c 128,-1,18
 103 404 103 404 126 577 c 1,0,-1
EndSplineSet
EndChar

StartChar: parenright
Encoding: 41 41 14
Width: 692
Flags: W
LayerCount: 2
Fore
SplineSet
548 597 m 1,0,-1
 546 586 l 1,1,2
 518 390 518 390 441 181 c 128,-1,3
 364 -28 364 -28 234 -202.5 c 128,-1,4
 104 -377 104 -377 -85 -471 c 1,5,-1
 -113 -357 l 1,6,7
 106 -192 106 -192 215 63.5 c 128,-1,8
 324 319 324 319 364 581 c 1,9,-1
 367 596 l 1,10,11
 387 737 387 737 388 914.5 c 128,-1,12
 389 1092 389 1092 343.5 1258 c 128,-1,13
 298 1424 298 1424 181 1531 c 1,14,-1
 228 1643 l 1,15,16
 385 1533 385 1533 461.5 1352.5 c 128,-1,17
 538 1172 538 1172 555 971 c 128,-1,18
 572 770 572 770 548 597 c 1,0,-1
EndSplineSet
EndChar

StartChar: asterisk
Encoding: 42 42 15
Width: 856
Flags: W
LayerCount: 2
Fore
SplineSet
143 716 m 1,0,-1
 384 988 l 1,1,-1
 107 1078 l 1,2,-1
 176 1221 l 1,3,-1
 454 1109 l 1,4,-1
 505 1457 l 1,5,-1
 654 1457 l 1,6,-1
 584 1112 l 1,7,-1
 888 1221 l 1,8,-1
 907 1061 l 1,9,-1
 592 970 l 1,10,-1
 738 695 l 1,11,-1
 610 608 l 1,12,-1
 480 897 l 1,13,-1
 257 619 l 1,14,-1
 143 716 l 1,0,-1
EndSplineSet
EndChar

StartChar: plus
Encoding: 43 43 16
Width: 1127
Flags: W
LayerCount: 2
Fore
SplineSet
1046 607 m 1,0,-1
 652 607 l 1,1,-1
 572 146 l 1,2,-1
 391 146 l 1,3,-1
 471 607 l 1,4,-1
 76 607 l 1,5,-1
 107 781 l 1,6,-1
 501 781 l 1,7,-1
 575 1206 l 1,8,-1
 756 1206 l 1,9,-1
 682 781 l 1,10,-1
 1076 781 l 1,11,-1
 1046 607 l 1,0,-1
EndSplineSet
EndChar

StartChar: comma
Encoding: 44 44 17
Width: 391
Flags: W
LayerCount: 2
Fore
SplineSet
235 220 m 1,0,-1
 211 72 l 2,1,2
 194 -37 194 -37 134 -131 c 128,-1,3
 74 -225 74 -225 -13 -291 c 1,4,-1
 -113 -216 l 1,5,6
 -61 -152 -61 -152 -22.5 -82.5 c 128,-1,7
 16 -13 16 -13 32 68 c 2,8,-1
 58 220 l 1,9,-1
 235 220 l 1,0,-1
EndSplineSet
EndChar

StartChar: hyphen
Encoding: 45 45 18
Width: 549
Flags: W
LayerCount: 2
Fore
SplineSet
528 695 m 1,0,-1
 501 543 l 1,1,-1
 26 543 l 1,2,-1
 53 695 l 1,3,-1
 528 695 l 1,0,-1
EndSplineSet
EndChar

StartChar: period
Encoding: 46 46 19
Width: 524
Flags: W
LayerCount: 2
Fore
SplineSet
53 95 m 0,0,1
 53 144 53 144 84.5 177 c 128,-1,2
 116 210 116 210 165 211 c 256,3,4
 214 212 214 212 245.5 181 c 128,-1,5
 277 150 277 150 276 101 c 0,6,7
 276 52 276 52 244.5 20 c 128,-1,8
 213 -12 213 -12 164 -13 c 0,9,10
 116 -14 116 -14 84 16 c 128,-1,11
 52 46 52 46 53 95 c 0,0,1
EndSplineSet
EndChar

StartChar: slash
Encoding: 47 47 20
Width: 820
Flags: W
LayerCount: 2
Fore
SplineSet
915 1456 m 1,0,-1
 52 -125 l 1,1,-1
 -112 -125 l 1,2,-1
 752 1456 l 1,3,-1
 915 1456 l 1,0,-1
EndSplineSet
Substitution2: "'frac' Diagonal Fractions lookup 31 subtable" fraction
EndChar

StartChar: zero
Encoding: 48 48 21
Width: 1116
Flags: W
LayerCount: 2
Fore
SplineSet
1043 844 m 1,0,-1
 1009 623 l 2,1,2
 986 466 986 466 930 316 c 128,-1,3
 874 166 874 166 763.5 70.5 c 128,-1,4
 653 -25 653 -25 466 -20 c 0,5,6
 288 -16 288 -16 208 84.5 c 128,-1,7
 128 185 128 185 113.5 332 c 128,-1,8
 99 479 99 479 117 622 c 2,9,-1
 150 844 l 2,10,11
 173 1002 173 1002 229.5 1148.5 c 128,-1,12
 286 1295 286 1295 396.5 1388 c 128,-1,13
 507 1481 507 1481 692 1476 c 0,14,15
 870 1472 870 1472 950.5 1374.5 c 128,-1,16
 1031 1277 1031 1277 1046 1133 c 128,-1,17
 1061 989 1061 989 1043 844 c 1,0,-1
824 592 m 2,18,-1
 867 877 l 2,19,20
 878 960 878 960 879 1063.5 c 128,-1,21
 880 1167 880 1167 839 1244.5 c 128,-1,22
 798 1322 798 1322 683 1326 c 0,23,24
 560 1331 560 1331 489.5 1259 c 128,-1,25
 419 1187 419 1187 385 1080.5 c 128,-1,26
 351 974 351 974 336 875 c 2,27,-1
 294 591 l 2,28,29
 284 511 284 511 282.5 404.5 c 128,-1,30
 281 298 281 298 321.5 217 c 128,-1,31
 362 136 362 136 476 131 c 0,32,33
 601 126 601 126 671.5 200.5 c 128,-1,34
 742 275 742 275 776 384 c 128,-1,35
 810 493 810 493 824 592 c 2,18,-1
EndSplineSet
Substitution2: "'numr' Numerators lookup 34 subtable" zero.frac
Substitution2: "'dnom' Denominators lookup 33 subtable" zero.sup
Substitution2: "'pnum' Proportional Numbers lookup 28 subtable" zero.pnum
Substitution2: "'onum' Oldstyle Figures lookup 27 subtable" zero.tnum
Substitution2: "'c2sc' Capitals to Small Capitals lookup 0 subtable" zero.smcp
Position2: "'cpsp' Capital Spacing lookup 0 subtable" dx=36 dy=0 dh=72 dv=0
EndChar

StartChar: one
Encoding: 49 49 22
Width: 1116
Flags: W
LayerCount: 2
Fore
SplineSet
852 1464 m 1,0,-1
 604 0 l 1,1,-1
 423 0 l 1,2,-1
 637 1228 l 1,3,-1
 250 1093 l 1,4,-1
 282 1268 l 1,5,-1
 820 1464 l 1,6,-1
 852 1464 l 1,0,-1
EndSplineSet
Substitution2: "'numr' Numerators lookup 34 subtable" onesuperior
Substitution2: "'dnom' Denominators lookup 33 subtable" one.sup
Substitution2: "'pnum' Proportional Numbers lookup 28 subtable" one.pnum
Substitution2: "'onum' Oldstyle Figures lookup 27 subtable" one.tnum
Substitution2: "'c2sc' Capitals to Small Capitals lookup 0 subtable" one.smcp
Position2: "'cpsp' Capital Spacing lookup 0 subtable" dx=36 dy=0 dh=72 dv=0
EndChar

StartChar: two
Encoding: 50 50 23
Width: 1116
Flags: W
LayerCount: 2
Fore
SplineSet
974 152 m 1,0,-1
 950 0 l 1,1,-1
 24 0 l 1,2,-1
 46 141 l 1,3,-1
 584 665 l 2,4,5
 667 747 667 747 759.5 848 c 128,-1,6
 852 949 852 949 868 1073 c 0,7,8
 880 1175 880 1175 826.5 1248.5 c 128,-1,9
 773 1322 773 1322 666 1325 c 0,10,11
 527 1329 527 1329 443.5 1244 c 128,-1,12
 360 1159 360 1159 341 1029 c 1,13,-1
 163 1028 l 1,14,15
 182 1232 182 1232 325 1356 c 128,-1,16
 468 1480 468 1480 673 1476 c 0,17,18
 843 1473 843 1473 955.5 1372.5 c 128,-1,19
 1068 1272 1068 1272 1052 1094 c 0,20,21
 1039 938 1039 938 931.5 807.5 c 128,-1,22
 824 677 824 677 717 575 c 2,23,-1
 272 152 l 1,24,-1
 974 152 l 1,0,-1
EndSplineSet
Substitution2: "'numr' Numerators lookup 34 subtable" twosuperior
Substitution2: "'dnom' Denominators lookup 33 subtable" two.sup
Substitution2: "'pnum' Proportional Numbers lookup 28 subtable" two.pnum
Substitution2: "'onum' Oldstyle Figures lookup 27 subtable" two.tnum
Substitution2: "'c2sc' Capitals to Small Capitals lookup 0 subtable" two.smcp
Position2: "'cpsp' Capital Spacing lookup 0 subtable" dx=36 dy=0 dh=72 dv=0
EndChar

StartChar: three
Encoding: 51 51 24
Width: 1116
Flags: W
LayerCount: 2
Fore
SplineSet
527 666 m 2,0,-1
 388 667 l 1,1,-1
 412 819 l 1,2,-1
 531 818 l 2,3,4
 653 819 653 819 748 882.5 c 128,-1,5
 843 946 843 946 857 1075 c 0,6,7
 868 1185 868 1185 817.5 1254 c 128,-1,8
 767 1323 767 1323 652 1326 c 0,9,10
 535 1328 535 1328 456.5 1258.5 c 128,-1,11
 378 1189 378 1189 360 1076 c 1,12,-1
 181 1075 l 1,13,14
 198 1260 198 1260 338.5 1370 c 128,-1,15
 479 1480 479 1480 661 1477 c 0,16,17
 841 1473 841 1473 947.5 1364 c 128,-1,18
 1054 1255 1054 1255 1039 1071 c 0,19,20
 1030 952 1030 952 949 870.5 c 128,-1,21
 868 789 868 789 766 743 c 1,22,23
 870 700 870 700 916.5 611.5 c 128,-1,24
 963 523 963 523 955 413 c 0,25,26
 940 213 940 213 797 94.5 c 128,-1,27
 654 -24 654 -24 457 -20 c 0,28,29
 277 -16 277 -16 162.5 92.5 c 128,-1,30
 48 201 48 201 56 386 c 1,31,-1
 236 385 l 1,32,33
 229 272 229 272 289.5 203.5 c 128,-1,34
 350 135 350 135 465 132 c 0,35,36
 595 129 595 129 678.5 205 c 128,-1,37
 762 281 762 281 774 409 c 0,38,39
 787 536 787 536 717 599.5 c 128,-1,40
 647 663 647 663 527 666 c 2,0,-1
EndSplineSet
Substitution2: "'numr' Numerators lookup 34 subtable" threesuperior
Substitution2: "'dnom' Denominators lookup 33 subtable" three.sup
Substitution2: "'pnum' Proportional Numbers lookup 28 subtable" three.pnum
Substitution2: "'onum' Oldstyle Figures lookup 27 subtable" three.tnum
Substitution2: "'c2sc' Capitals to Small Capitals lookup 0 subtable" three.smcp
Position2: "'cpsp' Capital Spacing lookup 0 subtable" dx=36 dy=0 dh=72 dv=0
EndChar

StartChar: four
Encoding: 52 52 25
Width: 1116
Flags: W
LayerCount: 2
Fore
SplineSet
26 457 m 1,0,-1
 826 1456 l 1,1,-1
 1024 1456 l 1,2,-1
 857 490 l 1,3,-1
 1054 490 l 1,4,-1
 1027 338 l 1,5,-1
 831 338 l 1,6,-1
 772 0 l 1,7,-1
 591 0 l 1,8,-1
 650 338 l 1,9,-1
 5 338 l 1,10,-1
 26 457 l 1,0,-1
243 490 m 1,11,-1
 676 490 l 1,12,-1
 807 1208 l 1,13,-1
 776 1164 l 1,14,-1
 243 490 l 1,11,-1
EndSplineSet
Substitution2: "'numr' Numerators lookup 34 subtable" four.frac
Substitution2: "'dnom' Denominators lookup 33 subtable" four.sup
Substitution2: "'pnum' Proportional Numbers lookup 28 subtable" four.pnum
Substitution2: "'onum' Oldstyle Figures lookup 27 subtable" four.tnum
Substitution2: "'c2sc' Capitals to Small Capitals lookup 0 subtable" four.smcp
Position2: "'cpsp' Capital Spacing lookup 0 subtable" dx=36 dy=0 dh=72 dv=0
EndChar

StartChar: five
Encoding: 53 53 26
Width: 1116
Flags: W
LayerCount: 2
Fore
SplineSet
369 694 m 1,0,-1
 220 734 l 1,1,-1
 404 1456 l 1,2,-1
 1131 1456 l 1,3,-1
 1104 1285 l 1,4,-1
 533 1285 l 1,5,-1
 421 888 l 1,6,7
 530 952 530 952 659 951 c 0,8,9
 794 950 794 950 876.5 880.5 c 128,-1,10
 959 811 959 811 993.5 701.5 c 128,-1,11
 1028 592 1028 592 1017 471 c 0,12,13
 999 260 999 260 864.5 117 c 128,-1,14
 730 -26 730 -26 509 -21 c 0,15,16
 327 -18 327 -18 224.5 95 c 128,-1,17
 122 208 122 208 114 384 c 1,18,-1
 284 384 l 1,19,20
 291 276 291 276 346.5 205 c 128,-1,21
 402 134 402 134 517 131 c 0,22,23
 662 128 662 128 742 233 c 128,-1,24
 822 338 822 338 835 470 c 0,25,26
 847 588 847 588 794 685 c 128,-1,27
 741 782 741 782 609 785 c 0,28,29
 537 787 537 787 480.5 762.5 c 128,-1,30
 424 738 424 738 369 694 c 1,0,-1
EndSplineSet
Substitution2: "'numr' Numerators lookup 34 subtable" five.frac
Substitution2: "'dnom' Denominators lookup 33 subtable" five.sup
Substitution2: "'pnum' Proportional Numbers lookup 28 subtable" five.pnum
Substitution2: "'onum' Oldstyle Figures lookup 27 subtable" five.tnum
Substitution2: "'c2sc' Capitals to Small Capitals lookup 0 subtable" five.smcp
Position2: "'cpsp' Capital Spacing lookup 0 subtable" dx=36 dy=0 dh=72 dv=0
EndChar

StartChar: six
Encoding: 54 54 27
Width: 1116
Flags: W
LayerCount: 2
Fore
SplineSet
1001 482 m 0,0,1
 982 278 982 278 850.5 126 c 128,-1,2
 719 -26 719 -26 501 -20 c 0,3,4
 353 -17 353 -17 263.5 68.5 c 128,-1,5
 174 154 174 154 139.5 282 c 128,-1,6
 105 410 105 410 120 539 c 2,7,-1
 131 626 l 2,8,9
 163 852 163 852 256.5 1041.5 c 128,-1,10
 350 1231 350 1231 515.5 1344.5 c 128,-1,11
 681 1458 681 1458 930 1459 c 2,12,-1
 951 1459 l 1,13,-1
 935 1302 l 1,14,-1
 923 1302 l 2,15,16
 686 1303 686 1303 548 1168.5 c 128,-1,17
 410 1034 410 1034 340 824 c 1,18,19
 473 959 473 959 656 954 c 0,20,21
 786 951 786 951 866 882 c 128,-1,22
 946 813 946 813 978.5 705.5 c 128,-1,23
 1011 598 1011 598 1001 482 c 0,0,1
302 532 m 2,24,25
 294 458 294 458 305.5 365.5 c 128,-1,26
 317 273 317 273 364 204.5 c 128,-1,27
 411 136 411 136 509 133 c 0,28,29
 652 128 652 128 730 237.5 c 128,-1,30
 808 347 808 347 821 473 c 0,31,32
 829 545 829 545 814 620.5 c 128,-1,33
 799 696 799 696 752.5 748 c 128,-1,34
 706 800 706 800 619 803 c 0,35,36
 519 806 519 806 437.5 747 c 128,-1,37
 356 688 356 688 311 603 c 1,38,-1
 302 532 l 2,24,25
EndSplineSet
Substitution2: "'numr' Numerators lookup 34 subtable" six.frac
Substitution2: "'dnom' Denominators lookup 33 subtable" six.sup
Substitution2: "'lnum' Lining Figures lookup 30 subtable" six.pnum
Substitution2: "'tnum' Tabular Numbers lookup 29 subtable" six.tnum
Substitution2: "'pnum' Proportional Numbers lookup 28 subtable" six.pnum
Substitution2: "'onum' Oldstyle Figures lookup 27 subtable" six.tnum
Substitution2: "'c2sc' Capitals to Small Capitals lookup 0 subtable" six.smcp
Position2: "'cpsp' Capital Spacing lookup 0 subtable" dx=36 dy=0 dh=72 dv=0
EndChar

StartChar: seven
Encoding: 55 55 28
Width: 1116
Flags: W
LayerCount: 2
Fore
SplineSet
1165 1456 m 1,0,-1
 1147 1342 l 1,1,-1
 356 0 l 1,2,-1
 157 0 l 1,3,-1
 945 1304 l 1,4,-1
 185 1304 l 1,5,-1
 209 1456 l 1,6,-1
 1165 1456 l 1,0,-1
EndSplineSet
Substitution2: "'numr' Numerators lookup 34 subtable" seven.frac
Substitution2: "'dnom' Denominators lookup 33 subtable" seven.sup
Substitution2: "'pnum' Proportional Numbers lookup 28 subtable" seven.pnum
Substitution2: "'onum' Oldstyle Figures lookup 27 subtable" seven.tnum
Substitution2: "'c2sc' Capitals to Small Capitals lookup 0 subtable" seven.smcp
Position2: "'cpsp' Capital Spacing lookup 0 subtable" dx=36 dy=0 dh=72 dv=0
EndChar

StartChar: eight
Encoding: 56 56 29
Width: 1116
Flags: W
LayerCount: 2
Fore
SplineSet
971 403 m 0,0,1
 956 202 956 202 808.5 89 c 128,-1,2
 661 -24 661 -24 468 -20 c 0,3,4
 290 -17 290 -17 174.5 91.5 c 128,-1,5
 59 200 59 200 74 386 c 0,6,7
 85 522 85 522 168.5 613.5 c 128,-1,8
 252 705 252 705 372 756 c 1,9,10
 294 809 294 809 256.5 891.5 c 128,-1,11
 219 974 219 974 226 1068 c 0,12,13
 240 1257 240 1257 373.5 1368.5 c 128,-1,14
 507 1480 507 1480 693 1476 c 0,15,16
 864 1473 864 1473 968 1366.5 c 128,-1,17
 1072 1260 1072 1260 1058 1086 c 0,18,19
 1048 964 1048 964 973.5 880.5 c 128,-1,20
 899 797 899 797 794 746 c 1,21,22
 887 692 887 692 933 600.5 c 128,-1,23
 979 509 979 509 971 403 c 0,0,1
876 1083 m 0,24,25
 887 1179 887 1179 836 1251 c 128,-1,26
 785 1323 785 1323 683 1325 c 0,27,28
 569 1328 569 1328 493 1251.5 c 128,-1,29
 417 1175 417 1175 406 1065 c 0,30,31
 396 967 396 967 445.5 896.5 c 128,-1,32
 495 826 495 826 599 824 c 0,33,34
 712 822 712 822 788.5 897.5 c 128,-1,35
 865 973 865 973 876 1083 c 0,24,25
791 407 m 0,36,37
 803 516 803 516 744 594 c 128,-1,38
 685 672 685 672 571 675 c 0,39,40
 445 678 445 678 357.5 595 c 128,-1,41
 270 512 270 512 256 389 c 0,42,43
 243 276 243 276 302 205 c 128,-1,44
 361 134 361 134 477 131 c 0,45,46
 603 128 603 128 690.5 204.5 c 128,-1,47
 778 281 778 281 791 407 c 0,36,37
EndSplineSet
Substitution2: "'numr' Numerators lookup 34 subtable" eight.frac
Substitution2: "'dnom' Denominators lookup 33 subtable" eight.sup
Substitution2: "'lnum' Lining Figures lookup 30 subtable" eight.pnum
Substitution2: "'tnum' Tabular Numbers lookup 29 subtable" eight.tnum
Substitution2: "'pnum' Proportional Numbers lookup 28 subtable" eight.pnum
Substitution2: "'onum' Oldstyle Figures lookup 27 subtable" eight.tnum
Substitution2: "'c2sc' Capitals to Small Capitals lookup 0 subtable" eight.smcp
Position2: "'cpsp' Capital Spacing lookup 0 subtable" dx=36 dy=0 dh=72 dv=0
EndChar

StartChar: nine
Encoding: 57 57 30
Width: 1116
Flags: W
LayerCount: 2
Fore
SplineSet
1020 820 m 2,0,1
 988 591 988 591 898.5 404.5 c 128,-1,2
 809 218 809 218 645.5 108 c 128,-1,3
 482 -2 482 -2 228 -3 c 2,4,-1
 205 -3 l 1,5,-1
 221 154 l 1,6,-1
 236 154 l 2,7,8
 487 153 487 153 621.5 284 c 128,-1,9
 756 415 756 415 819 642 c 1,10,11
 755 574 755 574 674 529.5 c 128,-1,12
 593 485 593 485 497 487 c 0,13,14
 366 490 366 490 287 561.5 c 128,-1,15
 208 633 208 633 176 742 c 128,-1,16
 144 851 144 851 155 966 c 0,17,18
 168 1102 168 1102 231 1219.5 c 128,-1,19
 294 1337 294 1337 401.5 1408 c 128,-1,20
 509 1479 509 1479 656 1476 c 0,21,22
 815 1472 815 1472 901.5 1381 c 128,-1,23
 988 1290 988 1290 1016.5 1155.5 c 128,-1,24
 1045 1021 1045 1021 1029 887 c 2,25,-1
 1020 820 l 2,0,1
334 976 m 0,26,27
 326 905 326 905 340.5 828 c 128,-1,28
 355 751 355 751 401 697 c 128,-1,29
 447 643 447 643 534 640 c 0,30,31
 634 637 634 637 713.5 697 c 128,-1,32
 793 757 793 757 842 839 c 1,33,-1
 851 913 l 2,34,35
 859 987 859 987 849 1082 c 128,-1,36
 839 1177 839 1177 793 1248.5 c 128,-1,37
 747 1320 747 1320 647 1323 c 0,38,39
 504 1329 504 1329 425.5 1215.5 c 128,-1,40
 347 1102 347 1102 334 976 c 0,26,27
EndSplineSet
Substitution2: "'numr' Numerators lookup 34 subtable" nine.frac
Substitution2: "'dnom' Denominators lookup 33 subtable" nine.sup
Substitution2: "'pnum' Proportional Numbers lookup 28 subtable" nine.pnum
Substitution2: "'onum' Oldstyle Figures lookup 27 subtable" nine.tnum
Substitution2: "'c2sc' Capitals to Small Capitals lookup 0 subtable" nine.smcp
Position2: "'cpsp' Capital Spacing lookup 0 subtable" dx=36 dy=0 dh=72 dv=0
EndChar

StartChar: less
Encoding: 60 60 33
Width: 1010
Flags: W
LayerCount: 2
Fore
SplineSet
794 201 m 1,0,-1
 65 580 l 1,1,-1
 90 725 l 1,2,-1
 951 1103 l 1,3,-1
 915 898 l 1,4,-1
 264 641 l 1,5,-1
 827 388 l 1,6,-1
 794 201 l 1,0,-1
EndSplineSet
EndChar

StartChar: equal
Encoding: 61 61 34
Width: 1090
Flags: W
LayerCount: 2
Fore
SplineSet
1022 975 m 1,0,-1
 993 814 l 1,1,-1
 183 814 l 1,2,-1
 211 975 l 1,3,-1
 1022 975 l 1,0,-1
950 560 m 1,4,-1
 921 399 l 1,5,-1
 111 399 l 1,6,-1
 139 560 l 1,7,-1
 950 560 l 1,4,-1
EndSplineSet
EndChar

StartChar: greater
Encoding: 62 62 35
Width: 1039
Flags: W
LayerCount: 2
Fore
SplineSet
217 1095 m 1,0,-1
 981 717 l 1,1,-1
 955 572 l 1,2,-1
 59 192 l 1,3,-1
 95 392 l 1,4,-1
 783 655 l 1,5,-1
 184 913 l 1,6,-1
 217 1095 l 1,0,-1
EndSplineSet
EndChar

StartChar: question
Encoding: 63 63 36
Width: 939
Flags: W
LayerCount: 2
Fore
SplineSet
499 410 m 1,0,-1
 321 409 l 1,1,2
 335 539 335 539 389 624.5 c 128,-1,3
 443 710 443 710 539 796 c 0,4,5
 612 860 612 860 679.5 929 c 128,-1,6
 747 998 747 998 760 1101 c 0,7,8
 771 1190 771 1190 731 1251.5 c 128,-1,9
 691 1313 691 1313 596 1316 c 0,10,11
 499 1319 499 1319 431.5 1264.5 c 128,-1,12
 364 1210 364 1210 345 1116 c 1,13,-1
 165 1115 l 1,14,15
 185 1287 185 1287 311.5 1383.5 c 128,-1,16
 438 1480 438 1480 607 1477 c 0,17,18
 773 1473 773 1473 866.5 1372 c 128,-1,19
 960 1271 960 1271 946 1104 c 0,20,21
 933 958 933 958 836.5 854 c 128,-1,22
 740 750 740 750 635 663 c 0,23,24
 574 613 574 613 542.5 550 c 128,-1,25
 511 487 511 487 499 410 c 1,0,-1
250 90 m 0,26,27
 251 137 251 137 280.5 168.5 c 128,-1,28
 310 200 310 200 357 201 c 256,29,30
 404 202 404 202 434 172 c 128,-1,31
 464 142 464 142 463 95 c 0,32,33
 463 49 463 49 433 18.5 c 128,-1,34
 403 -12 403 -12 356 -13 c 0,35,36
 310 -14 310 -14 280 15 c 128,-1,37
 250 44 250 44 250 90 c 0,26,27
EndSplineSet
EndChar

StartChar: at
Encoding: 64 64 37
Width: 1784
Flags: W
LayerCount: 2
Fore
SplineSet
1065 -366 m 1,0,1
 985 -416 985 -416 887.5 -435 c 128,-1,2
 790 -454 790 -454 697 -453 c 0,3,4
 433 -450 433 -450 286 -314.5 c 128,-1,5
 139 -179 139 -179 93.5 32.5 c 128,-1,6
 48 244 48 244 89 473 c 0,7,8
 133 716 133 716 263.5 936.5 c 128,-1,9
 394 1157 394 1157 599 1296 c 128,-1,10
 804 1435 804 1435 1071 1431 c 0,11,12
 1335 1428 1335 1428 1479.5 1292.5 c 128,-1,13
 1624 1157 1624 1157 1667.5 946.5 c 128,-1,14
 1711 736 1711 736 1672 508 c 0,15,16
 1651 386 1651 386 1594.5 262 c 128,-1,17
 1538 138 1538 138 1440.5 56.5 c 128,-1,18
 1343 -25 1343 -25 1199 -21 c 0,19,20
 1117 -19 1117 -19 1059.5 23.5 c 128,-1,21
 1002 66 1002 66 988 149 c 1,22,23
 936 83 936 83 867 29.5 c 128,-1,24
 798 -24 798 -24 707 -22 c 0,25,26
 594 -19 594 -19 546 53.5 c 128,-1,27
 498 126 498 126 493 226.5 c 128,-1,28
 488 327 488 327 503 410 c 0,29,30
 525 531 525 531 588 667.5 c 128,-1,31
 651 804 651 804 755 899 c 128,-1,32
 859 994 859 994 1005 991 c 0,33,34
 1086 990 1086 990 1149.5 961.5 c 128,-1,35
 1213 933 1213 933 1276 886 c 1,36,-1
 1145 328 l 2,37,38
 1137 289 1137 289 1134 235.5 c 128,-1,39
 1131 182 1131 182 1149.5 140.5 c 128,-1,40
 1168 99 1168 99 1226 96 c 0,41,42
 1328 92 1328 92 1393.5 162.5 c 128,-1,43
 1459 233 1459 233 1495.5 331 c 128,-1,44
 1532 429 1532 429 1545 508 c 0,45,46
 1580 705 1580 705 1555 885 c 128,-1,47
 1530 1065 1530 1065 1415.5 1181 c 128,-1,48
 1301 1297 1301 1297 1067 1300 c 0,49,50
 835 1304 835 1304 662 1183 c 128,-1,51
 489 1062 489 1062 380.5 871 c 128,-1,52
 272 680 272 680 233 472 c 0,53,54
 198 286 198 286 222.5 102.5 c 128,-1,55
 247 -81 247 -81 359.5 -203 c 128,-1,56
 472 -325 472 -325 699 -327 c 0,57,58
 874 -329 874 -329 1037 -250 c 1,59,-1
 1065 -366 l 1,0,1
663 410 m 0,60,61
 654 363 654 363 649.5 295.5 c 128,-1,62
 645 228 645 228 667.5 175.5 c 128,-1,63
 690 123 690 123 761 120 c 0,64,65
 844 117 844 117 901 186.5 c 128,-1,66
 958 256 958 256 993 319 c 0,67,68
 994 328 994 328 994 329 c 2,69,-1
 1126 835 l 1,70,71
 1075 862 1075 862 1019 864 c 0,72,73
 907 868 907 868 834 790.5 c 128,-1,74
 761 713 761 713 720 605 c 128,-1,75
 679 497 679 497 663 410 c 0,60,61
EndSplineSet
EndChar

StartChar: A
Encoding: 65 65 38
Width: 1296
GlyphClass: 2
Flags: W
AnchorPoint: "Anchor-5" 1468 1601 basechar 0
AnchorPoint: "Anchor-3" 1121 -407 basechar 0
AnchorPoint: "Anchor-2" 1468 1600 basechar 0
AnchorPoint: "Anchor-1" 561 0 basechar 0
AnchorPoint: "Anchor-0" 824 1601 basechar 0
LayerCount: 2
Fore
SplineSet
-81 0 m 1,0,-1
 710 1456 l 1,1,-1
 876 1456 l 1,2,-1
 1163 0 l 1,3,-1
 978 0 l 1,4,-1
 910 381 l 1,5,-1
 321 381 l 1,6,-1
 120 0 l 1,7,-1
 -81 0 l 1,0,-1
403 539 m 1,8,-1
 881 539 l 1,9,-1
 760 1217 l 1,10,-1
 403 539 l 1,8,-1
EndSplineSet
Substitution2: "'unic' Unicase lookup 2 subtable" A.unic
Substitution2: "'c2sc' Capitals to Small Capitals lookup 0 subtable" A.smcp
Position2: "'cpsp' Capital Spacing lookup 0 subtable" dx=36 dy=0 dh=72 dv=0
EndChar

StartChar: B
Encoding: 66 66 39
Width: 1238
GlyphClass: 2
Flags: W
AnchorPoint: "Anchor-5" 1412 1612 basechar 0
AnchorPoint: "Anchor-3" 1063 -407 basechar 0
AnchorPoint: "Anchor-2" 1410 1600 basechar 0
AnchorPoint: "Anchor-1" 492 10 basechar 0
AnchorPoint: "Anchor-0" 762 1612 basechar 0
LayerCount: 2
Fore
SplineSet
1093 428 m 0,0,1
 1076 212 1076 212 922.5 105.5 c 128,-1,2
 769 -1 769 -1 567 0 c 2,3,-1
 59 0 l 1,4,-1
 312 1456 l 1,5,-1
 763 1455 l 2,6,7
 944 1451 944 1451 1065 1363 c 128,-1,8
 1186 1275 1186 1275 1170 1076 c 0,9,10
 1160 959 1160 959 1085 883 c 128,-1,11
 1010 807 1010 807 908 762 c 1,12,13
 1012 722 1012 722 1056.5 627.5 c 128,-1,14
 1101 533 1101 533 1093 428 c 0,0,1
473 1298 m 1,15,-1
 393 836 l 1,16,-1
 664 835 l 2,17,18
 779 835 779 835 872 895.5 c 128,-1,19
 965 956 965 956 981 1079 c 0,20,21
 995 1196 995 1196 931.5 1245 c 128,-1,22
 868 1294 868 1294 759 1297 c 2,23,-1
 473 1298 l 1,15,-1
907 426 m 0,24,25
 937 672 937 672 693 680 c 1,26,-1
 366 681 l 1,27,-1
 275 157 l 1,28,-1
 572 156 l 2,29,30
 699 156 699 156 794.5 224.5 c 128,-1,31
 890 293 890 293 907 426 c 0,24,25
EndSplineSet
Substitution2: "'c2sc' Capitals to Small Capitals lookup 0 subtable" B.smcp
Position2: "'cpsp' Capital Spacing lookup 0 subtable" dx=36 dy=0 dh=72 dv=0
EndChar

StartChar: C
Encoding: 67 67 40
Width: 1293
GlyphClass: 2
Flags: W
AnchorPoint: "Anchor-5" 1471 1633 basechar 0
AnchorPoint: "Anchor-3" 1119 -407 basechar 0
AnchorPoint: "Anchor-2" 1465 1600 basechar 0
AnchorPoint: "Anchor-1" 554 -10 basechar 0
AnchorPoint: "Anchor-0" 838 1633 basechar 0
LayerCount: 2
Fore
SplineSet
987 462 m 1,0,-1
 1172 464 l 1,1,2
 1128 239 1128 239 966.5 107 c 128,-1,3
 805 -25 805 -25 574 -20 c 0,4,5
 389 -16 389 -16 284 86 c 128,-1,6
 179 188 179 188 142.5 341.5 c 128,-1,7
 106 495 106 495 127 655 c 2,8,-1
 148 800 l 2,9,10
 175 977 175 977 259 1133 c 128,-1,11
 343 1289 343 1289 483.5 1384.5 c 128,-1,12
 624 1480 624 1480 820 1476 c 0,13,14
 1041 1471 1041 1471 1153.5 1335 c 128,-1,15
 1266 1199 1266 1199 1272 988 c 1,16,-1
 1086 988 l 1,17,18
 1081 1126 1081 1126 1022.5 1220 c 128,-1,19
 964 1314 964 1314 812 1319 c 0,20,21
 666 1323 666 1323 567.5 1246 c 128,-1,22
 469 1169 469 1169 412.5 1049 c 128,-1,23
 356 929 356 929 336 802 c 2,24,-1
 314 654 l 2,25,26
 300 549 300 549 311.5 430 c 128,-1,27
 323 311 323 311 385 226 c 128,-1,28
 447 141 447 141 583 137 c 0,29,30
 751 131 751 131 846.5 220 c 128,-1,31
 942 309 942 309 987 462 c 1,0,-1
EndSplineSet
Substitution2: "'ss06' Style Set 6 lookup 25 subtable" C.ss06
Substitution2: "'c2sc' Capitals to Small Capitals lookup 0 subtable" C.smcp
Position2: "'cpsp' Capital Spacing lookup 0 subtable" dx=36 dy=0 dh=72 dv=0
EndChar

StartChar: D
Encoding: 68 68 41
Width: 1304
GlyphClass: 2
Flags: W
AnchorPoint: "Anchor-5" 1478 1612 basechar 0
AnchorPoint: "Anchor-3" 1129 -407 basechar 0
AnchorPoint: "Anchor-2" 1476 1600 basechar 0
AnchorPoint: "Anchor-1" 492 10 basechar 0
AnchorPoint: "Anchor-0" 765 1612 basechar 0
LayerCount: 2
Fore
SplineSet
59 0 m 1,0,-1
 312 1456 l 1,1,-1
 700 1455 l 2,2,3
 894 1451 894 1451 1016 1355 c 128,-1,4
 1138 1259 1138 1259 1187.5 1104.5 c 128,-1,5
 1237 950 1237 950 1215 771 c 2,6,-1
 1203 684 l 2,7,8
 1160 387 1160 387 961.5 193 c 128,-1,9
 763 -1 763 -1 454 0 c 2,10,-1
 59 0 l 1,0,-1
696 1297 m 2,11,-1
 473 1298 l 1,12,-1
 275 157 l 1,13,-1
 459 156 l 2,14,15
 697 156 697 156 839 307.5 c 128,-1,16
 981 459 981 459 1016 684 c 2,17,-1
 1029 774 l 2,18,19
 1046 902 1046 902 1023.5 1020.5 c 128,-1,20
 1001 1139 1001 1139 923 1216 c 128,-1,21
 845 1293 845 1293 696 1297 c 2,11,-1
EndSplineSet
Substitution2: "'ss06' Style Set 6 lookup 25 subtable" D.ss06
Substitution2: "'c2sc' Capitals to Small Capitals lookup 0 subtable" D.smcp
Position2: "'cpsp' Capital Spacing lookup 0 subtable" dx=36 dy=0 dh=72 dv=0
EndChar

StartChar: E
Encoding: 69 69 42
Width: 1129
GlyphClass: 2
Flags: W
AnchorPoint: "Anchor-5" 1303 1612 basechar 0
AnchorPoint: "Anchor-3" 955 -407 basechar 0
AnchorPoint: "Anchor-2" 1301 1600 basechar 0
AnchorPoint: "Anchor-1" 498 10 basechar 0
AnchorPoint: "Anchor-0" 775 1612 basechar 0
LayerCount: 2
Fore
SplineSet
59 0 m 1,0,-1
 312 1456 l 1,1,-1
 1201 1456 l 1,2,-1
 1173 1298 l 1,3,-1
 473 1298 l 1,4,-1
 392 830 l 1,5,-1
 1003 830 l 1,6,-1
 976 673 l 1,7,-1
 365 673 l 1,8,-1
 275 157 l 1,9,-1
 986 157 l 1,10,-1
 958 0 l 1,11,-1
 59 0 l 1,0,-1
EndSplineSet
Substitution2: "'unic' Unicase lookup 2 subtable" E.unic
Substitution2: "'c2sc' Capitals to Small Capitals lookup 0 subtable" E.smcp
Position2: "'cpsp' Capital Spacing lookup 0 subtable" dx=36 dy=0 dh=72 dv=0
EndChar

StartChar: F
Encoding: 70 70 43
Width: 1098
GlyphClass: 2
Flags: W
AnchorPoint: "Anchor-5" 1272 1612 basechar 0
AnchorPoint: "Anchor-3" 924 -407 basechar 0
AnchorPoint: "Anchor-2" 1270 1600 basechar 0
AnchorPoint: "Anchor-1" 413 10 basechar 0
AnchorPoint: "Anchor-0" 775 1612 basechar 0
LayerCount: 2
Fore
SplineSet
59 0 m 1,0,-1
 312 1456 l 1,1,-1
 1188 1456 l 1,2,-1
 1160 1298 l 1,3,-1
 473 1298 l 1,4,-1
 387 801 l 1,5,-1
 979 801 l 1,6,-1
 951 643 l 1,7,-1
 360 643 l 1,8,-1
 248 0 l 1,9,-1
 59 0 l 1,0,-1
EndSplineSet
Substitution2: "'c2sc' Capitals to Small Capitals lookup 0 subtable" F.smcp
Position2: "'cpsp' Capital Spacing lookup 0 subtable" dx=36 dy=0 dh=72 dv=0
EndChar

StartChar: G
Encoding: 71 71 44
Width: 1353
GlyphClass: 2
Flags: W
AnchorPoint: "Anchor-5" 1531 1633 basechar 0
AnchorPoint: "Anchor-3" 1179 -407 basechar 0
AnchorPoint: "Anchor-2" 1525 1600 basechar 0
AnchorPoint: "Anchor-1" 602 -9 basechar 0
AnchorPoint: "Anchor-0" 830 1633 basechar 0
LayerCount: 2
Fore
SplineSet
1229 725 m 1,0,-1
 1143 192 l 1,1,2
 1054 69 1054 69 905.5 23.5 c 128,-1,3
 757 -22 757 -22 614 -20 c 0,4,5
 421 -17 421 -17 307.5 85 c 128,-1,6
 194 187 194 187 152 344.5 c 128,-1,7
 110 502 110 502 132 672 c 2,8,-1
 148 785 l 2,9,10
 175 968 175 968 256.5 1127.5 c 128,-1,11
 338 1287 338 1287 478.5 1383.5 c 128,-1,12
 619 1480 619 1480 823 1476 c 0,13,14
 1031 1472 1031 1472 1150 1352.5 c 128,-1,15
 1269 1233 1269 1233 1284 1029 c 1,16,-1
 1098 1029 l 1,17,18
 1088 1159 1088 1159 1019 1236.5 c 128,-1,19
 950 1314 950 1314 815 1318 c 0,20,21
 663 1323 663 1323 564.5 1244 c 128,-1,22
 466 1165 466 1165 412 1041 c 128,-1,23
 358 917 358 917 338 787 c 2,24,-1
 321 671 l 2,25,26
 306 557 306 557 322.5 434.5 c 128,-1,27
 339 312 339 312 408.5 226.5 c 128,-1,28
 478 141 478 141 621 138 c 0,29,30
 713 136 713 136 799.5 158 c 128,-1,31
 886 180 886 180 956 243 c 1,32,-1
 1015 569 l 1,33,-1
 687 569 l 1,34,-1
 715 725 l 1,35,-1
 1229 725 l 1,0,-1
EndSplineSet
Substitution2: "'ss06' Style Set 6 lookup 25 subtable" G.ss06
Substitution2: "'c2sc' Capitals to Small Capitals lookup 0 subtable" G.smcp
Position2: "'cpsp' Capital Spacing lookup 0 subtable" dx=36 dy=0 dh=72 dv=0
EndChar

StartChar: H
Encoding: 72 72 45
Width: 1417
GlyphClass: 2
Flags: W
AnchorPoint: "Anchor-5" 1592 1612 basechar 0
AnchorPoint: "Anchor-3" 1243 -407 basechar 0
AnchorPoint: "Anchor-2" 1589 1600 basechar 0
AnchorPoint: "Anchor-1" 590 10 basechar 0
AnchorPoint: "Anchor-0" 865 1612 basechar 0
LayerCount: 2
Fore
SplineSet
959 0 m 1,0,-1
 1076 673 l 1,1,-1
 365 673 l 1,2,-1
 248 0 l 1,3,-1
 59 0 l 1,4,-1
 312 1456 l 1,5,-1
 501 1456 l 1,6,-1
 392 830 l 1,7,-1
 1102 830 l 1,8,-1
 1211 1456 l 1,9,-1
 1399 1456 l 1,10,-1
 1146 0 l 1,11,-1
 959 0 l 1,0,-1
EndSplineSet
Substitution2: "'c2sc' Capitals to Small Capitals lookup 0 subtable" H.smcp
Position2: "'cpsp' Capital Spacing lookup 0 subtable" dx=36 dy=0 dh=72 dv=0
EndChar

StartChar: I
Encoding: 73 73 46
Width: 540
GlyphClass: 2
Flags: W
AnchorPoint: "Anchor-5" 715 1612 basechar 0
AnchorPoint: "Anchor-3" 366 -407 basechar 0
AnchorPoint: "Anchor-2" 713 1600 basechar 0
AnchorPoint: "Anchor-1" 168 9 basechar 0
AnchorPoint: "Anchor-0" 445 1612 basechar 0
LayerCount: 2
Fore
SplineSet
513 1456 m 1,0,-1
 260 0 l 1,1,-1
 72 0 l 1,2,-1
 325 1456 l 1,3,-1
 513 1456 l 1,0,-1
EndSplineSet
Substitution2: "'c2sc' Capitals to Small Capitals lookup 0 subtable" I.smcp
Position2: "'cpsp' Capital Spacing lookup 0 subtable" dx=36 dy=0 dh=72 dv=0
EndChar

StartChar: J
Encoding: 74 74 47
Width: 1096
GlyphClass: 2
Flags: W
AnchorPoint: "Anchor-5" 1268 1599 basechar 0
AnchorPoint: "Anchor-3" 922 -407 basechar 0
AnchorPoint: "Anchor-2" 1268 1600 basechar 0
AnchorPoint: "Anchor-1" 391 -10 basechar 0
AnchorPoint: "Anchor-0" 999 1599 basechar 0
LayerCount: 2
Fore
SplineSet
729 424 m 2,0,-1
 905 1456 l 1,1,-1
 1092 1456 l 1,2,-1
 917 425 l 1,3,4
 888 223 888 223 751.5 98.5 c 128,-1,5
 615 -26 615 -26 407 -22 c 0,6,7
 213 -18 213 -18 108 96 c 128,-1,8
 3 210 3 210 16 403 c 1,9,-1
 204 403 l 1,10,11
 195 289 195 289 245.5 214.5 c 128,-1,12
 296 140 296 140 417 137 c 0,13,14
 548 133 548 133 629 218 c 128,-1,15
 710 303 710 303 729 424 c 2,0,-1
EndSplineSet
Substitution2: "'c2sc' Capitals to Small Capitals lookup 0 subtable" J.smcp
Position2: "'cpsp' Capital Spacing lookup 0 subtable" dx=36 dy=0 dh=72 dv=0
EndChar

StartChar: K
Encoding: 75 75 48
Width: 1246
GlyphClass: 2
Flags: W
AnchorPoint: "Anchor-5" 1418 1595 basechar 0
AnchorPoint: "Anchor-3" 1072 -407 basechar 0
AnchorPoint: "Anchor-2" 1419 1600 basechar 0
AnchorPoint: "Anchor-1" 552 90 basechar 0
AnchorPoint: "Anchor-0" 758 1595 basechar 0
LayerCount: 2
Fore
SplineSet
927 0 m 1,0,-1
 545 676 l 1,1,-1
 332 484 l 1,2,-1
 248 0 l 1,3,-1
 59 0 l 1,4,-1
 312 1456 l 1,5,-1
 501 1456 l 1,6,-1
 377 748 l 1,7,-1
 565 925 l 1,8,-1
 1119 1456 l 1,9,-1
 1361 1456 l 1,10,-1
 684 805 l 1,11,-1
 1136 0 l 1,12,-1
 927 0 l 1,0,-1
EndSplineSet
Substitution2: "'ss05' Style Set 5 lookup 24 subtable" K.alt2
Substitution2: "'ss04' Style Set 4 lookup 23 subtable" K.alt
Substitution2: "'salt' Stylistic Alternatives lookup 19 subtable" K.alt
Substitution2: "'c2sc' Capitals to Small Capitals lookup 0 subtable" K.smcp
Position2: "'cpsp' Capital Spacing lookup 0 subtable" dx=36 dy=0 dh=72 dv=0
EndChar

StartChar: L
Encoding: 76 76 49
Width: 1070
GlyphClass: 2
Flags: W
AnchorPoint: "Anchor-5" 1242 1596 basechar 0
AnchorPoint: "Anchor-3" 895 -407 basechar 0
AnchorPoint: "Anchor-2" 1242 1600 basechar 0
AnchorPoint: "Anchor-1" 499 10 basechar 0
AnchorPoint: "Anchor-0" 428 1596 basechar 0
LayerCount: 2
Fore
SplineSet
945 157 m 1,0,-1
 917 0 l 1,1,-1
 59 0 l 1,2,-1
 312 1456 l 1,3,-1
 501 1456 l 1,4,-1
 275 157 l 1,5,-1
 945 157 l 1,0,-1
EndSplineSet
Substitution2: "'c2sc' Capitals to Small Capitals lookup 0 subtable" L.smcp
Position2: "'cpsp' Capital Spacing lookup 0 subtable" dx=36 dy=0 dh=72 dv=0
EndChar

StartChar: M
Encoding: 77 77 50
Width: 1734
GlyphClass: 2
Flags: W
AnchorPoint: "Anchor-5" 1907 1601 basechar 0
AnchorPoint: "Anchor-3" 1560 -407 basechar 0
AnchorPoint: "Anchor-2" 1907 1600 basechar 0
AnchorPoint: "Anchor-1" 764 10 basechar 0
AnchorPoint: "Anchor-0" 1036 1601 basechar 0
LayerCount: 2
Fore
SplineSet
806 271 m 1,0,-1
 1473 1456 l 1,1,-1
 1719 1456 l 1,2,-1
 1466 0 l 1,3,-1
 1279 0 l 1,4,-1
 1379 577 l 1,5,-1
 1498 1160 l 1,6,-1
 838 0 l 1,7,-1
 695 0 l 1,8,-1
 435 1188 l 1,9,-1
 344 559 l 1,10,-1
 247 0 l 1,11,-1
 59 0 l 1,12,-1
 312 1456 l 1,13,-1
 549 1456 l 1,14,-1
 806 271 l 1,0,-1
EndSplineSet
Substitution2: "'unic' Unicase lookup 2 subtable" M.unic
Substitution2: "'c2sc' Capitals to Small Capitals lookup 0 subtable" M.smcp
Position2: "'cpsp' Capital Spacing lookup 0 subtable" dx=36 dy=0 dh=72 dv=0
EndChar

StartChar: N
Encoding: 78 78 51
Width: 1417
GlyphClass: 2
Flags: W
AnchorPoint: "Anchor-5" 1590 1601 basechar 0
AnchorPoint: "Anchor-3" 1243 -407 basechar 0
AnchorPoint: "Anchor-2" 1589 1600 basechar 0
AnchorPoint: "Anchor-1" 596 10 basechar 0
AnchorPoint: "Anchor-0" 877 1601 basechar 0
LayerCount: 2
Fore
SplineSet
1400 1456 m 1,0,-1
 1147 0 l 1,1,-1
 964 0 l 1,2,-1
 444 1131 l 1,3,-1
 248 0 l 1,4,-1
 59 0 l 1,5,-1
 312 1456 l 1,6,-1
 494 1456 l 1,7,-1
 1016 322 l 1,8,-1
 1213 1456 l 1,9,-1
 1400 1456 l 1,0,-1
EndSplineSet
Substitution2: "'unic' Unicase lookup 2 subtable" N.unic
Substitution2: "'c2sc' Capitals to Small Capitals lookup 0 subtable" N.smcp
Position2: "'cpsp' Capital Spacing lookup 0 subtable" dx=36 dy=0 dh=72 dv=0
EndChar

StartChar: O
Encoding: 79 79 52
Width: 1367
GlyphClass: 2
Flags: W
AnchorPoint: "Anchor-5" 1540 1603 basechar 0
AnchorPoint: "Anchor-3" 1192 -407 basechar 0
AnchorPoint: "Anchor-2" 1539 1600 basechar 0
AnchorPoint: "Anchor-1" 582 0 basechar 0
AnchorPoint: "Anchor-0" 859 1603 basechar 0
LayerCount: 2
Fore
SplineSet
1280 774 m 2,0,-1
 1268 683 l 2,1,2
 1242 504 1242 504 1159 341.5 c 128,-1,3
 1076 179 1076 179 934.5 77.5 c 128,-1,4
 793 -24 793 -24 592 -20 c 0,5,6
 400 -16 400 -16 292 90.5 c 128,-1,7
 184 197 184 197 147 357 c 128,-1,8
 110 517 110 517 131 682 c 2,9,-1
 144 774 l 2,10,11
 170 951 170 951 254 1113.5 c 128,-1,12
 338 1276 338 1276 480 1378 c 128,-1,13
 622 1480 622 1480 820 1476 c 0,14,15
 1014 1472 1014 1472 1122 1366.5 c 128,-1,16
 1230 1261 1230 1261 1266 1101 c 128,-1,17
 1302 941 1302 941 1280 774 c 2,0,-1
1081 682 m 2,18,-1
 1094 777 l 2,19,20
 1108 890 1108 890 1096.5 1012.5 c 128,-1,21
 1085 1135 1085 1135 1020.5 1221.5 c 128,-1,22
 956 1308 956 1308 811 1313 c 0,23,24
 662 1317 662 1317 562.5 1236 c 128,-1,25
 463 1155 463 1155 406.5 1029.5 c 128,-1,26
 350 904 350 904 331 776 c 2,27,-1
 318 681 l 2,28,29
 304 570 304 570 316.5 446.5 c 128,-1,30
 329 323 329 323 394 235 c 128,-1,31
 459 147 459 147 601 142 c 0,32,33
 753 137 753 137 852.5 218.5 c 128,-1,34
 952 300 952 300 1007 426 c 128,-1,35
 1062 552 1062 552 1081 682 c 2,18,-1
EndSplineSet
Substitution2: "'ss06' Style Set 6 lookup 25 subtable" O.ss06
Substitution2: "'c2sc' Capitals to Small Capitals lookup 0 subtable" O.smcp
Position2: "'cpsp' Capital Spacing lookup 0 subtable" dx=36 dy=0 dh=72 dv=0
EndChar

StartChar: P
Encoding: 80 80 53
Width: 1253
GlyphClass: 2
Flags: W
AnchorPoint: "Anchor-5" 1428 1612 basechar 0
AnchorPoint: "Anchor-3" 1079 -407 basechar 0
AnchorPoint: "Anchor-2" 1426 1600 basechar 0
AnchorPoint: "Anchor-1" 412 10 basechar 0
AnchorPoint: "Anchor-0" 762 1612 basechar 0
LayerCount: 2
Fore
SplineSet
692 570 m 2,0,-1
 347 571 l 1,1,-1
 248 0 l 1,2,-1
 59 0 l 1,3,-1
 312 1456 l 1,4,-1
 822 1455 l 1,5,6
 1017 1450 1017 1450 1143 1337.5 c 128,-1,7
 1269 1225 1269 1225 1251 1019 c 0,8,9
 1231 789 1231 789 1070 679 c 128,-1,10
 909 569 909 569 692 570 c 2,0,-1
473 1298 m 1,11,-1
 374 728 l 1,12,-1
 697 727 l 2,13,14
 839 727 839 727 942 798.5 c 128,-1,15
 1045 870 1045 870 1063 1018 c 0,16,17
 1079 1145 1079 1145 1011 1219 c 128,-1,18
 943 1293 943 1293 817 1297 c 2,19,-1
 473 1298 l 1,11,-1
EndSplineSet
Substitution2: "'c2sc' Capitals to Small Capitals lookup 0 subtable" P.smcp
Position2: "'cpsp' Capital Spacing lookup 0 subtable" dx=36 dy=0 dh=72 dv=0
EndChar

StartChar: Q
Encoding: 81 81 54
Width: 1367
GlyphClass: 2
Flags: W
AnchorPoint: "Anchor-5" 1539 1600 basechar 0
AnchorPoint: "Anchor-3" 1192 -407 basechar 0
AnchorPoint: "Anchor-2" 1539 1600 basechar 0
AnchorPoint: "Anchor-1" 571 -10 basechar 0
AnchorPoint: "Anchor-0" 851 1600 basechar 0
LayerCount: 2
Fore
SplineSet
1121 -134 m 1,0,-1
 983 -246 l 1,1,-1
 729 -3 l 1,2,3
 649 -20 649 -20 581 -19 c 0,4,5
 389 -16 389 -16 281.5 90.5 c 128,-1,6
 174 197 174 197 137.5 357.5 c 128,-1,7
 101 518 101 518 122 682 c 2,8,-1
 134 774 l 2,9,10
 160 951 160 951 244 1113.5 c 128,-1,11
 328 1276 328 1276 470 1378 c 128,-1,12
 612 1480 612 1480 810 1476 c 0,13,14
 1004 1472 1004 1472 1112 1366.5 c 128,-1,15
 1220 1261 1220 1261 1256 1101 c 128,-1,16
 1292 941 1292 941 1271 774 c 2,17,-1
 1258 682 l 2,18,19
 1231 499 1231 499 1149 337.5 c 128,-1,20
 1067 176 1067 176 905 76 c 1,21,-1
 1121 -134 l 1,0,-1
1071 682 m 2,22,-1
 1084 777 l 2,23,24
 1099 890 1099 890 1087.5 1013 c 128,-1,25
 1076 1136 1076 1136 1011 1222 c 128,-1,26
 946 1308 946 1308 802 1313 c 0,27,28
 653 1317 653 1317 553 1236 c 128,-1,29
 453 1155 453 1155 396.5 1029.5 c 128,-1,30
 340 904 340 904 321 776 c 2,31,-1
 308 681 l 2,32,33
 294 570 294 570 306.5 446.5 c 128,-1,34
 319 323 319 323 384 235 c 128,-1,35
 449 147 449 147 592 142 c 0,36,37
 744 137 744 137 843 218.5 c 128,-1,38
 942 300 942 300 997 426 c 128,-1,39
 1052 552 1052 552 1071 682 c 2,22,-1
EndSplineSet
Substitution2: "'ss06' Style Set 6 lookup 25 subtable" Q.ss06
Substitution2: "'c2sc' Capitals to Small Capitals lookup 0 subtable" Q.smcp
Position2: "'cpsp' Capital Spacing lookup 0 subtable" dx=36 dy=0 dh=72 dv=0
EndChar

StartChar: R
Encoding: 82 82 55
Width: 1224
GlyphClass: 2
Flags: W
AnchorPoint: "Anchor-5" 1397 1601 basechar 0
AnchorPoint: "Anchor-3" 1050 -407 basechar 0
AnchorPoint: "Anchor-2" 1396 1600 basechar 0
AnchorPoint: "Anchor-1" 490 10 basechar 0
AnchorPoint: "Anchor-0" 764 1601 basechar 0
LayerCount: 2
Fore
SplineSet
890 0 m 1,0,-1
 685 590 l 1,1,-1
 351 590 l 1,2,-1
 248 0 l 1,3,-1
 59 0 l 1,4,-1
 312 1456 l 1,5,-1
 768 1455 l 2,6,7
 967 1451 967 1451 1092.5 1345 c 128,-1,8
 1218 1239 1218 1239 1199 1027 c 0,9,10
 1186 877 1186 877 1093 777 c 128,-1,11
 1000 677 1000 677 865 628 c 1,12,-1
 1091 13 l 1,13,-1
 1090 0 l 1,14,-1
 890 0 l 1,0,-1
473 1298 m 1,15,-1
 377 747 l 1,16,-1
 653 746 l 2,17,18
 784 746 784 746 889 817.5 c 128,-1,19
 994 889 994 889 1012 1028 c 0,20,21
 1028 1158 1028 1158 959 1225.5 c 128,-1,22
 890 1293 890 1293 764 1297 c 2,23,-1
 473 1298 l 1,15,-1
EndSplineSet
Substitution2: "'ss03' Style Set 3 lookup 22 subtable" R.alt
Substitution2: "'c2sc' Capitals to Small Capitals lookup 0 subtable" R.smcp
Position2: "'cpsp' Capital Spacing lookup 0 subtable" dx=36 dy=0 dh=72 dv=0
EndChar

StartChar: S
Encoding: 83 83 56
Width: 1180
GlyphClass: 2
Flags: W
AnchorPoint: "Anchor-5" 1352 1603 basechar 0
AnchorPoint: "Anchor-3" 1005 -407 basechar 0
AnchorPoint: "Anchor-2" 1352 1600 basechar 0
AnchorPoint: "Anchor-1" 505 -1 basechar 0
AnchorPoint: "Anchor-0" 776 1603 basechar 0
LayerCount: 2
Fore
SplineSet
876 375 m 0,0,1
 888 463 888 463 847 514.5 c 128,-1,2
 806 566 806 566 738 596.5 c 128,-1,3
 670 627 670 627 601 650 c 0,4,5
 502 684 502 684 408 736.5 c 128,-1,6
 314 789 314 789 256 870 c 128,-1,7
 198 951 198 951 207 1072 c 0,8,9
 218 1207 218 1207 298.5 1297.5 c 128,-1,10
 379 1388 379 1388 497.5 1433.5 c 128,-1,11
 616 1479 616 1479 740 1476 c 0,12,13
 933 1472 933 1472 1061.5 1353.5 c 128,-1,14
 1190 1235 1190 1235 1180 1035 c 1,15,-1
 992 1036 l 1,16,17
 1003 1167 1003 1167 933.5 1241 c 128,-1,18
 864 1315 864 1315 732 1318 c 0,19,20
 613 1320 613 1320 512.5 1261 c 128,-1,21
 412 1202 412 1202 396 1074 c 0,22,23
 386 995 386 995 429.5 946 c 128,-1,24
 473 897 473 897 540 867.5 c 128,-1,25
 607 838 607 838 668 818 c 0,26,27
 775 782 775 782 869.5 728 c 128,-1,28
 964 674 964 674 1019.5 589.5 c 128,-1,29
 1075 505 1075 505 1065 377 c 0,30,31
 1054 238 1054 238 971 149.5 c 128,-1,32
 888 61 888 61 766.5 19 c 128,-1,33
 645 -23 645 -23 520 -20 c 0,34,35
 325 -17 325 -17 180 99 c 128,-1,36
 35 215 35 215 46 423 c 1,37,-1
 233 422 l 1,38,39
 223 282 223 282 309 210.5 c 128,-1,40
 395 139 395 139 528 137 c 0,41,42
 646 134 646 134 752 189.5 c 128,-1,43
 858 245 858 245 876 375 c 0,0,1
EndSplineSet
Substitution2: "'c2sc' Capitals to Small Capitals lookup 0 subtable" S.smcp
Position2: "'cpsp' Capital Spacing lookup 0 subtable" dx=36 dy=0 dh=72 dv=0
EndChar

StartChar: T
Encoding: 84 84 57
Width: 1185
GlyphClass: 2
Flags: W
AnchorPoint: "Anchor-5" 1358 1600 basechar 0
AnchorPoint: "Anchor-3" 1011 -407 basechar 0
AnchorPoint: "Anchor-2" 1358 1600 basechar 0
AnchorPoint: "Anchor-1" 491 0 basechar 0
AnchorPoint: "Anchor-0" 766 1600 basechar 0
LayerCount: 2
Fore
SplineSet
168 1298 m 1,0,-1
 196 1456 l 1,1,-1
 1288 1456 l 1,2,-1
 1260 1298 l 1,3,-1
 807 1298 l 1,4,-1
 582 0 l 1,5,-1
 396 0 l 1,6,-1
 621 1298 l 1,7,-1
 168 1298 l 1,0,-1
EndSplineSet
Substitution2: "'c2sc' Capitals to Small Capitals lookup 0 subtable" T.smcp
Position2: "'cpsp' Capital Spacing lookup 0 subtable" dx=36 dy=0 dh=72 dv=0
EndChar

StartChar: U
Encoding: 85 85 58
Width: 1288
GlyphClass: 2
Flags: W
AnchorPoint: "Anchor-5" 1461 1601 basechar 0
AnchorPoint: "Anchor-3" 1114 -407 basechar 0
AnchorPoint: "Anchor-2" 1460 1600 basechar 0
AnchorPoint: "Anchor-1" 542 0 basechar 0
AnchorPoint: "Anchor-0" 819 1601 basechar 0
LayerCount: 2
Fore
SplineSet
1119 1456 m 1,0,-1
 1307 1456 l 1,1,-1
 1139 473 l 1,2,3
 1106 246 1106 246 944.5 110.5 c 128,-1,4
 783 -25 783 -25 553 -21 c 0,5,6
 336 -17 336 -17 213 117.5 c 128,-1,7
 90 252 90 252 115 471 c 1,8,-1
 283 1456 l 1,9,-1
 469 1456 l 1,10,-1
 302 470 l 1,11,12
 285 328 285 328 349 234.5 c 128,-1,13
 413 141 413 141 563 137 c 0,14,15
 722 132 722 132 824.5 224 c 128,-1,16
 927 316 927 316 951 471 c 2,17,-1
 1119 1456 l 1,0,-1
EndSplineSet
Substitution2: "'unic' Unicase lookup 2 subtable" U.unic
Substitution2: "'c2sc' Capitals to Small Capitals lookup 0 subtable" U.smcp
Position2: "'cpsp' Capital Spacing lookup 0 subtable" dx=36 dy=0 dh=72 dv=0
EndChar

StartChar: V
Encoding: 86 86 59
Width: 1265
GlyphClass: 2
Flags: W
AnchorPoint: "Anchor-5" 1422 1612 basechar 0
AnchorPoint: "Anchor-3" 1107 -407 basechar 0
AnchorPoint: "Anchor-2" 1420 1600 basechar 0
AnchorPoint: "Anchor-1" 543 10 basechar 0
AnchorPoint: "Anchor-0" 793 1612 basechar 0
LayerCount: 2
Fore
SplineSet
1377 1456 m 1,0,-1
 626 0 l 1,1,-1
 459 0 l 1,2,-1
 165 1456 l 1,3,-1
 362 1456 l 1,4,-1
 574 258 l 1,5,-1
 1166 1456 l 1,6,-1
 1377 1456 l 1,0,-1
EndSplineSet
Substitution2: "'c2sc' Capitals to Small Capitals lookup 0 subtable" V.smcp
Position2: "'cpsp' Capital Spacing lookup 0 subtable" dx=36 dy=0 dh=72 dv=0
EndChar

StartChar: W
Encoding: 87 87 60
Width: 1762
GlyphClass: 2
Flags: W
AnchorPoint: "Anchor-5" 1918 1601 basechar 0
AnchorPoint: "Anchor-3" 1605 -407 basechar 0
AnchorPoint: "Anchor-2" 1918 1600 basechar 0
AnchorPoint: "Anchor-1" 802 10 basechar 0
AnchorPoint: "Anchor-0" 1052 1601 basechar 0
LayerCount: 2
Fore
SplineSet
1856 1456 m 1,0,-1
 1287 0 l 1,1,-1
 1116 0 l 1,2,-1
 990 1068 l 1,3,-1
 986 1169 l 1,4,-1
 944 1053 l 1,5,-1
 480 0 l 1,6,-1
 309 0 l 1,7,-1
 194 1456 l 1,8,-1
 377 1456 l 1,9,-1
 445 451 l 1,10,-1
 442 273 l 1,11,-1
 510 448 l 1,12,-1
 945 1456 l 1,13,-1
 1103 1456 l 1,14,-1
 1218 432 l 1,15,-1
 1228 264 l 1,16,-1
 1292 470 l 1,17,-1
 1663 1456 l 1,18,-1
 1856 1456 l 1,0,-1
EndSplineSet
Substitution2: "'c2sc' Capitals to Small Capitals lookup 0 subtable" W.smcp
Position2: "'cpsp' Capital Spacing lookup 0 subtable" dx=36 dy=0 dh=72 dv=0
EndChar

StartChar: X
Encoding: 88 88 61
Width: 1245
GlyphClass: 2
Flags: W
AnchorPoint: "Anchor-5" 1403 1612 basechar 0
AnchorPoint: "Anchor-3" 1088 -407 basechar 0
AnchorPoint: "Anchor-2" 1401 1600 basechar 0
AnchorPoint: "Anchor-1" 533 10 basechar 0
AnchorPoint: "Anchor-0" 791 1612 basechar 0
LayerCount: 2
Fore
SplineSet
414 1456 m 1,0,-1
 666 899 l 1,1,-1
 1092 1456 l 1,2,-1
 1323 1456 l 1,3,-1
 756 726 l 1,4,-1
 1095 0 l 1,5,-1
 885 0 l 1,6,-1
 626 568 l 1,7,-1
 189 0 l 1,8,-1
 -44 0 l 1,9,-1
 536 744 l 1,10,-1
 206 1456 l 1,11,-1
 414 1456 l 1,0,-1
EndSplineSet
Substitution2: "'c2sc' Capitals to Small Capitals lookup 0 subtable" X.smcp
Position2: "'cpsp' Capital Spacing lookup 0 subtable" dx=36 dy=0 dh=72 dv=0
EndChar

StartChar: Y
Encoding: 89 89 62
Width: 1193
GlyphClass: 2
Flags: W
AnchorPoint: "Anchor-5" 1365 1600 basechar 0
AnchorPoint: "Anchor-3" 1019 -407 basechar 0
AnchorPoint: "Anchor-2" 1365 1600 basechar 0
AnchorPoint: "Anchor-1" 493 1 basechar 0
AnchorPoint: "Anchor-0" 772 1600 basechar 0
LayerCount: 2
Fore
SplineSet
373 1456 m 1,0,-1
 612 726 l 1,1,-1
 1106 1456 l 1,2,-1
 1331 1456 l 1,3,-1
 678 534 l 1,4,-1
 585 0 l 1,5,-1
 397 0 l 1,6,-1
 494 555 l 1,7,-1
 168 1456 l 1,8,-1
 373 1456 l 1,0,-1
EndSplineSet
Substitution2: "'c2sc' Capitals to Small Capitals lookup 0 subtable" Y.smcp
Position2: "'cpsp' Capital Spacing lookup 0 subtable" dx=36 dy=0 dh=72 dv=0
EndChar

StartChar: Z
Encoding: 90 90 63
Width: 1190
GlyphClass: 2
Flags: W
AnchorPoint: "Anchor-5" 1363 1601 basechar 0
AnchorPoint: "Anchor-3" 1016 -407 basechar 0
AnchorPoint: "Anchor-2" 1362 1600 basechar 0
AnchorPoint: "Anchor-1" 492 10 basechar 0
AnchorPoint: "Anchor-0" 770 1601 basechar 0
LayerCount: 2
Fore
SplineSet
216 1298 m 1,0,-1
 244 1456 l 1,1,-1
 1229 1456 l 1,2,-1
 1203 1307 l 1,3,-1
 234 157 l 1,4,-1
 1035 157 l 1,5,-1
 1007 0 l 1,6,-1
 -21 0 l 1,7,-1
 6 154 l 1,8,-1
 972 1298 l 1,9,-1
 216 1298 l 1,0,-1
EndSplineSet
Substitution2: "'c2sc' Capitals to Small Capitals lookup 0 subtable" Z.smcp
Position2: "'cpsp' Capital Spacing lookup 0 subtable" dx=36 dy=0 dh=72 dv=0
EndChar

StartChar: bracketleft
Encoding: 91 91 64
Width: 527
Flags: W
LayerCount: 2
Fore
SplineSet
674 1664 m 1,0,-1
 649 1512 l 1,1,-1
 464 1512 l 1,2,-1
 203 -160 l 1,3,-1
 389 -160 l 1,4,-1
 365 -312 l 1,5,-1
 -1 -312 l 1,6,-1
 307 1664 l 1,7,-1
 674 1664 l 1,0,-1
EndSplineSet
EndChar

StartChar: backslash
Encoding: 92 92 65
Width: 816
Flags: W
LayerCount: 2
Fore
SplineSet
507 -125 m 1,0,-1
 191 1456 l 1,1,-1
 355 1456 l 1,2,-1
 670 -125 l 1,3,-1
 507 -125 l 1,0,-1
EndSplineSet
EndChar

StartChar: bracketright
Encoding: 93 93 66
Width: 527
Flags: W
LayerCount: 2
Fore
SplineSet
150 1512 m 1,0,-1
 175 1664 l 1,1,-1
 543 1664 l 1,2,-1
 234 -312 l 1,3,-1
 -134 -312 l 1,4,-1
 -110 -160 l 1,5,-1
 76 -160 l 1,6,-1
 337 1512 l 1,7,-1
 150 1512 l 1,0,-1
EndSplineSet
EndChar

StartChar: asciicircum
Encoding: 94 94 67
Width: 830
Flags: W
LayerCount: 2
Fore
SplineSet
79 729 m 1,0,-1
 496 1456 l 1,1,-1
 621 1456 l 1,2,-1
 784 729 l 1,3,-1
 625 729 l 1,4,-1
 525 1209 l 1,5,-1
 256 729 l 1,6,-1
 79 729 l 1,0,-1
EndSplineSet
EndChar

StartChar: underscore
Encoding: 95 95 68
Width: 896
Flags: W
LayerCount: 2
Fore
SplineSet
790 0 m 1,0,-1
 763 -152 l 1,1,-1
 -128 -152 l 1,2,-1
 -101 0 l 1,3,-1
 790 0 l 1,0,-1
EndSplineSet
EndChar

StartChar: grave
Encoding: 96 96 69
Width: 614
Flags: W
LayerCount: 2
Fore
SplineSet
413 1536 m 1,0,-1
 554 1242 l 1,1,-1
 412 1242 l 1,2,-1
 207 1536 l 1,3,-1
 413 1536 l 1,0,-1
EndSplineSet
EndChar

StartChar: a
Encoding: 97 97 70
Width: 1081
GlyphClass: 2
Flags: W
AnchorPoint: "Anchor-5" 1199 1290 basechar 0
AnchorPoint: "Anchor-4" 861 654 basechar 0
AnchorPoint: "Anchor-3" 906 -407 basechar 0
AnchorPoint: "Anchor-2" 1253 1600 basechar 0
AnchorPoint: "Anchor-1" 383 0 basechar 0
AnchorPoint: "Anchor-0" 683 1290 basechar 0
LayerCount: 2
Fore
SplineSet
689 0 m 1,0,1
 683 29 683 29 682.5 57 c 128,-1,2
 682 85 682 85 685 114 c 1,3,4
 619 53 619 53 539.5 15.5 c 128,-1,5
 460 -22 460 -22 368 -20 c 0,6,7
 234 -18 234 -18 140 67 c 128,-1,8
 46 152 46 152 54 293 c 0,9,10
 62 430 62 430 142 509.5 c 128,-1,11
 222 589 222 589 339.5 623 c 128,-1,12
 457 657 457 657 575 657 c 2,13,-1
 763 656 l 1,14,-1
 776 743 l 1,15,16
 786 837 786 837 739.5 894.5 c 128,-1,17
 693 952 693 952 596 954 c 0,18,19
 512 955 512 955 437 912 c 128,-1,20
 362 869 362 869 343 783 c 1,21,-1
 162 782 l 1,22,23
 173 890 173 890 244.5 962 c 128,-1,24
 316 1034 316 1034 416.5 1069 c 128,-1,25
 517 1104 517 1104 614 1103 c 0,26,27
 777 1100 777 1100 874.5 1003.5 c 128,-1,28
 972 907 972 907 955 740 c 1,29,-1
 872 236 l 2,30,31
 863 181 863 181 861.5 125.5 c 128,-1,32
 860 70 860 70 875 17 c 1,33,-1
 873 0 l 1,34,-1
 689 0 l 1,0,1
405 141 m 0,35,36
 496 139 496 139 573.5 184.5 c 128,-1,37
 651 230 651 230 702 303 c 1,38,-1
 742 526 l 1,39,-1
 605 527 l 2,40,41
 532 527 532 527 451.5 511.5 c 128,-1,42
 371 496 371 496 311 451 c 128,-1,43
 251 406 251 406 240 318 c 0,44,45
 230 237 230 237 277.5 189.5 c 128,-1,46
 325 142 325 142 405 141 c 0,35,36
EndSplineSet
Substitution2: "'unic' Unicase lookup 2 subtable" A.unic
Substitution2: "'smcp' Lowercase to Small Capitals lookup 1 subtable" A.smcp
EndChar

StartChar: b
Encoding: 98 98 71
Width: 1116
GlyphClass: 2
Flags: W
AnchorPoint: "Anchor-5" 1290 1611 basechar 0
AnchorPoint: "Anchor-3" 941 -407 basechar 0
AnchorPoint: "Anchor-2" 1288 1600 basechar 0
AnchorPoint: "Anchor-1" 474 -10 basechar 0
AnchorPoint: "Anchor-0" 789 1611 basechar 0
LayerCount: 2
Fore
SplineSet
1014 530 m 2,0,1
 998 399 998 399 940.5 270.5 c 128,-1,2
 883 142 883 142 780.5 59 c 128,-1,3
 678 -24 678 -24 526 -21 c 0,4,5
 438 -18 438 -18 362 17 c 128,-1,6
 286 52 286 52 236 126 c 1,7,-1
 199 0 l 1,8,-1
 31 0 l 1,9,-1
 298 1536 l 1,10,-1
 480 1536 l 1,11,-1
 372 964 l 1,12,13
 501 1106 501 1106 686 1101 c 0,14,15
 834 1098 834 1098 910 1011.5 c 128,-1,16
 986 925 986 925 1008 799 c 128,-1,17
 1030 673 1030 673 1017 552 c 2,18,-1
 1014 530 l 2,0,1
633 947 m 0,19,20
 539 950 539 950 468.5 901.5 c 128,-1,21
 398 853 398 853 348 779 c 1,22,-1
 266 305 l 1,23,24
 326 142 326 142 491 136 c 0,25,26
 600 133 600 133 671 193 c 128,-1,27
 742 253 742 253 780.5 345.5 c 128,-1,28
 819 438 819 438 832 531 c 1,29,-1
 834 552 l 2,30,31
 844 633 844 633 837 723.5 c 128,-1,32
 830 814 830 814 784 879 c 128,-1,33
 738 944 738 944 633 947 c 0,19,20
EndSplineSet
Substitution2: "'ss06' Style Set 6 lookup 25 subtable" b.ss06
Substitution2: "'unic' Unicase lookup 2 subtable" B
Substitution2: "'smcp' Lowercase to Small Capitals lookup 1 subtable" B.smcp
EndChar

StartChar: c
Encoding: 99 99 72
Width: 1040
GlyphClass: 2
Flags: W
AnchorPoint: "Anchor-5" 1147 1290 basechar 0
AnchorPoint: "Anchor-3" 882 -407 basechar 0
AnchorPoint: "Anchor-2" 1195 1600 basechar 0
AnchorPoint: "Anchor-1" 421 -10 basechar 0
AnchorPoint: "Anchor-0" 624 1290 basechar 0
LayerCount: 2
Fore
SplineSet
483 131 m 0,0,1
 582 129 582 129 658.5 187.5 c 128,-1,2
 735 246 735 246 760 341 c 1,3,-1
 932 342 l 1,4,5
 909 179 909 179 772 78 c 128,-1,6
 635 -23 635 -23 475 -20 c 0,7,8
 323 -18 323 -18 231.5 60 c 128,-1,9
 140 138 140 138 103.5 260 c 128,-1,10
 67 382 67 382 80 517 c 2,11,-1
 84 560 l 2,12,13
 100 705 100 705 167.5 830 c 128,-1,14
 235 955 235 955 349 1030.5 c 128,-1,15
 463 1106 463 1106 620 1102 c 0,16,17
 791 1098 791 1098 892.5 987.5 c 128,-1,18
 994 877 994 877 994 709 c 1,19,-1
 824 710 l 1,20,21
 822 807 822 807 769 877 c 128,-1,22
 716 947 716 947 612 951 c 0,23,24
 502 954 502 954 428.5 896 c 128,-1,25
 355 838 355 838 315 747 c 128,-1,26
 275 656 275 656 263 560 c 2,27,-1
 258 518 l 2,28,29
 250 433 250 433 262.5 344.5 c 128,-1,30
 275 256 275 256 325.5 195 c 128,-1,31
 376 134 376 134 483 131 c 0,0,1
EndSplineSet
Substitution2: "'ss06' Style Set 6 lookup 25 subtable" c.ss06
Substitution2: "'unic' Unicase lookup 2 subtable" C
Substitution2: "'smcp' Lowercase to Small Capitals lookup 1 subtable" C.smcp
EndChar

StartChar: d
Encoding: 100 100 73
Width: 1120
GlyphClass: 2
Flags: W
AnchorPoint: "Anchor-5" 1295 1612 basechar 0
AnchorPoint: "Anchor-3" 946 -407 basechar 0
AnchorPoint: "Anchor-2" 1293 1600 basechar 0
AnchorPoint: "Anchor-1" 494 0 basechar 0
AnchorPoint: "Anchor-0" 707 1612 basechar 0
LayerCount: 2
Fore
SplineSet
710 0 m 1,0,-1
 729 116 l 1,1,2
 598 -24 598 -24 413 -20 c 0,3,4
 271 -16 271 -16 194 71.5 c 128,-1,5
 117 159 117 159 92 284 c 128,-1,6
 67 409 67 409 79 526 c 2,7,-1
 82 548 l 2,8,9
 98 681 98 681 157 810 c 128,-1,10
 216 939 216 939 320.5 1022.5 c 128,-1,11
 425 1106 425 1106 577 1102 c 0,12,13
 660 1101 660 1101 732 1070 c 128,-1,14
 804 1039 804 1039 855 973 c 1,15,-1
 959 1536 l 1,16,-1
 1141 1536 l 1,17,-1
 875 0 l 1,18,-1
 710 0 l 1,0,-1
262 527 m 2,19,20
 253 448 253 448 262 358 c 128,-1,21
 271 268 271 268 317.5 204 c 128,-1,22
 364 140 364 140 467 137 c 0,23,24
 557 134 557 134 625 178.5 c 128,-1,25
 693 223 693 223 743 293 c 1,26,-1
 830 794 l 1,27,28
 770 942 770 942 613 947 c 0,29,30
 503 951 503 951 430.5 890 c 128,-1,31
 358 829 358 829 318 735.5 c 128,-1,32
 278 642 278 642 265 548 c 2,33,-1
 262 527 l 2,19,20
EndSplineSet
Substitution2: "'ss06' Style Set 6 lookup 25 subtable" d.ss06
Substitution2: "'unic' Unicase lookup 2 subtable" D
Substitution2: "'smcp' Lowercase to Small Capitals lookup 1 subtable" D.smcp
EndChar

StartChar: e
Encoding: 101 101 74
Width: 1053
GlyphClass: 2
Flags: W
AnchorPoint: "Anchor-5" 1160 1290 basechar 0
AnchorPoint: "Anchor-4" 893 654 basechar 0
AnchorPoint: "Anchor-3" 896 -407 basechar 0
AnchorPoint: "Anchor-2" 1209 1600 basechar 0
AnchorPoint: "Anchor-1" 457 0 basechar 0
AnchorPoint: "Anchor-0" 655 1290 basechar 0
LayerCount: 2
Fore
SplineSet
903 188 m 1,0,1
 832 84 832 84 723 31 c 128,-1,2
 614 -22 614 -22 489 -20 c 0,3,4
 268 -16 268 -16 164 140 c 128,-1,5
 60 296 60 296 76 500 c 1,6,-1
 81 543 l 2,7,8
 95 682 95 682 162.5 811.5 c 128,-1,9
 230 941 230 941 344 1023.5 c 128,-1,10
 458 1106 458 1106 612 1102 c 0,11,12
 761 1099 761 1099 845.5 1021 c 128,-1,13
 930 943 930 943 959.5 823 c 128,-1,14
 989 703 989 703 974 572 c 2,15,-1
 963 489 l 1,16,-1
 257 489 l 1,17,18
 243 361 243 361 300 248 c 128,-1,19
 357 135 357 135 504 131 c 0,20,21
 595 129 595 129 667.5 170.5 c 128,-1,22
 740 212 740 212 800 276 c 1,23,-1
 903 188 l 1,0,1
603 951 m 0,24,25
 466 956 466 956 389 855 c 128,-1,26
 312 754 312 754 276 640 c 1,27,-1
 801 639 l 1,28,-1
 804 655 l 1,29,30
 819 763 819 763 771 855 c 128,-1,31
 723 947 723 947 603 951 c 0,24,25
EndSplineSet
Substitution2: "'ss07' Style Set 7 lookup 26 subtable" e.ss07
Substitution2: "'unic' Unicase lookup 2 subtable" E.unic
Substitution2: "'smcp' Lowercase to Small Capitals lookup 1 subtable" E.smcp
EndChar

StartChar: f
Encoding: 102 102 75
Width: 691
GlyphClass: 2
Flags: W
HStem: 0 21G<119 303.468> 940 142<141 283 488 686> 1391 163<730.439 828.075> 1403 156<591.242 824.407>
DStem2: 119 0 300 0 0.168941 0.985626<30.5783 954.195 1128.79 1400.63>
AnchorPoint: "Anchor-5" 890 1754 basechar 0
AnchorPoint: "Anchor-3" 516 -407 basechar 0
AnchorPoint: "Anchor-2" 863 1600 basechar 0
AnchorPoint: "Anchor-1" 218 10 basechar 0
AnchorPoint: "Anchor-0" 686 1754 basechar 0
LayerCount: 2
Fore
SplineSet
686 940 m 1,0,-1
 463 940 l 1,1,-1
 300 0 l 1,2,-1
 119 0 l 1,3,-1
 283 940 l 1,4,-1
 117 940 l 1,5,-1
 141 1082 l 1,6,-1
 307 1082 l 1,7,-1
 323 1196 l 2,8,9
 344 1360 344 1360 445.5 1460.5 c 128,-1,10
 547 1561 547 1561 718 1559 c 0,11,12
 751 1559 751 1559 783.5 1554 c 128,-1,13
 816 1549 816 1549 848 1543 c 1,14,-1
 826 1391 l 1,15,16
 775 1402 775 1402 729 1403 c 0,17,18
 633 1403 633 1403 576.5 1345 c 128,-1,19
 520 1287 520 1287 505 1196 c 2,20,-1
 488 1082 l 1,21,-1
 711 1082 l 1,22,-1
 686 940 l 1,0,-1
EndSplineSet
Substitution2: "'unic' Unicase lookup 2 subtable" F
Substitution2: "'smcp' Lowercase to Small Capitals lookup 1 subtable" F.smcp
EndChar

StartChar: g
Encoding: 103 103 76
Width: 1116
GlyphClass: 2
Flags: W
AnchorPoint: "Anchor-5" 1234 1290 basechar 0
AnchorPoint: "Anchor-3" 941 -407 basechar 0
AnchorPoint: "Anchor-2" 1288 1600 basechar 0
AnchorPoint: "Anchor-1" 356 -447 basechar 0
AnchorPoint: "Anchor-0" 658 1290 basechar 0
LayerCount: 2
Fore
SplineSet
883 23 m 1,0,1
 854 -179 854 -179 717.5 -306 c 128,-1,2
 581 -433 581 -433 372 -427 c 0,3,4
 263 -424 263 -424 162.5 -375 c 128,-1,5
 62 -326 62 -326 2 -235 c 1,6,-1
 106 -127 l 1,7,8
 153 -194 153 -194 217.5 -233.5 c 128,-1,9
 282 -273 282 -273 365 -276 c 0,10,11
 503 -280 503 -280 590 -199 c 128,-1,12
 677 -118 677 -118 703 12 c 2,13,-1
 723 109 l 1,14,15
 592 -24 592 -24 414 -19 c 0,16,17
 270 -16 270 -16 194 71.5 c 128,-1,18
 118 159 118 159 93.5 284 c 128,-1,19
 69 409 69 409 82 526 c 2,20,-1
 84 548 l 1,21,22
 101 682 101 682 159 811 c 128,-1,23
 217 940 217 940 321 1023 c 128,-1,24
 425 1106 425 1106 578 1102 c 0,25,26
 664 1100 664 1100 738.5 1066.5 c 128,-1,27
 813 1033 813 1033 863 961 c 1,28,-1
 898 1082 l 1,29,-1
 1063 1082 l 1,30,-1
 883 23 l 1,0,1
263 527 m 2,31,32
 254 448 254 448 262.5 358.5 c 128,-1,33
 271 269 271 269 317.5 204.5 c 128,-1,34
 364 140 364 140 467 137 c 0,35,36
 559 134 559 134 627 179.5 c 128,-1,37
 695 225 695 225 746 296 c 1,38,-1
 832 791 l 1,39,40
 773 942 773 942 613 947 c 0,41,42
 503 951 503 951 430.5 890 c 128,-1,43
 358 829 358 829 318 735.5 c 128,-1,44
 278 642 278 642 265 548 c 1,45,-1
 263 527 l 2,31,32
EndSplineSet
Substitution2: "'ss07' Style Set 7 lookup 26 subtable" g.ss07
Substitution2: "'ss06' Style Set 6 lookup 25 subtable" g.ss06
Substitution2: "'ss01' Style Set 1 lookup 20 subtable" g.alt
Substitution2: "'salt' Stylistic Alternatives lookup 19 subtable" g.alt
Substitution2: "'unic' Unicase lookup 2 subtable" G
Substitution2: "'smcp' Lowercase to Small Capitals lookup 1 subtable" G.smcp
EndChar

StartChar: h
Encoding: 104 104 77
Width: 1094
GlyphClass: 2
Flags: W
AnchorPoint: "Anchor-5" 1268 1611 basechar 0
AnchorPoint: "Anchor-3" 920 -407 basechar 0
AnchorPoint: "Anchor-2" 1266 1600 basechar 0
AnchorPoint: "Anchor-1" 468 10 basechar 0
AnchorPoint: "Anchor-0" 660 1611 basechar 0
LayerCount: 2
Fore
SplineSet
633 947 m 0,0,1
 540 949 540 949 469 897.5 c 128,-1,2
 398 846 398 846 347 774 c 1,3,-1
 213 0 l 1,4,-1
 32 0 l 1,5,-1
 299 1536 l 1,6,-1
 480 1536 l 1,7,-1
 370 952 l 1,8,9
 435 1022 435 1022 517 1062.5 c 128,-1,10
 599 1103 599 1103 696 1101 c 0,11,12
 870 1098 870 1098 931.5 982 c 128,-1,13
 993 866 993 866 977 709 c 1,14,-1
 859 0 l 1,15,-1
 677 0 l 1,16,-1
 797 712 l 1,17,18
 808 809 808 809 774.5 876.5 c 128,-1,19
 741 944 741 944 633 947 c 0,0,1
EndSplineSet
Substitution2: "'unic' Unicase lookup 2 subtable" H
Substitution2: "'smcp' Lowercase to Small Capitals lookup 1 subtable" H.smcp
EndChar

StartChar: i
Encoding: 105 105 78
Width: 483
GlyphClass: 2
Flags: W
HStem: 0 21G<46 230.475> 1062 20G<230.525 415> 1264 213<300.941 451.543>
VStem: 270 213<1296.46 1443.51>
DStem2: 46 0 227 0 0.171187 0.985238<30.9849 1098.21>
AnchorPoint: "Anchor-5" 655 1600 basechar 0
AnchorPoint: "Anchor-4" 278 654 basechar 0
AnchorPoint: "Anchor-3" 309 -407 basechar 0
AnchorPoint: "Anchor-2" 655 1600 basechar 0
AnchorPoint: "Anchor-1" 139 10 basechar 0
AnchorPoint: "Anchor-0" 416 1600 basechar 0
LayerCount: 2
Fore
SplineSet
270 1366 m 0,0,1
 270 1413 270 1413 299.5 1444.5 c 128,-1,2
 329 1476 329 1476 376 1477 c 256,3,4
 423 1478 423 1478 453.5 1448 c 128,-1,5
 484 1418 484 1418 483 1372 c 0,6,7
 483 1326 483 1326 452.5 1295.5 c 128,-1,8
 422 1265 422 1265 376 1264 c 256,9,10
 330 1263 330 1263 300 1291.5 c 128,-1,11
 270 1320 270 1320 270 1366 c 0,0,1
415 1082 m 1,12,-1
 227 0 l 1,13,-1
 46 0 l 1,14,-1
 234 1082 l 1,15,-1
 415 1082 l 1,12,-1
EndSplineSet
Substitution2: "Single Substitution lookup 5 subtable" uni0069.ccmp
Substitution2: "'unic' Unicase lookup 2 subtable" I
Substitution2: "'smcp' Lowercase to Small Capitals lookup 1 subtable" I.smcp
EndChar

StartChar: j
Encoding: 106 106 79
Width: 475
GlyphClass: 2
Flags: W
AnchorPoint: "Anchor-5" 648 1600 basechar 0
AnchorPoint: "Anchor-3" 301 -407 basechar 0
AnchorPoint: "Anchor-2" 648 1600 basechar 0
AnchorPoint: "Anchor-1" 1 -459 basechar 0
AnchorPoint: "Anchor-0" 389 1600 basechar 0
LayerCount: 2
Fore
SplineSet
257 1366 m 0,0,1
 257 1413 257 1413 286.5 1444.5 c 128,-1,2
 316 1476 316 1476 363 1477 c 256,3,4
 410 1478 410 1478 440 1448 c 128,-1,5
 470 1418 470 1418 470 1372 c 0,6,7
 469 1325 469 1325 439 1295 c 128,-1,8
 409 1265 409 1265 363 1264 c 256,9,10
 317 1263 317 1263 286.5 1291.5 c 128,-1,11
 256 1320 256 1320 257 1366 c 0,0,1
225 1082 m 1,12,-1
 407 1082 l 1,13,-1
 202 -129 l 1,14,15
 185 -265 185 -265 108 -354 c 128,-1,16
 31 -443 31 -443 -116 -440 c 0,17,18
 -147 -439 -147 -439 -177 -434 c 128,-1,19
 -207 -429 -207 -429 -237 -421 c 1,20,-1
 -220 -272 l 1,21,22
 -199 -277 -199 -277 -178 -280.5 c 128,-1,23
 -157 -284 -157 -284 -136 -284 c 0,24,25
 -63 -284 -63 -284 -28 -240 c 128,-1,26
 7 -196 7 -196 18 -129 c 2,27,-1
 225 1082 l 1,12,-1
EndSplineSet
Substitution2: "Single Substitution lookup 5 subtable" uni006A.ccmp
Substitution2: "'unic' Unicase lookup 2 subtable" J
Substitution2: "'smcp' Lowercase to Small Capitals lookup 1 subtable" J.smcp
EndChar

StartChar: k
Encoding: 107 107 80
Width: 1007
GlyphClass: 2
Flags: W
HStem: 0 21G<32 217.485 685.96 896> 1062 20G<793.187 1050> 1516 20G<295.523 481>
DStem2: 32 0 214 0 0.17126 0.985226<31.1693 409.79 659.349 1559.03> 553 622 421 500 0.482891 -0.87568<43.0914 614.21> 430 729 553 622 0.736559 0.676373<18.2248 522.335>
AnchorPoint: "Anchor-5" 1055 1611 basechar 0
AnchorPoint: "Anchor-3" 832 -407 basechar 0
AnchorPoint: "Anchor-2" 1179 1600 basechar 0
AnchorPoint: "Anchor-1" 421 71 basechar 0
AnchorPoint: "Anchor-0" 707 1611 basechar 0
LayerCount: 2
Fore
SplineSet
697 0 m 1,0,-1
 421 500 l 1,1,-1
 279 373 l 1,2,-1
 214 0 l 1,3,-1
 32 0 l 1,4,-1
 299 1536 l 1,5,-1
 481 1536 l 1,6,-1
 321 619 l 1,7,-1
 430 729 l 1,8,-1
 815 1082 l 1,9,-1
 1050 1081 l 1,10,-1
 553 622 l 1,11,-1
 896 0 l 1,12,-1
 697 0 l 1,0,-1
EndSplineSet
Substitution2: "'ss05' Style Set 5 lookup 24 subtable" k.alt2
Substitution2: "'ss04' Style Set 4 lookup 23 subtable" k.alt
Substitution2: "'unic' Unicase lookup 2 subtable" K
Substitution2: "'smcp' Lowercase to Small Capitals lookup 1 subtable" K.smcp
EndChar

StartChar: l
Encoding: 108 108 81
Width: 483
GlyphClass: 2
Flags: W
HStem: 0 21G<46 230.477> 1516 20G<308.536 494>
VStem: 46 448
DStem2: 46 0 227 0 0.17126 0.985226<30.9981 1558.86>
AnchorPoint: "Anchor-5" 672 1697 basechar 0
AnchorPoint: "Anchor-3" 309 -407 basechar 0
AnchorPoint: "Anchor-2" 655 1600 basechar 0
AnchorPoint: "Anchor-1" 139 10 basechar 0
AnchorPoint: "Anchor-0" 431 1697 basechar 0
LayerCount: 2
Fore
SplineSet
494 1536 m 1,0,-1
 227 0 l 1,1,-1
 46 0 l 1,2,-1
 312 1536 l 1,3,-1
 494 1536 l 1,0,-1
EndSplineSet
Substitution2: "'unic' Unicase lookup 2 subtable" L
Substitution2: "'smcp' Lowercase to Small Capitals lookup 1 subtable" L.smcp
EndChar

StartChar: m
Encoding: 109 109 82
Width: 1742
GlyphClass: 2
Flags: W
HStem: 0 21G<30 215.451 676 860.421 1322 1507.35> 946 156<491.085 747.262 1130.02 1397.51> 1063 20G<218 385.134>
DStem2: 30 0 212 0 0.171187 0.985238<31.1561 915.948 1007.29 1098.21> 676 0 857 0 0.168621 0.985681<30.5205 861.751> 1322 0 1504 0 0.165743 0.986169<30.1652 869.052>
AnchorPoint: "Anchor-5" 1861 1290 basechar 0
AnchorPoint: "Anchor-3" 1568 -407 basechar 0
AnchorPoint: "Anchor-2" 1914 1600 basechar 0
AnchorPoint: "Anchor-1" 768 10 basechar 0
AnchorPoint: "Anchor-0" 1002 1290 basechar 0
LayerCount: 2
Fore
SplineSet
618 946 m 0,0,1
 530 949 530 949 463 908 c 128,-1,2
 396 867 396 867 349 794 c 1,3,-1
 212 0 l 1,4,-1
 30 0 l 1,5,-1
 218 1082 l 1,6,-1
 389 1083 l 1,7,-1
 366 964 l 1,8,9
 503 1106 503 1106 693 1102 c 0,10,11
 784 1100 784 1100 861 1059.5 c 128,-1,12
 938 1019 938 1019 968 929 c 1,13,14
 1038 1009 1038 1009 1127 1056.5 c 128,-1,15
 1216 1104 1216 1104 1326 1102 c 0,16,17
 1501 1099 1501 1099 1570.5 986.5 c 128,-1,18
 1640 874 1640 874 1623 711 c 1,19,-1
 1504 0 l 1,20,-1
 1322 0 l 1,21,-1
 1442 714 l 1,22,23
 1453 818 1453 818 1414 882 c 128,-1,24
 1375 946 1375 946 1263 948 c 0,25,26
 1160 950 1160 950 1081 884.5 c 128,-1,27
 1002 819 1002 819 980 719 c 1,28,-1
 857 0 l 1,29,-1
 676 0 l 1,30,-1
 796 713 l 1,31,32
 807 813 807 813 766.5 878.5 c 128,-1,33
 726 944 726 944 618 946 c 0,0,1
EndSplineSet
Substitution2: "'unic' Unicase lookup 2 subtable" M.unic
Substitution2: "'smcp' Lowercase to Small Capitals lookup 1 subtable" M.smcp
EndChar

StartChar: n
Encoding: 110 110 83
Width: 1097
GlyphClass: 2
Flags: W
AnchorPoint: "Anchor-5" 1216 1290 basechar 0
AnchorPoint: "Anchor-3" 923 -407 basechar 0
AnchorPoint: "Anchor-2" 1269 1600 basechar 0
AnchorPoint: "Anchor-1" 444 10 basechar 0
AnchorPoint: "Anchor-0" 675 1290 basechar 0
LayerCount: 2
Fore
SplineSet
633 947 m 0,0,1
 540 949 540 949 469 897.5 c 128,-1,2
 398 846 398 846 347 774 c 1,3,-1
 213 0 l 1,4,-1
 32 0 l 1,5,-1
 220 1082 l 1,6,-1
 391 1083 l 1,7,-1
 365 947 l 1,8,9
 430 1019 430 1019 513 1061 c 128,-1,10
 596 1103 596 1103 696 1102 c 0,11,12
 870 1099 870 1099 931.5 982.5 c 128,-1,13
 993 866 993 866 977 709 c 1,14,-1
 859 0 l 1,15,-1
 677 0 l 1,16,-1
 797 712 l 1,17,18
 808 809 808 809 774.5 876.5 c 128,-1,19
 741 944 741 944 633 947 c 0,0,1
EndSplineSet
Substitution2: "'unic' Unicase lookup 2 subtable" N.unic
Substitution2: "'smcp' Lowercase to Small Capitals lookup 1 subtable" N.smcp
EndChar

StartChar: o
Encoding: 111 111 84
Width: 1133
GlyphClass: 2
Flags: W
AnchorPoint: "Anchor-5" 1240 1290 basechar 0
AnchorPoint: "Anchor-4" 972 654 basechar 0
AnchorPoint: "Anchor-3" 976 -407 basechar 0
AnchorPoint: "Anchor-2" 1288 1600 basechar 0
AnchorPoint: "Anchor-1" 472 -1 basechar 0
AnchorPoint: "Anchor-0" 665 1290 basechar 0
LayerCount: 2
Fore
SplineSet
79 523 m 1,0,-1
 82 546 l 2,1,2
 98 691 98 691 167.5 819.5 c 128,-1,3
 237 948 237 948 354 1027 c 128,-1,4
 471 1106 471 1106 629 1102 c 0,5,6
 781 1099 781 1099 875.5 1019.5 c 128,-1,7
 970 940 970 940 1010 815.5 c 128,-1,8
 1050 691 1050 691 1037 554 c 2,9,-1
 1035 531 l 1,10,11
 1018 385 1018 385 947.5 258 c 128,-1,12
 877 131 877 131 760 53.5 c 128,-1,13
 643 -24 643 -24 486 -20 c 0,14,15
 335 -17 335 -17 240.5 61.5 c 128,-1,16
 146 140 146 140 106 263.5 c 128,-1,17
 66 387 66 387 79 523 c 1,0,-1
262 546 m 1,18,-1
 260 522 l 2,19,20
 251 437 251 437 266.5 347.5 c 128,-1,21
 282 258 282 258 335.5 196 c 128,-1,22
 389 134 389 134 493 131 c 0,23,24
 603 128 603 128 678.5 188.5 c 128,-1,25
 754 249 754 249 797 342.5 c 128,-1,26
 840 436 840 436 853 531 c 1,27,-1
 855 554 l 2,28,29
 864 639 864 639 848.5 729.5 c 128,-1,30
 833 820 833 820 779.5 883.5 c 128,-1,31
 726 947 726 947 622 950 c 0,32,33
 511 954 511 954 435.5 892 c 128,-1,34
 360 830 360 830 317 735.5 c 128,-1,35
 274 641 274 641 262 546 c 1,18,-1
EndSplineSet
Substitution2: "'ss06' Style Set 6 lookup 25 subtable" o.ss06
Substitution2: "'unic' Unicase lookup 2 subtable" O
Substitution2: "'smcp' Lowercase to Small Capitals lookup 1 subtable" O.smcp
EndChar

StartChar: p
Encoding: 112 112 85
Width: 1116
GlyphClass: 2
Flags: W
AnchorPoint: "Anchor-5" 1232 1280 basechar 0
AnchorPoint: "Anchor-3" 941 -407 basechar 0
AnchorPoint: "Anchor-2" 1288 1600 basechar 0
AnchorPoint: "Anchor-1" 50 -407 basechar 0
AnchorPoint: "Anchor-0" 727 1280 basechar 0
LayerCount: 2
Fore
SplineSet
525 -21 m 0,0,1
 441 -19 441 -19 366.5 11 c 128,-1,2
 292 41 292 41 238 106 c 1,3,-1
 141 -416 l 1,4,-1
 -41 -416 l 1,5,-1
 219 1082 l 1,6,-1
 384 1083 l 1,7,-1
 365 963 l 1,8,9
 498 1106 498 1106 684 1101 c 0,10,11
 833 1098 833 1098 908.5 1011.5 c 128,-1,12
 984 925 984 925 1006 799.5 c 128,-1,13
 1028 674 1028 674 1015 553 c 2,14,-1
 1012 531 l 2,15,16
 996 399 996 399 938.5 270.5 c 128,-1,17
 881 142 881 142 779 59 c 128,-1,18
 677 -24 677 -24 525 -21 c 0,0,1
623 947 m 0,19,20
 536 949 536 949 469 907 c 128,-1,21
 402 865 402 865 352 798 c 1,22,-1
 261 278 l 1,23,24
 323 136 323 136 480 131 c 0,25,26
 590 128 590 128 663 189 c 128,-1,27
 736 250 736 250 776.5 343.5 c 128,-1,28
 817 437 817 437 830 532 c 2,29,-1
 832 552 l 2,30,31
 842 632 842 632 832 723 c 128,-1,32
 822 814 822 814 774.5 879 c 128,-1,33
 727 944 727 944 623 947 c 0,19,20
EndSplineSet
Substitution2: "'ss06' Style Set 6 lookup 25 subtable" p.ss06
Substitution2: "'unic' Unicase lookup 2 subtable" P
Substitution2: "'smcp' Lowercase to Small Capitals lookup 1 subtable" P.smcp
EndChar

StartChar: q
Encoding: 113 113 86
Width: 1129
GlyphClass: 2
Flags: W
AnchorPoint: "Anchor-5" 1248 1290 basechar 0
AnchorPoint: "Anchor-3" 955 -407 basechar 0
AnchorPoint: "Anchor-2" 1301 1600 basechar 0
AnchorPoint: "Anchor-1" 714 -407 basechar 0
AnchorPoint: "Anchor-0" 640 1290 basechar 0
LayerCount: 2
Fore
SplineSet
1061 1082 m 1,0,-1
 801 -416 l 1,1,-1
 620 -416 l 1,2,-1
 718 100 l 1,3,4
 589 -23 589 -23 415 -19 c 0,5,6
 271 -16 271 -16 193.5 70.5 c 128,-1,7
 116 157 116 157 91.5 282 c 128,-1,8
 67 407 67 407 79 526 c 1,9,-1
 82 548 l 2,10,11
 99 684 99 684 157.5 812.5 c 128,-1,12
 216 941 216 941 321 1023.5 c 128,-1,13
 426 1106 426 1106 580 1102 c 0,14,15
 663 1101 663 1101 736 1069.5 c 128,-1,16
 809 1038 809 1038 861 972 c 1,17,-1
 894 1082 l 1,18,-1
 1061 1082 l 1,0,-1
262 527 m 2,19,20
 253 448 253 448 262.5 357 c 128,-1,21
 272 266 272 266 319 200.5 c 128,-1,22
 366 135 366 135 469 132 c 0,23,24
 555 129 555 129 621.5 170 c 128,-1,25
 688 211 688 211 739 276 c 1,26,-1
 833 810 l 1,27,28
 768 947 768 947 617 951 c 0,29,30
 506 955 506 955 432.5 893 c 128,-1,31
 359 831 359 831 318.5 736.5 c 128,-1,32
 278 642 278 642 265 548 c 2,33,-1
 262 527 l 2,19,20
EndSplineSet
Substitution2: "'ss06' Style Set 6 lookup 25 subtable" q.ss06
Substitution2: "'unic' Unicase lookup 2 subtable" Q
Substitution2: "'smcp' Lowercase to Small Capitals lookup 1 subtable" Q.smcp
EndChar

StartChar: r
Encoding: 114 114 87
Width: 673
GlyphClass: 2
Flags: W
AnchorPoint: "Anchor-5" 792 1290 basechar 0
AnchorPoint: "Anchor-3" 499 -407 basechar 0
AnchorPoint: "Anchor-2" 845 1600 basechar 0
AnchorPoint: "Anchor-1" 136 11 basechar 0
AnchorPoint: "Anchor-0" 514 1290 basechar 0
LayerCount: 2
Fore
SplineSet
620 927 m 0,0,1
 530 928 530 928 462 886 c 128,-1,2
 394 844 394 844 346 769 c 1,3,-1
 213 0 l 1,4,-1
 32 0 l 1,5,-1
 220 1082 l 1,6,-1
 395 1083 l 1,7,-1
 369 958 l 1,8,9
 418 1025 418 1025 484 1065.5 c 128,-1,10
 550 1106 550 1106 636 1105 c 0,11,12
 671 1104 671 1104 721 1091 c 1,13,-1
 704 917 l 1,14,15
 657 926 657 926 620 927 c 0,0,1
EndSplineSet
Substitution2: "'unic' Unicase lookup 2 subtable" R
Substitution2: "'smcp' Lowercase to Small Capitals lookup 1 subtable" R.smcp
EndChar

StartChar: s
Encoding: 115 115 88
Width: 1025
GlyphClass: 2
Flags: W
AnchorPoint: "Anchor-5" 1132 1290 basechar 0
AnchorPoint: "Anchor-3" 868 -407 basechar 0
AnchorPoint: "Anchor-2" 1181 1600 basechar 0
AnchorPoint: "Anchor-1" 450 -10 basechar 0
AnchorPoint: "Anchor-0" 652 1290 basechar 0
LayerCount: 2
Fore
SplineSet
700 293 m 0,0,1
 713 386 713 386 641 421 c 128,-1,2
 569 456 569 456 497 474 c 0,3,4
 417 494 417 494 337 527.5 c 128,-1,5
 257 561 257 561 205 621 c 128,-1,6
 153 681 153 681 158 779 c 0,7,8
 163 886 163 886 228 958.5 c 128,-1,9
 293 1031 293 1031 388.5 1067.5 c 128,-1,10
 484 1104 484 1104 580 1102 c 0,11,12
 732 1099 732 1099 840.5 1011.5 c 128,-1,13
 949 924 949 924 944 763 c 1,14,-1
 765 764 l 1,15,16
 767 849 767 849 711.5 898.5 c 128,-1,17
 656 948 656 948 573 949 c 0,18,19
 494 950 494 950 422 910.5 c 128,-1,20
 350 871 350 871 338 784 c 0,21,22
 331 727 331 727 365 696.5 c 128,-1,23
 399 666 399 666 450 650.5 c 128,-1,24
 501 635 501 635 543 624 c 0,25,26
 625 601 625 601 705 566 c 128,-1,27
 785 531 785 531 835 469.5 c 128,-1,28
 885 408 885 408 880 308 c 0,29,30
 874 194 874 194 807 121 c 128,-1,31
 740 48 740 48 641 13 c 128,-1,32
 542 -22 542 -22 440 -20 c 0,33,34
 282 -17 282 -17 163 74 c 128,-1,35
 44 165 44 165 49 335 c 1,36,-1
 230 334 l 1,37,38
 230 236 230 236 290.5 185 c 128,-1,39
 351 134 351 134 446 133 c 0,40,41
 526 132 526 132 606.5 167.5 c 128,-1,42
 687 203 687 203 700 293 c 0,0,1
EndSplineSet
Substitution2: "'unic' Unicase lookup 2 subtable" S
Substitution2: "'smcp' Lowercase to Small Capitals lookup 1 subtable" S.smcp
EndChar

StartChar: t
Encoding: 116 116 89
Width: 650
GlyphClass: 2
Flags: W
AnchorPoint: "Anchor-5" 802 1481 basechar 0
AnchorPoint: "Anchor-3" 475 -407 basechar 0
AnchorPoint: "Anchor-2" 822 1600 basechar 0
AnchorPoint: "Anchor-1" 335 0 basechar 0
AnchorPoint: "Anchor-0" 454 1481 basechar 0
LayerCount: 2
Fore
SplineSet
485 0 m 1,0,1
 454 -11 454 -11 420 -15 c 128,-1,2
 386 -19 386 -19 353 -19 c 0,3,4
 228 -17 228 -17 183.5 71 c 128,-1,5
 139 159 139 159 149 269 c 1,6,-1
 259 940 l 1,7,-1
 67 940 l 1,8,-1
 92 1082 l 1,9,-1
 284 1082 l 1,10,-1
 330 1345 l 1,11,-1
 511 1345 l 1,12,-1
 464 1082 l 1,13,-1
 661 1082 l 1,14,-1
 636 940 l 1,15,-1
 440 940 l 1,16,-1
 327 266 l 2,17,18
 321 214 321 214 337 178 c 128,-1,19
 353 142 353 142 411 141 c 0,20,21
 433 141 433 141 454.5 144.5 c 128,-1,22
 476 148 476 148 498 151 c 1,23,-1
 485 0 l 1,0,1
EndSplineSet
Substitution2: "'unic' Unicase lookup 2 subtable" T
Substitution2: "'smcp' Lowercase to Small Capitals lookup 1 subtable" T.smcp
EndChar

StartChar: u
Encoding: 117 117 90
Width: 1095
GlyphClass: 2
Flags: W
AnchorPoint: "Anchor-5" 1214 1290 basechar 0
AnchorPoint: "Anchor-4" 901 654 basechar 0
AnchorPoint: "Anchor-3" 921 -407 basechar 0
AnchorPoint: "Anchor-2" 1267 1600 basechar 0
AnchorPoint: "Anchor-1" 442 0 basechar 0
AnchorPoint: "Anchor-0" 669 1290 basechar 0
LayerCount: 2
Fore
SplineSet
683 0 m 1,0,-1
 706 108 l 1,1,2
 581 -25 581 -25 384 -20 c 0,3,4
 208 -17 208 -17 145.5 105 c 128,-1,5
 83 227 83 227 99 384 c 1,6,-1
 215 1082 l 1,7,-1
 396 1082 l 1,8,-1
 279 381 l 1,9,10
 270 295 270 295 296 218 c 128,-1,11
 322 141 322 141 425 137 c 0,12,13
 617 130 617 130 724 293 c 1,14,-1
 861 1082 l 1,15,-1
 1043 1082 l 1,16,-1
 855 0 l 1,17,-1
 683 0 l 1,0,-1
EndSplineSet
Substitution2: "'unic' Unicase lookup 2 subtable" U.unic
Substitution2: "'smcp' Lowercase to Small Capitals lookup 1 subtable" U.smcp
EndChar

StartChar: v
Encoding: 118 118 91
Width: 962
GlyphClass: 2
Flags: W
AnchorPoint: "Anchor-5" 1068 1280 basechar 0
AnchorPoint: "Anchor-3" 805 -407 basechar 0
AnchorPoint: "Anchor-2" 1118 1600 basechar 0
AnchorPoint: "Anchor-1" 396 10 basechar 0
AnchorPoint: "Anchor-0" 595 1280 basechar 0
LayerCount: 2
Fore
SplineSet
1006 1082 m 1,0,-1
 459 0 l 1,1,-1
 322 0 l 1,2,-1
 110 1082 l 1,3,-1
 289 1082 l 1,4,-1
 425 255 l 1,5,-1
 815 1082 l 1,6,-1
 1006 1082 l 1,0,-1
EndSplineSet
Substitution2: "'unic' Unicase lookup 2 subtable" V
Substitution2: "'smcp' Lowercase to Small Capitals lookup 1 subtable" V.smcp
EndChar

StartChar: w
Encoding: 119 119 92
Width: 1493
GlyphClass: 2
Flags: W
AnchorPoint: "Anchor-5" 1612 1290 basechar 0
AnchorPoint: "Anchor-3" 1318 -407 basechar 0
AnchorPoint: "Anchor-2" 1665 1600 basechar 0
AnchorPoint: "Anchor-1" 641 10 basechar 0
AnchorPoint: "Anchor-0" 859 1290 basechar 0
LayerCount: 2
Fore
SplineSet
1534 1082 m 1,0,-1
 1042 0 l 1,1,-1
 895 0 l 1,2,-1
 783 817 l 1,3,-1
 393 0 l 1,4,-1
 245 0 l 1,5,-1
 128 1082 l 1,6,-1
 303 1082 l 1,7,-1
 368 277 l 1,8,-1
 752 1082 l 1,9,-1
 898 1082 l 1,10,-1
 1003 259 l 1,11,-1
 1348 1082 l 1,12,-1
 1534 1082 l 1,0,-1
EndSplineSet
Substitution2: "'unic' Unicase lookup 2 subtable" W
Substitution2: "'smcp' Lowercase to Small Capitals lookup 1 subtable" W.smcp
EndChar

StartChar: x
Encoding: 120 120 93
Width: 986
GlyphClass: 2
Flags: W
AnchorPoint: "Anchor-5" 1091 1280 basechar 0
AnchorPoint: "Anchor-3" 828 -407 basechar 0
AnchorPoint: "Anchor-2" 1141 1600 basechar 0
AnchorPoint: "Anchor-1" 403 10 basechar 0
AnchorPoint: "Anchor-0" 598 1280 basechar 0
LayerCount: 2
Fore
SplineSet
328 1082 m 1,0,-1
 495 689 l 1,1,-1
 789 1082 l 1,2,-1
 1012 1082 l 1,3,-1
 578 539 l 1,4,-1
 842 0 l 1,5,-1
 645 0 l 1,6,-1
 466 405 l 1,7,-1
 161 0 l 1,8,-1
 -60 0 l 1,9,-1
 386 557 l 1,10,-1
 131 1082 l 1,11,-1
 328 1082 l 1,0,-1
EndSplineSet
Substitution2: "'unic' Unicase lookup 2 subtable" X
Substitution2: "'smcp' Lowercase to Small Capitals lookup 1 subtable" X.smcp
EndChar

StartChar: y
Encoding: 121 121 94
Width: 940
GlyphClass: 2
Flags: W
AnchorPoint: "Anchor-5" 1059 1290 basechar 0
AnchorPoint: "Anchor-4" 725 654 basechar 0
AnchorPoint: "Anchor-3" 765 -407 basechar 0
AnchorPoint: "Anchor-2" 1112 1600 basechar 0
AnchorPoint: "Anchor-1" 559 -158 basechar 0
AnchorPoint: "Anchor-0" 611 1290 basechar 0
LayerCount: 2
Fore
SplineSet
368 -168 m 2,0,1
 317 -274 317 -274 233 -358 c 128,-1,2
 149 -442 149 -442 21 -441 c 0,3,4
 -6 -440 -6 -440 -33.5 -435 c 128,-1,5
 -61 -430 -61 -430 -87 -424 c 1,6,-1
 -76 -272 l 1,7,8
 -64 -274 -64 -274 -52 -275.5 c 128,-1,9
 -40 -277 -40 -277 -29 -277 c 0,10,11
 71 -282 71 -282 131.5 -233 c 128,-1,12
 192 -184 192 -184 234 -99 c 2,13,-1
 296 23 l 1,14,-1
 108 1082 l 1,15,-1
 297 1082 l 1,16,-1
 419 274 l 1,17,-1
 803 1082 l 1,18,-1
 1003 1082 l 1,19,-1
 368 -168 l 2,0,1
EndSplineSet
Substitution2: "'unic' Unicase lookup 2 subtable" Y
Substitution2: "'smcp' Lowercase to Small Capitals lookup 1 subtable" Y.smcp
EndChar

StartChar: z
Encoding: 122 122 95
Width: 986
GlyphClass: 2
Flags: W
AnchorPoint: "Anchor-5" 1104 1290 basechar 0
AnchorPoint: "Anchor-3" 811 -407 basechar 0
AnchorPoint: "Anchor-2" 1158 1600 basechar 0
AnchorPoint: "Anchor-1" 408 10 basechar 0
AnchorPoint: "Anchor-0" 618 1290 basechar 0
LayerCount: 2
Fore
SplineSet
149 929 m 1,0,-1
 177 1082 l 1,1,-1
 974 1082 l 1,2,-1
 950 942 l 1,3,-1
 236 152 l 1,4,-1
 841 152 l 1,5,-1
 814 0 l 1,6,-1
 -19 0 l 1,7,-1
 6 145 l 1,8,-1
 714 929 l 1,9,-1
 149 929 l 1,0,-1
EndSplineSet
Substitution2: "'unic' Unicase lookup 2 subtable" Z
Substitution2: "'smcp' Lowercase to Small Capitals lookup 1 subtable" Z.smcp
EndChar

StartChar: braceleft
Encoding: 123 123 96
Width: 672
Flags: W
LayerCount: 2
Fore
SplineSet
219 306 m 2,0,1
 230 405 230 405 196 469.5 c 128,-1,2
 162 534 162 534 56 542 c 1,3,-1
 72 686 l 1,4,5
 183 690 183 690 244 754 c 128,-1,6
 305 818 305 818 320 925 c 2,7,-1
 348 1132 l 2,8,9
 397 1493 397 1493 762 1599 c 1,10,-1
 790 1483 l 1,11,12
 668 1443 668 1443 608.5 1348.5 c 128,-1,13
 549 1254 549 1254 531 1132 c 2,14,-1
 503 925 l 2,15,16
 474 710 474 710 288 611 c 1,17,18
 361 557 361 557 385 474.5 c 128,-1,19
 409 392 409 392 400 305 c 2,20,-1
 373 98 l 2,21,22
 359 -10 359 -10 383 -108.5 c 128,-1,23
 407 -207 407 -207 519 -251 c 1,24,-1
 473 -364 l 1,25,26
 313 -311 313 -311 243 -188.5 c 128,-1,27
 173 -66 173 -66 191 99 c 1,28,-1
 219 306 l 2,0,1
EndSplineSet
EndChar

StartChar: bar
Encoding: 124 124 97
Width: 485
Flags: W
LayerCount: 2
Fore
SplineSet
450 1456 m 1,0,-1
 180 -270 l 1,1,-1
 34 -270 l 1,2,-1
 304 1456 l 1,3,-1
 450 1456 l 1,0,-1
EndSplineSet
EndChar

StartChar: braceright
Encoding: 125 125 98
Width: 672
Flags: W
LayerCount: 2
Fore
SplineSet
457 924 m 2,0,1
 446 825 446 825 480 761 c 128,-1,2
 514 697 514 697 619 690 c 1,3,-1
 604 545 l 1,4,5
 492 541 492 541 431.5 476.5 c 128,-1,6
 371 412 371 412 355 305 c 2,7,-1
 327 99 l 2,8,9
 279 -262 279 -262 -87 -368 c 1,10,-1
 -115 -251 l 1,11,12
 7 -211 7 -211 67 -117 c 128,-1,13
 127 -23 127 -23 145 99 c 2,14,-1
 173 305 l 2,15,16
 202 526 202 526 402 620 c 1,17,18
 321 669 321 669 294 752 c 128,-1,19
 267 835 267 835 276 925 c 2,20,-1
 303 1133 l 2,21,22
 317 1241 317 1241 293 1340 c 128,-1,23
 269 1439 269 1439 157 1483 c 1,24,-1
 203 1595 l 1,25,26
 363 1542 363 1542 433 1419.5 c 128,-1,27
 503 1297 503 1297 484 1132 c 2,28,-1
 457 924 l 2,0,1
EndSplineSet
EndChar

StartChar: asciitilde
Encoding: 126 126 99
Width: 1351
Flags: W
LayerCount: 2
Fore
SplineSet
1103 776 m 1,0,-1
 1245 779 l 1,1,2
 1232 637 1232 637 1143 518 c 128,-1,3
 1054 399 1054 399 896 401 c 0,4,5
 812 403 812 403 745 443.5 c 128,-1,6
 678 484 678 484 620 541 c 0,7,8
 584 577 584 577 543.5 608.5 c 128,-1,9
 503 640 503 640 449 641 c 0,10,11
 360 643 360 643 317 579.5 c 128,-1,12
 274 516 274 516 261 439 c 1,13,-1
 105 436 l 1,14,15
 120 579 120 579 210 693.5 c 128,-1,16
 300 808 300 808 457 805 c 0,17,18
 541 803 541 803 608 762 c 128,-1,19
 675 721 675 721 732 664 c 0,20,21
 768 628 768 628 809 596 c 128,-1,22
 850 564 850 564 904 563 c 0,23,24
 995 562 995 562 1042 630 c 128,-1,25
 1089 698 1089 698 1103 776 c 1,0,-1
EndSplineSet
EndChar

StartChar: exclamdown
Encoding: 161 161 100
Width: 485
Flags: W
LayerCount: 2
Fore
SplineSet
415 999 m 0,0,1
 415 952 415 952 385.5 921 c 128,-1,2
 356 890 356 890 309 889 c 0,3,4
 263 888 263 888 232.5 917.5 c 128,-1,5
 202 947 202 947 202 993 c 0,6,7
 203 1040 203 1040 233 1070.5 c 128,-1,8
 263 1101 263 1101 310 1102 c 0,9,10
 356 1103 356 1103 386 1074 c 128,-1,11
 416 1045 416 1045 415 999 c 0,0,1
-16 -361 m 1,12,-1
 179 684 l 1,13,-1
 342 684 l 1,14,-1
 175 -361 l 1,15,-1
 -16 -361 l 1,12,-1
EndSplineSet
EndChar

StartChar: cent
Encoding: 162 162 101
Width: 1087
Flags: W
LayerCount: 2
Fore
SplineSet
938 342 m 1,0,1
 915 193 915 193 802.5 103 c 128,-1,2
 690 13 690 13 549 -13 c 1,3,-1
 503 -245 l 1,4,-1
 321 -245 l 1,5,-1
 368 -9 l 1,6,7
 248 22 248 22 183.5 105 c 128,-1,8
 119 188 119 188 98.5 297.5 c 128,-1,9
 78 407 78 407 90 517 c 2,10,-1
 94 560 l 1,11,12
 119 757 119 757 232.5 906.5 c 128,-1,13
 346 1056 346 1056 549 1093 c 1,14,-1
 593 1318 l 1,15,-1
 775 1318 l 1,16,-1
 730 1093 l 1,17,18
 870 1061 870 1061 939.5 954.5 c 128,-1,19
 1009 848 1009 848 1008 709 c 1,20,-1
 837 709 l 1,21,22
 837 806 837 806 785 876.5 c 128,-1,23
 733 947 733 947 629 950 c 0,24,25
 519 954 519 954 444.5 896 c 128,-1,26
 370 838 370 838 328.5 747 c 128,-1,27
 287 656 287 656 274 560 c 2,28,-1
 269 518 l 2,29,30
 259 434 259 434 270 345.5 c 128,-1,31
 281 257 281 257 330.5 195.5 c 128,-1,32
 380 134 380 134 486 131 c 0,33,34
 586 128 586 128 663.5 187 c 128,-1,35
 741 246 741 246 767 341 c 1,36,-1
 938 342 l 1,0,1
EndSplineSet
EndChar

StartChar: sterling
Encoding: 163 163 102
Width: 1155
Flags: W
LayerCount: 2
Fore
SplineSet
-7 0 m 1,0,-1
 10 156 l 1,1,-1
 86 154 l 1,2,3
 156 181 156 181 185 257 c 128,-1,4
 214 333 214 333 224 401 c 2,5,-1
 254 623 l 1,6,-1
 92 623 l 1,7,-1
 119 780 l 1,8,-1
 276 780 l 1,9,-1
 308 1039 l 2,10,11
 331 1232 331 1232 467 1356.5 c 128,-1,12
 603 1481 603 1481 801 1476 c 0,13,14
 975 1472 975 1472 1069 1364.5 c 128,-1,15
 1163 1257 1163 1257 1154 1086 c 1,16,-1
 966 1087 l 1,17,18
 973 1186 973 1186 927 1251.5 c 128,-1,19
 881 1317 881 1317 776 1321 c 0,20,21
 655 1324 655 1324 583 1236.5 c 128,-1,22
 511 1149 511 1149 496 1040 c 2,23,-1
 462 780 l 1,24,-1
 773 780 l 1,25,-1
 745 623 l 1,26,-1
 440 623 l 1,27,-1
 411 403 l 2,28,29
 390 256 390 256 304 154 c 1,30,-1
 1019 157 l 1,31,-1
 991 0 l 1,32,-1
 -7 0 l 1,0,-1
EndSplineSet
Substitution2: "'c2sc' Capitals to Small Capitals lookup 0 subtable" sterling.smcp
Position2: "'cpsp' Capital Spacing lookup 0 subtable" dx=36 dy=0 dh=72 dv=0
EndChar

StartChar: currency
Encoding: 164 164 103
Width: 1417
Flags: W
LayerCount: 2
Fore
SplineSet
1245 101 m 1,0,-1
 1101 -27 l 1,1,-1
 996 110 l 1,2,3
 913 50 913 50 818.5 14 c 128,-1,4
 724 -22 724 -22 619 -20 c 0,5,6
 422 -17 422 -17 285 110 c 1,7,-1
 128 -26 l 1,8,-1
 18 119 l 1,9,-1
 177 252 l 1,10,11
 115 428 115 428 137 601 c 0,12,13
 165 814 165 814 311 981 c 1,14,-1
 194 1137 l 1,15,-1
 336 1264 l 1,16,-1
 450 1116 l 1,17,18
 531 1171 531 1171 621 1203 c 128,-1,19
 711 1235 711 1235 810 1234 c 0,20,21
 999 1232 999 1232 1136 1113 c 1,22,-1
 1310 1265 l 1,23,-1
 1421 1119 l 1,24,-1
 1248 973 l 1,25,26
 1314 795 1314 795 1291 614 c 0,27,28
 1265 413 1265 413 1131 252 c 1,29,-1
 1245 101 l 1,0,-1
305 599 m 0,30,31
 291 492 291 492 324 390.5 c 128,-1,32
 357 289 357 289 434.5 222 c 128,-1,33
 512 155 512 155 630 151 c 0,34,35
 758 148 758 148 864 214.5 c 128,-1,36
 970 281 970 281 1038.5 389 c 128,-1,37
 1107 497 1107 497 1123 617 c 0,38,39
 1137 724 1137 724 1104 825 c 128,-1,40
 1071 926 1071 926 993.5 992.5 c 128,-1,41
 916 1059 916 1059 798 1063 c 0,42,43
 671 1066 671 1066 565 1000 c 128,-1,44
 459 934 459 934 390 826.5 c 128,-1,45
 321 719 321 719 305 599 c 0,30,31
EndSplineSet
EndChar

StartChar: yen
Encoding: 165 165 104
Width: 1044
Flags: W
LayerCount: 2
Fore
SplineSet
878 322 m 1,0,-1
 563 322 l 1,1,-1
 507 0 l 1,2,-1
 319 0 l 1,3,-1
 376 322 l 1,4,-1
 67 322 l 1,5,-1
 89 446 l 1,6,-1
 396 446 l 1,7,-1
 426 612 l 1,8,-1
 117 612 l 1,9,-1
 139 737 l 1,10,-1
 398 737 l 1,11,-1
 167 1456 l 1,12,-1
 368 1456 l 1,13,-1
 550 794 l 1,14,-1
 964 1456 l 1,15,-1
 1182 1456 l 1,16,-1
 702 737 l 1,17,-1
 950 737 l 1,18,-1
 928 612 l 1,19,-1
 622 615 l 1,20,-1
 617 609 l 1,21,-1
 583 446 l 1,22,-1
 900 446 l 1,23,-1
 878 322 l 1,0,-1
EndSplineSet
Substitution2: "'c2sc' Capitals to Small Capitals lookup 0 subtable" yen.smcp
Position2: "'cpsp' Capital Spacing lookup 0 subtable" dx=36 dy=0 dh=72 dv=0
EndChar

StartChar: brokenbar
Encoding: 166 166 105
Width: 477
Flags: W
LayerCount: 2
Fore
SplineSet
473 1456 m 1,0,-1
 341 698 l 1,1,-1
 160 698 l 1,2,-1
 292 1456 l 1,3,-1
 473 1456 l 1,0,-1
173 -270 m 1,4,-1
 -8 -270 l 1,5,-1
 130 522 l 1,6,-1
 311 522 l 1,7,-1
 173 -270 l 1,4,-1
EndSplineSet
EndChar

StartChar: section
Encoding: 167 167 106
Width: 1218
Flags: W
LayerCount: 2
Fore
SplineSet
942 -121 m 0,0,1
 932 -256 932 -256 852.5 -339 c 128,-1,2
 773 -422 773 -422 657 -459.5 c 128,-1,3
 541 -497 541 -497 420 -496 c 0,4,5
 219 -492 219 -492 88 -384 c 128,-1,6
 -43 -276 -43 -276 -33 -64 c 1,7,-1
 153 -62 l 1,8,9
 143 -196 143 -196 220 -268.5 c 128,-1,10
 297 -341 297 -341 427 -343 c 0,11,12
 534 -345 534 -345 638.5 -294 c 128,-1,13
 743 -243 743 -243 760 -124 c 0,14,15
 772 -43 772 -43 725 4.5 c 128,-1,16
 678 52 678 52 607 79 c 128,-1,17
 536 106 536 106 476 126 c 0,18,19
 372 161 372 161 279 209.5 c 128,-1,20
 186 258 186 258 130.5 337 c 128,-1,21
 75 416 75 416 86 543 c 0,22,23
 94 648 94 648 156.5 717.5 c 128,-1,24
 219 787 219 787 311 830 c 1,25,26
 257 887 257 887 237.5 956.5 c 128,-1,27
 218 1026 218 1026 225 1103 c 0,28,29
 236 1236 236 1236 316.5 1319.5 c 128,-1,30
 397 1403 397 1403 513.5 1441 c 128,-1,31
 630 1479 630 1479 749 1477 c 0,32,33
 949 1474 949 1474 1065 1362 c 128,-1,34
 1181 1250 1181 1250 1168 1046 c 1,35,-1
 988 1046 l 1,36,37
 997 1168 997 1168 931.5 1245 c 128,-1,38
 866 1322 866 1322 741 1325 c 0,39,40
 632 1327 632 1327 528 1277 c 128,-1,41
 424 1227 424 1227 407 1106 c 0,42,43
 395 1021 395 1021 439.5 974 c 128,-1,44
 484 927 484 927 553.5 901.5 c 128,-1,45
 623 876 623 876 689 855 c 0,46,47
 793 821 793 821 887 772.5 c 128,-1,48
 981 724 981 724 1036.5 645 c 128,-1,49
 1092 566 1092 566 1082 439 c 0,50,51
 1073 333 1073 333 1010 264 c 128,-1,52
 947 195 947 195 854 153 c 1,53,54
 909 96 909 96 929 26 c 128,-1,55
 949 -44 949 -44 942 -121 c 0,0,1
554 290 m 0,56,57
 592 278 592 278 629.5 265 c 128,-1,58
 667 252 667 252 704 237 c 1,59,60
 777 260 777 260 832 308 c 128,-1,61
 887 356 887 356 899 436 c 0,62,63
 911 517 911 517 863.5 566 c 128,-1,64
 816 615 816 615 744 643 c 128,-1,65
 672 671 672 671 612 691 c 0,66,67
 573 703 573 703 534.5 716 c 128,-1,68
 496 729 496 729 458 745 c 1,69,70
 382 723 382 723 331 674.5 c 128,-1,71
 280 626 280 626 268 545 c 0,72,73
 256 459 256 459 300.5 411 c 128,-1,74
 345 363 345 363 416 337 c 128,-1,75
 487 311 487 311 554 290 c 0,56,57
EndSplineSet
EndChar

StartChar: dieresis
Encoding: 168 168 107
Width: 831
Flags: W
LayerCount: 2
Fore
SplineSet
217 1369 m 0,0,1
 218 1415 218 1415 247.5 1446.5 c 128,-1,2
 277 1478 277 1478 324 1479 c 256,3,4
 371 1480 371 1480 401 1450 c 128,-1,5
 431 1420 431 1420 431 1373 c 0,6,7
 430 1327 430 1327 399.5 1297 c 128,-1,8
 369 1267 369 1267 323 1266 c 0,9,10
 278 1265 278 1265 247.5 1294 c 128,-1,11
 217 1323 217 1323 217 1369 c 0,0,1
635 1367 m 0,12,13
 635 1413 635 1413 664.5 1444.5 c 128,-1,14
 694 1476 694 1476 741 1477 c 256,15,16
 788 1478 788 1478 818.5 1448 c 128,-1,17
 849 1418 849 1418 848 1371 c 0,18,19
 848 1325 848 1325 817.5 1295 c 128,-1,20
 787 1265 787 1265 741 1264 c 256,21,22
 695 1263 695 1263 665 1291.5 c 128,-1,23
 635 1320 635 1320 635 1367 c 0,12,13
EndSplineSet
EndChar

StartChar: copyright
Encoding: 169 169 108
Width: 1561
Flags: W
LayerCount: 2
Fore
SplineSet
108 722 m 0,0,1
 131 921 131 921 240.5 1094 c 128,-1,2
 350 1267 350 1267 522 1373.5 c 128,-1,3
 694 1480 694 1480 902 1476 c 0,4,5
 1100 1473 1100 1473 1238 1365.5 c 128,-1,6
 1376 1258 1376 1258 1441 1089.5 c 128,-1,7
 1506 921 1506 921 1485 735 c 0,8,9
 1463 538 1463 538 1353 363.5 c 128,-1,10
 1243 189 1243 189 1071.5 82 c 128,-1,11
 900 -25 900 -25 692 -21 c 0,12,13
 493 -18 493 -18 355 90.5 c 128,-1,14
 217 199 217 199 152.5 368 c 128,-1,15
 88 537 88 537 108 722 c 0,0,1
221 722 m 0,16,17
 201 568 201 568 250.5 426 c 128,-1,18
 300 284 300 284 412 192.5 c 128,-1,19
 524 101 524 101 691 98 c 0,20,21
 867 94 867 94 1013.5 184.5 c 128,-1,22
 1160 275 1160 275 1254.5 422 c 128,-1,23
 1349 569 1349 569 1371 736 c 0,24,25
 1391 889 1391 889 1341.5 1030.5 c 128,-1,26
 1292 1172 1292 1172 1180.5 1263 c 128,-1,27
 1069 1354 1069 1354 903 1357 c 0,28,29
 727 1361 727 1361 580.5 1271.5 c 128,-1,30
 434 1182 434 1182 338.5 1035.5 c 128,-1,31
 243 889 243 889 221 722 c 0,16,17
942 597 m 1,32,-1
 1082 598 l 1,33,34
 1068 449 1068 449 976 364 c 128,-1,35
 884 279 884 279 732 284 c 0,36,37
 571 288 571 288 500 406 c 128,-1,38
 429 524 429 524 441 671 c 2,39,-1
 453 786 l 2,40,41
 471 942 471 942 568.5 1059.5 c 128,-1,42
 666 1177 666 1177 835 1174 c 0,43,44
 980 1171 980 1171 1057 1086.5 c 128,-1,45
 1134 1002 1134 1002 1127 859 c 1,46,-1
 985 860 l 1,47,48
 990 945 990 945 955.5 995 c 128,-1,49
 921 1045 921 1045 830 1046 c 0,50,51
 720 1048 720 1048 664 966 c 128,-1,52
 608 884 608 884 595 787 c 2,53,-1
 582 670 l 2,54,55
 574 585 574 585 602.5 500 c 128,-1,56
 631 415 631 415 736 412 c 0,57,58
 830 408 830 408 878.5 459 c 128,-1,59
 927 510 927 510 942 597 c 1,32,-1
EndSplineSet
EndChar

StartChar: ordfeminine
Encoding: 170 170 109
Width: 889
Flags: W
LayerCount: 2
Fore
SplineSet
628 704 m 1,0,1
 625 741 625 741 625 778 c 1,2,3
 531 691 531 691 417 692 c 0,4,5
 318 692 318 692 255.5 750.5 c 128,-1,6
 193 809 193 809 196 911 c 0,7,8
 200 1006 200 1006 256 1058 c 128,-1,9
 312 1110 312 1110 393.5 1130 c 128,-1,10
 475 1150 475 1150 554 1150 c 2,11,-1
 664 1149 l 1,12,-1
 674 1204 l 2,13,14
 682 1257 682 1257 663 1295.5 c 128,-1,15
 644 1334 644 1334 584 1336 c 0,16,17
 527 1338 527 1338 484 1313 c 128,-1,18
 441 1288 441 1288 426 1232 c 1,19,-1
 270 1244 l 1,20,21
 282 1366 282 1366 378.5 1423 c 128,-1,22
 475 1480 475 1480 588 1478 c 0,23,24
 712 1475 712 1475 778 1399 c 128,-1,25
 844 1323 844 1323 834 1201 c 1,26,-1
 785 887 l 2,27,28
 778 841 778 841 776.5 796 c 128,-1,29
 775 751 775 751 783 705 c 1,30,-1
 628 704 l 1,0,1
457 827 m 0,31,32
 504 827 504 827 546.5 847.5 c 128,-1,33
 589 868 589 868 625 896 c 1,34,-1
 652 1038 l 1,35,-1
 559 1038 l 2,36,37
 499 1037 499 1037 434 1011.5 c 128,-1,38
 369 986 369 986 358 915 c 0,39,40
 351 866 351 866 383 846.5 c 128,-1,41
 415 827 415 827 457 827 c 0,31,32
EndSplineSet
EndChar

StartChar: logicalnot
Encoding: 172 172 111
Width: 1100
Flags: W
LayerCount: 2
Fore
SplineSet
158 801 m 1,0,-1
 965 801 l 1,1,-1
 891 376 l 1,2,-1
 710 376 l 1,3,-1
 756 639 l 1,4,-1
 129 639 l 1,5,-1
 158 801 l 1,0,-1
EndSplineSet
EndChar

StartChar: registered
Encoding: 174 174 112
Width: 1562
Flags: W
LayerCount: 2
Fore
SplineSet
108 722 m 0,0,1
 130 921 130 921 240 1094 c 128,-1,2
 350 1267 350 1267 521.5 1373.5 c 128,-1,3
 693 1480 693 1480 901 1476 c 0,4,5
 1100 1473 1100 1473 1237.5 1365.5 c 128,-1,6
 1375 1258 1375 1258 1440 1089.5 c 128,-1,7
 1505 921 1505 921 1484 735 c 0,8,9
 1462 538 1462 538 1352 363.5 c 128,-1,10
 1242 189 1242 189 1070.5 82 c 128,-1,11
 899 -25 899 -25 692 -21 c 0,12,13
 492 -18 492 -18 354 90.5 c 128,-1,14
 216 199 216 199 151.5 368 c 128,-1,15
 87 537 87 537 108 722 c 0,0,1
221 722 m 0,16,17
 200 568 200 568 249.5 426 c 128,-1,18
 299 284 299 284 411 192.5 c 128,-1,19
 523 101 523 101 690 98 c 0,20,21
 866 94 866 94 1012.5 184.5 c 128,-1,22
 1159 275 1159 275 1253.5 422 c 128,-1,23
 1348 569 1348 569 1370 736 c 0,24,25
 1390 889 1390 889 1340.5 1030.5 c 128,-1,26
 1291 1172 1291 1172 1179.5 1263 c 128,-1,27
 1068 1354 1068 1354 902 1357 c 0,28,29
 726 1361 726 1361 579.5 1271.5 c 128,-1,30
 433 1182 433 1182 337.5 1035.5 c 128,-1,31
 242 889 242 889 221 722 c 0,16,17
810 654 m 2,32,-1
 642 655 l 1,33,-1
 589 317 l 1,34,-1
 451 317 l 1,35,-1
 584 1165 l 1,36,-1
 842 1164 l 2,37,38
 957 1161 957 1161 1044 1104 c 128,-1,39
 1131 1047 1131 1047 1123 917 c 0,40,41
 1118 844 1118 844 1074.5 797 c 128,-1,42
 1031 750 1031 750 970 717 c 1,43,44
 1027 686 1027 686 1043 631 c 128,-1,45
 1059 576 1059 576 1054 516 c 2,46,-1
 1048 460 l 2,47,48
 1045 427 1045 427 1046 396.5 c 128,-1,49
 1047 366 1047 366 1049 333 c 1,50,-1
 1047 316 l 1,51,-1
 909 316 l 1,52,53
 904 353 904 353 906.5 389 c 128,-1,54
 909 425 909 425 913 461 c 2,55,-1
 919 514 l 2,56,57
 926 580 926 580 902 615 c 128,-1,58
 878 650 878 650 810 654 c 2,32,-1
702 1038 m 1,59,-1
 662 783 l 1,60,-1
 805 782 l 2,61,62
 864 784 864 784 920.5 814 c 128,-1,63
 977 844 977 844 987 910 c 0,64,65
 1000 988 1000 988 955 1012 c 128,-1,66
 910 1036 910 1036 843 1037 c 2,67,-1
 702 1038 l 1,59,-1
EndSplineSet
EndChar

StartChar: macron
Encoding: 175 175 113
Width: 911
Flags: W
LayerCount: 2
Fore
SplineSet
922 1445 m 1,0,-1
 899 1303 l 1,1,-1
 247 1303 l 1,2,-1
 270 1445 l 1,3,-1
 922 1445 l 1,0,-1
EndSplineSet
EndChar

StartChar: degree
Encoding: 176 176 114
Width: 742
Flags: W
LayerCount: 2
Fore
SplineSet
235 1208 m 0,0,1
 238 1314 238 1314 316 1397 c 128,-1,2
 394 1480 394 1480 504 1478 c 0,3,4
 604 1476 604 1476 666 1399 c 128,-1,5
 728 1322 728 1322 725 1226 c 0,6,7
 721 1120 721 1120 645 1038.5 c 128,-1,8
 569 957 569 957 460 959 c 0,9,10
 359 961 359 961 295 1036 c 128,-1,11
 231 1111 231 1111 235 1208 c 0,0,1
355 1210 m 0,12,13
 350 1161 350 1161 379.5 1124 c 128,-1,14
 409 1087 409 1087 460 1087 c 0,15,16
 516 1087 516 1087 557 1128.5 c 128,-1,17
 598 1170 598 1170 604 1224 c 0,18,19
 610 1272 610 1272 582.5 1310.5 c 128,-1,20
 555 1349 555 1349 503 1350 c 0,21,22
 447 1350 447 1350 404 1307.5 c 128,-1,23
 361 1265 361 1265 355 1210 c 0,12,13
EndSplineSet
EndChar

StartChar: plusminus
Encoding: 177 177 115
Width: 1062
Flags: W
LayerCount: 2
Fore
SplineSet
998 703 m 1,0,-1
 647 703 l 1,1,-1
 582 289 l 1,2,-1
 418 289 l 1,3,-1
 483 703 l 1,4,-1
 108 703 l 1,5,-1
 133 855 l 1,6,-1
 507 855 l 1,7,-1
 572 1267 l 1,8,-1
 735 1267 l 1,9,-1
 670 855 l 1,10,-1
 1023 855 l 1,11,-1
 998 703 l 1,0,-1
872 152 m 1,12,-1
 848 1 l 1,13,-1
 37 1 l 1,14,-1
 61 152 l 1,15,-1
 872 152 l 1,12,-1
EndSplineSet
EndChar

StartChar: twosuperior
Encoding: 178 178 116
Width: 738
Flags: W
LayerCount: 2
Fore
SplineSet
697 795 m 1,0,-1
 674 667 l 1,1,-1
 93 667 l 1,2,-1
 113 783 l 1,3,-1
 429 1048 l 2,4,5
 471 1084 471 1084 520.5 1132.5 c 128,-1,6
 570 1181 570 1181 578 1240 c 0,7,8
 585 1287 585 1287 558.5 1314.5 c 128,-1,9
 532 1342 532 1342 485 1343 c 0,10,11
 419 1343 419 1343 379 1305.5 c 128,-1,12
 339 1268 339 1268 325 1207 c 1,13,-1
 170 1206 l 1,14,15
 183 1331 183 1331 272.5 1400.5 c 128,-1,16
 362 1470 362 1470 484 1469 c 0,17,18
 588 1468 588 1468 666 1411 c 128,-1,19
 744 1354 744 1354 738 1240 c 0,20,21
 733 1143 733 1143 659 1069.5 c 128,-1,22
 585 996 585 996 515 941 c 2,23,-1
 319 795 l 1,24,-1
 697 795 l 1,0,-1
EndSplineSet
EndChar

StartChar: threesuperior
Encoding: 179 179 117
Width: 738
Flags: W
LayerCount: 2
Fore
SplineSet
422 1010 m 2,0,-1
 328 1011 l 1,1,-1
 348 1126 l 1,2,-1
 420 1126 l 2,3,4
 475 1128 475 1128 527 1154 c 128,-1,5
 579 1180 579 1180 588 1242 c 0,6,7
 595 1293 595 1293 562 1316.5 c 128,-1,8
 529 1340 529 1340 483 1341 c 0,9,10
 371 1341 371 1341 341 1247 c 1,11,-1
 185 1247 l 1,12,13
 197 1360 197 1360 284.5 1415 c 128,-1,14
 372 1470 372 1470 480 1469 c 0,15,16
 579 1467 579 1467 663.5 1416.5 c 128,-1,17
 748 1366 748 1366 742 1252 c 0,18,19
 738 1180 738 1180 691.5 1137.5 c 128,-1,20
 645 1095 645 1095 585 1067 c 1,21,22
 703 1024 703 1024 698 894 c 0,23,24
 693 769 693 769 591.5 711.5 c 128,-1,25
 490 654 490 654 379 656 c 0,26,27
 269 658 269 658 189.5 716 c 128,-1,28
 110 774 110 774 111 891 c 1,29,-1
 262 891 l 1,30,31
 262 836 262 836 297.5 811 c 128,-1,32
 333 786 333 786 386 785 c 0,33,34
 441 785 441 785 490 813.5 c 128,-1,35
 539 842 539 842 547 902 c 0,36,37
 556 965 556 965 515.5 986.5 c 128,-1,38
 475 1008 475 1008 422 1010 c 2,0,-1
EndSplineSet
EndChar

StartChar: acute
Encoding: 180 180 118
Width: 623
Flags: W
LayerCount: 2
Fore
SplineSet
213 1242 m 1,0,-1
 448 1536 l 1,1,-1
 678 1536 l 1,2,-1
 372 1242 l 1,3,-1
 213 1242 l 1,0,-1
EndSplineSet
EndChar

StartChar: mu
Encoding: 181 181 119
Width: 1126
Flags: W
LayerCount: 2
Fore
SplineSet
457 -23 m 0,0,1
 397 -22 397 -22 341 -5 c 128,-1,2
 285 12 285 12 240 54 c 1,3,-1
 152 -416 l 1,4,-1
 -27 -416 l 1,5,-1
 233 1082 l 1,6,-1
 413 1082 l 1,7,-1
 310 459 l 2,8,9
 302 393 302 393 303.5 317.5 c 128,-1,10
 305 242 305 242 338.5 187.5 c 128,-1,11
 372 133 372 133 460 131 c 0,12,13
 645 125 645 125 740 283 c 1,14,-1
 879 1082 l 1,15,-1
 1060 1082 l 1,16,-1
 872 0 l 1,17,-1
 710 0 l 1,18,-1
 730 115 l 1,19,20
 677 49 677 49 610 13 c 128,-1,21
 543 -23 543 -23 457 -23 c 0,0,1
EndSplineSet
EndChar

StartChar: paragraph
Encoding: 182 182 120
Width: 972
Flags: W
LayerCount: 2
Fore
SplineSet
705 0 m 1,0,-1
 523 0 l 1,1,-1
 614 520 l 1,2,-1
 542 521 l 2,3,4
 339 526 339 526 226 652 c 128,-1,5
 113 778 113 778 134 980 c 0,6,7
 156 1201 156 1201 309.5 1329 c 128,-1,8
 463 1457 463 1457 680 1457 c 2,9,-1
 957 1456 l 1,10,-1
 705 0 l 1,0,-1
EndSplineSet
EndChar

StartChar: periodcentered
Encoding: 183 183 121
Width: 519
Flags: W
LayerCount: 2
Fore
SplineSet
166 726 m 0,0,1
 167 775 167 775 197.5 808 c 128,-1,2
 228 841 228 841 278 842 c 0,3,4
 327 843 327 843 358 812 c 128,-1,5
 389 781 389 781 389 732 c 0,6,7
 388 683 388 683 356.5 651.5 c 128,-1,8
 325 620 325 620 276 619 c 0,9,10
 228 618 228 618 196.5 648 c 128,-1,11
 165 678 165 678 166 726 c 0,0,1
EndSplineSet
EndChar

StartChar: cedilla
Encoding: 184 184 122
Width: 493
GlyphClass: 2
Flags: W
AnchorPoint: "Anchor-11" 26 -440 basemark 0
LayerCount: 2
Fore
SplineSet
38 0 m 1,0,-1
 167 0 l 1,1,-1
 146 -56 l 1,2,3
 274 -84 274 -84 271 -219 c 0,4,5
 269 -306 269 -306 216.5 -352 c 128,-1,6
 164 -398 164 -398 89.5 -416.5 c 128,-1,7
 15 -435 15 -435 -56 -437 c 1,8,-1
 -52 -329 l 1,9,10
 2 -326 2 -326 60.5 -306.5 c 128,-1,11
 119 -287 119 -287 130 -222 c 0,12,13
 139 -163 139 -163 86.5 -151 c 128,-1,14
 34 -139 34 -139 -7 -134 c 1,15,-1
 38 0 l 1,0,-1
EndSplineSet
EndChar

StartChar: onesuperior
Encoding: 185 185 123
Width: 738
Flags: W
LayerCount: 2
Fore
SplineSet
623 1456 m 1,0,-1
 491 667 l 1,1,-1
 338 667 l 1,2,-1
 443 1264 l 1,3,-1
 223 1208 l 1,4,-1
 247 1344 l 1,5,-1
 601 1456 l 1,6,-1
 623 1456 l 1,0,-1
EndSplineSet
EndChar

StartChar: ordmasculine
Encoding: 186 186 124
Width: 904
Flags: W
LayerCount: 2
Fore
SplineSet
198 1043 m 2,0,-1
 205 1123 l 2,1,2
 222 1273 222 1273 323 1377.5 c 128,-1,3
 424 1482 424 1482 582 1478 c 0,4,5
 732 1474 732 1474 807 1370 c 128,-1,6
 882 1266 882 1266 870 1124 c 2,7,-1
 862 1043 l 2,8,9
 845 893 845 893 745.5 789.5 c 128,-1,10
 646 686 646 686 488 690 c 0,11,12
 338 694 338 694 262.5 797 c 128,-1,13
 187 900 187 900 198 1043 c 2,0,-1
367 1124 m 2,14,-1
 358 1041 l 2,15,16
 351 965 351 965 379 898 c 128,-1,17
 407 831 407 831 497 829 c 0,18,19
 590 826 590 826 641 892.5 c 128,-1,20
 692 959 692 959 703 1043 c 2,21,-1
 712 1125 l 2,22,23
 719 1200 719 1200 691 1267.5 c 128,-1,24
 663 1335 663 1335 574 1337 c 0,25,26
 481 1340 481 1340 429.5 1274 c 128,-1,27
 378 1208 378 1208 367 1124 c 2,14,-1
EndSplineSet
EndChar

StartChar: questiondown
Encoding: 191 191 129
Width: 941
Flags: W
LayerCount: 2
Fore
SplineSet
647 1000 m 0,0,1
 647 953 647 953 617.5 922 c 128,-1,2
 588 891 588 891 541 890 c 0,3,4
 495 889 495 889 464.5 918.5 c 128,-1,5
 434 948 434 948 434 994 c 0,6,7
 435 1041 435 1041 465 1071.5 c 128,-1,8
 495 1102 495 1102 541 1103 c 0,9,10
 588 1104 588 1104 618 1075 c 128,-1,11
 648 1046 648 1046 647 1000 c 0,0,1
399 680 m 1,12,-1
 577 681 l 1,13,14
 563 553 563 553 509.5 468.5 c 128,-1,15
 456 384 456 384 363 298 c 0,16,17
 292 232 292 232 226.5 162.5 c 128,-1,18
 161 93 161 93 148 -10 c 0,19,20
 136 -104 136 -104 179 -164 c 128,-1,21
 222 -224 222 -224 321 -226 c 0,22,23
 419 -229 419 -229 485.5 -172 c 128,-1,24
 552 -115 552 -115 571 -21 c 1,25,-1
 751 -20 l 1,26,27
 731 -192 731 -192 605.5 -291 c 128,-1,28
 480 -390 480 -390 309 -387 c 0,29,30
 142 -383 142 -383 44.5 -284.5 c 128,-1,31
 -53 -186 -53 -186 -38 -15 c 0,32,33
 -26 131 -26 131 68.5 237 c 128,-1,34
 163 343 163 343 267 431 c 0,35,36
 324 479 324 479 341.5 562 c 128,-1,37
 359 645 359 645 399 680 c 1,12,-1
EndSplineSet
EndChar

StartChar: AE
Encoding: 198 198 130
Width: 1857
GlyphClass: 2
Flags: W
AnchorPoint: "Anchor-5" 2031 1612 basechar 0
AnchorPoint: "Anchor-2" 2029 1600 basechar 0
AnchorPoint: "Anchor-0" 1085 1612 basechar 0
LayerCount: 2
Fore
SplineSet
1746 152 m 1,0,-1
 1719 0 l 1,1,-1
 861 0 l 1,2,-1
 908 353 l 1,3,-1
 367 353 l 1,4,-1
 107 0 l 1,5,-1
 -126 0 l 1,6,-1
 981 1456 l 1,7,-1
 1912 1456 l 1,8,-1
 1885 1304 l 1,9,-1
 1215 1304 l 1,10,-1
 1152 834 l 1,11,-1
 1726 834 l 1,12,-1
 1699 682 l 1,13,-1
 1133 682 l 1,14,-1
 1062 152 l 1,15,-1
 1746 152 l 1,0,-1
496 528 m 1,16,-1
 931 528 l 1,17,-1
 1028 1249 l 1,18,-1
 496 528 l 1,16,-1
EndSplineSet
Substitution2: "'c2sc' Capitals to Small Capitals lookup 0 subtable" AE.smcp
Position2: "'cpsp' Capital Spacing lookup 0 subtable" dx=36 dy=0 dh=72 dv=0
EndChar

StartChar: multiply
Encoding: 215 215 131
Width: 1060
Flags: W
LayerCount: 2
Fore
SplineSet
913 321 m 1,0,-1
 786 205 l 1,1,-1
 522 543 l 1,2,-1
 142 206 l 1,3,-1
 40 338 l 1,4,-1
 420 675 l 1,5,-1
 159 1009 l 1,6,-1
 288 1124 l 1,7,-1
 548 790 l 1,8,-1
 925 1124 l 1,9,-1
 1026 991 l 1,10,-1
 650 658 l 1,11,-1
 913 321 l 1,0,-1
EndSplineSet
EndChar

StartChar: Oslash
Encoding: 216 216 132
Width: 1367
GlyphClass: 2
Flags: W
AnchorPoint: "Anchor-5" 1552 1674 basechar 0
AnchorPoint: "Anchor-2" 1539 1600 basechar 0
AnchorPoint: "Anchor-0" 879 1674 basechar 0
LayerCount: 2
Fore
SplineSet
590 -21 m 0,0,1
 515 -19 515 -19 443 1 c 128,-1,2
 371 21 371 21 309 63 c 1,3,-1
 183 -93 l 1,4,-1
 31 -92 l 1,5,-1
 221 141 l 1,6,7
 146 263 146 263 128.5 402.5 c 128,-1,8
 111 542 111 542 130 682 c 2,9,-1
 143 773 l 2,10,11
 169 952 169 952 253 1114 c 128,-1,12
 337 1276 337 1276 479 1377.5 c 128,-1,13
 621 1479 621 1479 820 1476 c 0,14,15
 912 1475 912 1475 999 1445.5 c 128,-1,16
 1086 1416 1086 1416 1154 1351 c 1,17,-1
 1286 1516 l 1,18,-1
 1435 1515 l 1,19,-1
 1228 1260 l 1,20,21
 1277 1145 1277 1145 1286.5 1021 c 128,-1,22
 1296 897 1296 897 1280 774 c 2,23,-1
 1267 682 l 2,24,25
 1241 503 1241 503 1157.5 340.5 c 128,-1,26
 1074 178 1074 178 932.5 77 c 128,-1,27
 791 -24 791 -24 590 -21 c 0,0,1
316 681 m 2,28,29
 303 587 303 587 302.5 487.5 c 128,-1,30
 302 388 302 388 335 297 c 1,31,-1
 1045 1205 l 1,32,33
 1004 1262 1004 1262 942.5 1287 c 128,-1,34
 881 1312 881 1312 812 1314 c 0,35,36
 662 1318 662 1318 562.5 1236.5 c 128,-1,37
 463 1155 463 1155 406.5 1030 c 128,-1,38
 350 905 350 905 330 776 c 2,39,-1
 316 681 l 2,28,29
1094 776 m 2,40,41
 1106 854 1106 854 1110 933 c 128,-1,42
 1114 1012 1114 1012 1102 1090 c 1,43,-1
 412 203 l 1,44,45
 452 171 452 171 500 156.5 c 128,-1,46
 548 142 548 142 599 141 c 0,47,48
 752 138 752 138 851.5 219 c 128,-1,49
 951 300 951 300 1006 426 c 128,-1,50
 1061 552 1061 552 1080 683 c 2,51,-1
 1094 776 l 2,40,41
EndSplineSet
Substitution2: "'c2sc' Capitals to Small Capitals lookup 0 subtable" Oslash.smcp
Position2: "'cpsp' Capital Spacing lookup 0 subtable" dx=36 dy=0 dh=72 dv=0
EndChar

StartChar: Thorn
Encoding: 222 222 133
Width: 1174
Flags: W
LayerCount: 2
Fore
SplineSet
574 313 m 2,0,-1
 293 314 l 1,1,-1
 238 0 l 1,2,-1
 57 0 l 1,3,-1
 310 1456 l 1,4,-1
 491 1456 l 1,5,-1
 440 1163 l 1,6,-1
 697 1162 l 1,7,8
 883 1157 883 1157 1003.5 1049 c 128,-1,9
 1124 941 1124 941 1107 746 c 0,10,11
 1089 532 1089 532 932 422.5 c 128,-1,12
 775 313 775 313 574 313 c 2,0,-1
694 1011 m 2,13,-1
 414 1012 l 1,14,-1
 319 465 l 1,15,-1
 577 464 l 2,16,17
 708 465 708 465 808.5 537 c 128,-1,18
 909 609 909 609 927 744 c 0,19,20
 942 864 942 864 877 935.5 c 128,-1,21
 812 1007 812 1007 694 1011 c 2,13,-1
EndSplineSet
Substitution2: "'c2sc' Capitals to Small Capitals lookup 0 subtable" Thorn.smcp
Position2: "'cpsp' Capital Spacing lookup 0 subtable" dx=36 dy=0 dh=72 dv=0
EndChar

StartChar: germandbls
Encoding: 223 223 134
Width: 1181
Flags: W
LayerCount: 2
Fore
SplineSet
400 1113 m 2,0,-1
 211 0 l 1,1,-1
 31 0 l 1,2,-1
 221 1112 l 1,3,4
 246 1295 246 1295 355 1427 c 128,-1,5
 464 1559 464 1559 664 1555 c 0,6,7
 813 1551 813 1551 905 1466 c 128,-1,8
 997 1381 997 1381 984 1226 c 0,9,10
 977 1142 977 1142 937 1077.5 c 128,-1,11
 897 1013 897 1013 855 950.5 c 128,-1,12
 813 888 813 888 800 811 c 0,13,14
 788 740 788 740 825 684.5 c 128,-1,15
 862 629 862 629 915.5 576.5 c 128,-1,16
 969 524 969 524 1010 464 c 128,-1,17
 1051 404 1051 404 1046 326 c 0,18,19
 1037 154 1037 154 915.5 65 c 128,-1,20
 794 -24 794 -24 631 -22 c 0,21,22
 559 -20 559 -20 482.5 -3.5 c 128,-1,23
 406 13 406 13 343 51 c 1,24,-1
 398 207 l 1,25,26
 445 174 445 174 502 152.5 c 128,-1,27
 559 131 559 131 618 130 c 0,28,29
 708 129 708 129 781.5 175 c 128,-1,30
 855 221 855 221 868 316 c 0,31,32
 878 390 878 390 839.5 446 c 128,-1,33
 801 502 801 502 747 555 c 128,-1,34
 693 608 693 608 653 669 c 128,-1,35
 613 730 613 730 619 812 c 0,36,37
 626 890 626 890 668.5 951.5 c 128,-1,38
 711 1013 711 1013 755 1073.5 c 128,-1,39
 799 1134 799 1134 809 1211 c 0,40,41
 819 1289 819 1289 783 1346 c 128,-1,42
 747 1403 747 1403 663 1406 c 0,43,44
 535 1411 535 1411 475.5 1317 c 128,-1,45
 416 1223 416 1223 400 1113 c 2,0,-1
EndSplineSet
Substitution2: "'smcp' Lowercase to Small Capitals lookup 1 subtable" Germandbls.smcp
EndChar

StartChar: ae
Encoding: 230 230 135
Width: 1678
GlyphClass: 2
Flags: W
AnchorPoint: "Anchor-5" 1797 1291 basechar 0
AnchorPoint: "Anchor-2" 1850 1600 basechar 0
AnchorPoint: "Anchor-0" 952 1291 basechar 0
LayerCount: 2
Fore
SplineSet
1512 101 m 1,0,1
 1436 35 1436 35 1333 6.5 c 128,-1,2
 1230 -22 1230 -22 1132 -21 c 0,3,4
 1026 -20 1026 -20 928 22.5 c 128,-1,5
 830 65 830 65 774 159 c 1,6,7
 687 66 687 66 571.5 21.5 c 128,-1,8
 456 -23 456 -23 329 -21 c 0,9,10
 186 -18 186 -18 101 66 c 128,-1,11
 16 150 16 150 25 296 c 0,12,13
 33 425 33 425 105.5 499.5 c 128,-1,14
 178 574 178 574 285.5 605.5 c 128,-1,15
 393 637 393 637 506 637 c 2,16,-1
 731 636 l 1,17,-1
 743 721 l 2,18,19
 754 811 754 811 717 879 c 128,-1,20
 680 947 680 947 579 950 c 0,21,22
 487 953 487 953 410 904 c 128,-1,23
 333 855 333 855 315 761 c 1,24,-1
 138 778 l 1,25,26
 155 948 155 948 295.5 1027 c 128,-1,27
 436 1106 436 1106 591 1103 c 0,28,29
 683 1101 683 1101 770 1064 c 128,-1,30
 857 1027 857 1027 897 937 c 1,31,32
 969 1012 969 1012 1057.5 1058.5 c 128,-1,33
 1146 1105 1146 1105 1254 1102 c 0,34,35
 1463 1097 1463 1097 1549 952.5 c 128,-1,36
 1635 808 1635 808 1612 616 c 1,37,-1
 1594 498 l 1,38,-1
 892 498 l 1,39,40
 875 363 875 363 928.5 249.5 c 128,-1,41
 982 136 982 136 1138 133 c 0,42,43
 1229 130 1229 130 1307 161 c 128,-1,44
 1385 192 1385 192 1460 238 c 1,45,-1
 1512 101 l 1,0,1
1244 952 m 0,46,47
 1106 956 1106 956 1027.5 855 c 128,-1,48
 949 754 949 754 911 640 c 1,49,-1
 1432 640 l 1,50,-1
 1438 672 l 2,51,52
 1455 782 1455 782 1410 865 c 128,-1,53
 1365 948 1365 948 1244 952 c 0,46,47
371 129 m 0,54,55
 453 128 453 128 528.5 167 c 128,-1,56
 604 206 604 206 665 257 c 1,57,-1
 708 496 l 1,58,-1
 506 497 l 2,59,60
 410 496 410 496 315.5 448.5 c 128,-1,61
 221 401 221 401 207 292 c 0,62,63
 197 212 197 212 247 171.5 c 128,-1,64
 297 131 297 131 371 129 c 0,54,55
EndSplineSet
Substitution2: "'unic' Unicase lookup 2 subtable" AE
Substitution2: "'smcp' Lowercase to Small Capitals lookup 1 subtable" AE.smcp
EndChar

StartChar: eth
Encoding: 240 240 136
Width: 1165
Flags: W
LayerCount: 2
Fore
SplineSet
1029 535 m 2,0,1
 1009 397 1009 397 941.5 267.5 c 128,-1,2
 874 138 874 138 761 56.5 c 128,-1,3
 648 -25 648 -25 492 -21 c 0,4,5
 294 -16 294 -16 188 127.5 c 128,-1,6
 82 271 82 271 100 460 c 0,7,8
 113 595 113 595 177.5 715 c 128,-1,9
 242 835 242 835 351 908.5 c 128,-1,10
 460 982 460 982 606 979 c 0,11,12
 760 975 760 975 870 864 c 1,13,14
 867 1048 867 1048 758 1198 c 1,15,-1
 522 1050 l 1,16,-1
 464 1159 l 1,17,-1
 670 1284 l 1,18,19
 610 1335 610 1335 538.5 1367.5 c 128,-1,20
 467 1400 467 1400 392 1421 c 1,21,-1
 462 1580 l 1,22,23
 564 1554 564 1554 658 1506.5 c 128,-1,24
 752 1459 752 1459 831 1389 c 1,25,-1
 1039 1517 l 1,26,-1
 1097 1409 l 1,27,-1
 916 1300 l 1,28,29
 1008 1146 1008 1146 1037.5 978.5 c 128,-1,30
 1067 811 1067 811 1043 633 c 2,31,-1
 1029 535 l 2,0,1
282 460 m 0,32,33
 269 345 269 345 322.5 240 c 128,-1,34
 376 135 376 135 506 130 c 0,35,36
 613 126 613 126 683.5 191 c 128,-1,37
 754 256 754 256 793.5 351.5 c 128,-1,38
 833 447 833 447 846 535 c 2,39,-1
 859 636 l 2,40,41
 862 661 862 661 866 698 c 1,42,43
 835 765 835 765 773 795 c 128,-1,44
 711 825 711 825 640 827 c 0,45,46
 480 831 480 831 389 718.5 c 128,-1,47
 298 606 298 606 282 460 c 0,32,33
EndSplineSet
Substitution2: "'unic' Unicase lookup 2 subtable" Eth
Substitution2: "'smcp' Lowercase to Small Capitals lookup 1 subtable" Eth.smcp
EndChar

StartChar: divide
Encoding: 247 247 137
Width: 1135
Flags: W
LayerCount: 2
Fore
SplineSet
534 1095 m 0,0,1
 535 1144 535 1144 566 1177 c 128,-1,2
 597 1210 597 1210 646 1211 c 256,3,4
 695 1212 695 1212 726.5 1181 c 128,-1,5
 758 1150 758 1150 757 1101 c 256,6,7
 756 1052 756 1052 724.5 1020.5 c 128,-1,8
 693 989 693 989 645 988 c 256,9,10
 597 987 597 987 565.5 1017 c 128,-1,11
 534 1047 534 1047 534 1095 c 0,0,1
1070 784 m 1,12,-1
 1038 600 l 1,13,-1
 68 600 l 1,14,-1
 101 784 l 1,15,-1
 1070 784 l 1,12,-1
393 279 m 0,16,17
 394 328 394 328 424.5 361 c 128,-1,18
 455 394 455 394 505 395 c 0,19,20
 554 396 554 396 585.5 365 c 128,-1,21
 617 334 617 334 616 285 c 256,22,23
 615 236 615 236 583.5 204 c 128,-1,24
 552 172 552 172 503 171 c 0,25,26
 455 170 455 170 423.5 200.5 c 128,-1,27
 392 231 392 231 393 279 c 0,16,17
EndSplineSet
EndChar

StartChar: oslash
Encoding: 248 248 138
Width: 1126
GlyphClass: 2
Flags: W
AnchorPoint: "Anchor-5" 1245 1289 basechar 0
AnchorPoint: "Anchor-2" 1298 1600 basechar 0
AnchorPoint: "Anchor-0" 639 1289 basechar 0
LayerCount: 2
Fore
SplineSet
473 -22 m 0,0,1
 379 -20 379 -20 290 16 c 1,2,-1
 187 -135 l 1,3,-1
 57 -134 l 1,4,-1
 199 72 l 1,5,6
 113 164 113 164 88.5 284.5 c 128,-1,7
 64 405 64 405 77 526 c 2,8,-1
 80 550 l 2,9,10
 98 697 98 697 170 824 c 128,-1,11
 242 951 242 951 360.5 1028.5 c 128,-1,12
 479 1106 479 1106 637 1104 c 0,13,14
 740 1102 740 1102 832 1060 c 1,15,-1
 934 1209 l 1,16,-1
 1065 1208 l 1,17,-1
 922 1001 l 1,18,19
 1001 908 1001 908 1024 790.5 c 128,-1,20
 1047 673 1047 673 1034 554 c 2,21,-1
 1031 531 l 2,22,23
 1013 384 1013 384 941 257 c 128,-1,24
 869 130 869 130 750 53 c 128,-1,25
 631 -24 631 -24 473 -22 c 0,0,1
256 527 m 2,26,27
 246 451 246 451 249 372 c 128,-1,28
 252 293 252 293 290 224 c 1,29,-1
 749 922 l 1,30,31
 696 952 696 952 631 953 c 0,32,33
 519 956 519 956 442 895 c 128,-1,34
 365 834 365 834 320 740 c 128,-1,35
 275 646 275 646 260 550 c 2,36,-1
 256 527 l 2,26,27
855 554 m 2,37,38
 865 627 865 627 862 702 c 128,-1,39
 859 777 859 777 828 845 c 1,40,-1
 373 153 l 1,41,42
 423 130 423 130 480 129 c 0,43,44
 592 126 592 126 669.5 186.5 c 128,-1,45
 747 247 747 247 792 341 c 128,-1,46
 837 435 837 435 852 531 c 2,47,-1
 855 554 l 2,37,38
EndSplineSet
Substitution2: "'unic' Unicase lookup 2 subtable" Oslash
Substitution2: "'smcp' Lowercase to Small Capitals lookup 1 subtable" Oslash.smcp
EndChar

StartChar: thorn
Encoding: 254 254 139
Width: 1145
Flags: W
LayerCount: 2
Fore
SplineSet
533 -21 m 0,0,1
 449 -19 449 -19 374 11 c 128,-1,2
 299 41 299 41 246 106 c 1,3,-1
 149 -416 l 1,4,-1
 -33 -416 l 1,5,-1
 306 1536 l 1,6,-1
 487 1536 l 1,7,-1
 381 971 l 1,8,9
 512 1105 512 1105 692 1101 c 0,10,11
 840 1098 840 1098 916 1011.5 c 128,-1,12
 992 925 992 925 1014 799 c 128,-1,13
 1036 673 1036 673 1023 552 c 2,14,-1
 1020 530 l 2,15,16
 1003 399 1003 399 946 270.5 c 128,-1,17
 889 142 889 142 786.5 59 c 128,-1,18
 684 -24 684 -24 533 -21 c 0,0,1
631 947 m 0,19,20
 544 949 544 949 477 907 c 128,-1,21
 410 865 410 865 359 798 c 1,22,-1
 269 278 l 1,23,24
 331 136 331 136 488 131 c 0,25,26
 598 128 598 128 671 189 c 128,-1,27
 744 250 744 250 784.5 343.5 c 128,-1,28
 825 437 825 437 838 532 c 2,29,-1
 840 552 l 2,30,31
 850 632 850 632 840 723 c 128,-1,32
 830 814 830 814 782.5 879 c 128,-1,33
 735 944 735 944 631 947 c 0,19,20
EndSplineSet
Substitution2: "'unic' Unicase lookup 2 subtable" Thorn
Substitution2: "'smcp' Lowercase to Small Capitals lookup 1 subtable" Thorn.smcp
EndChar

StartChar: dcroat
Encoding: 273 273 140
Width: 1187
GlyphClass: 2
Flags: W
AnchorPoint: "Anchor-8" 974 1310 basechar 0
AnchorPoint: "Anchor-5" 1361 1611 basechar 0
AnchorPoint: "Anchor-3" 946 -407 basechar 0
AnchorPoint: "Anchor-2" 1293 1600 basechar 0
AnchorPoint: "Anchor-1" 494 0 basechar 0
AnchorPoint: "Anchor-0" 707 1611 basechar 0
LayerCount: 2
Fore
SplineSet
710 0 m 1,0,-1
 729 116 l 1,1,2
 598 -24 598 -24 413 -20 c 0,3,4
 271 -16 271 -16 194 71.5 c 128,-1,5
 117 159 117 159 92 284 c 128,-1,6
 67 409 67 409 79 526 c 2,7,-1
 82 548 l 2,8,9
 98 681 98 681 157 810 c 128,-1,10
 216 939 216 939 320.5 1022.5 c 128,-1,11
 425 1106 425 1106 577 1102 c 0,12,13
 659 1101 659 1101 731.5 1070 c 128,-1,14
 804 1039 804 1039 855 973 c 1,15,-1
 907 1233 l 1,16,-1
 651 1233 l 1,17,-1
 678 1385 l 1,18,-1
 933 1385 l 1,19,-1
 959 1536 l 1,20,-1
 1141 1536 l 1,21,-1
 1114 1385 l 1,22,-1
 1297 1385 l 1,23,-1
 1270 1233 l 1,24,-1
 1088 1233 l 1,25,-1
 875 0 l 1,26,-1
 710 0 l 1,0,-1
262 527 m 2,27,28
 253 448 253 448 262 358 c 128,-1,29
 271 268 271 268 317.5 204 c 128,-1,30
 364 140 364 140 467 137 c 0,31,32
 557 134 557 134 625 178.5 c 128,-1,33
 693 223 693 223 743 293 c 1,34,-1
 830 794 l 1,35,36
 770 942 770 942 613 947 c 0,37,38
 503 951 503 951 430.5 890 c 128,-1,39
 358 829 358 829 318 735.5 c 128,-1,40
 278 642 278 642 265 548 c 2,41,-1
 262 527 l 2,27,28
EndSplineSet
Substitution2: "'unic' Unicase lookup 2 subtable" Dcroat
Substitution2: "'smcp' Lowercase to Small Capitals lookup 1 subtable" Dcroat.smcp
EndChar

StartChar: Hbar
Encoding: 294 294 141
Width: 1392
GlyphClass: 2
Flags: W
AnchorPoint: "Anchor-5" 1566 1612 basechar 0
AnchorPoint: "Anchor-1" 600 10 basechar 0
AnchorPoint: "Anchor-0" 877 1612 basechar 0
LayerCount: 2
Fore
SplineSet
953 0 m 1,0,-1
 1070 673 l 1,1,-1
 359 673 l 1,2,-1
 242 0 l 1,3,-1
 54 0 l 1,4,-1
 232 1024 l 1,5,-1
 102 1024 l 1,6,-1
 127 1167 l 1,7,-1
 257 1167 l 1,8,-1
 307 1456 l 1,9,-1
 495 1456 l 1,10,-1
 444 1167 l 1,11,-1
 1155 1167 l 1,12,-1
 1206 1456 l 1,13,-1
 1394 1456 l 1,14,-1
 1344 1167 l 1,15,-1
 1474 1167 l 1,16,-1
 1449 1024 l 1,17,-1
 1319 1024 l 1,18,-1
 1141 0 l 1,19,-1
 953 0 l 1,0,-1
386 830 m 1,20,-1
 1096 830 l 1,21,-1
 1131 1024 l 1,22,-1
 420 1024 l 1,23,-1
 386 830 l 1,20,-1
EndSplineSet
Substitution2: "'c2sc' Capitals to Small Capitals lookup 0 subtable" Hbar.smcp
Position2: "'cpsp' Capital Spacing lookup 0 subtable" dx=36 dy=0 dh=72 dv=0
EndChar

StartChar: dotlessi
Encoding: 305 305 142
Width: 492
GlyphClass: 2
Flags: W
AnchorPoint: "Anchor-5" 610 1288 basechar 0
AnchorPoint: "Anchor-4" 278 654 basechar 0
AnchorPoint: "Anchor-1" 139 10 basechar 0
AnchorPoint: "Anchor-0" 363 1288 basechar 0
LayerCount: 2
Fore
SplineSet
414 1082 m 1,0,-1
 226 0 l 1,1,-1
 46 0 l 1,2,-1
 234 1082 l 1,3,-1
 414 1082 l 1,0,-1
EndSplineSet
Substitution2: "'smcp' Lowercase to Small Capitals lookup 1 subtable" I.smcp
EndChar

StartChar: kgreenlandic
Encoding: 312 312 143
Width: 1106
GlyphClass: 2
Flags: W
AnchorPoint: "Anchor-5" 1225 1290 basechar 0
AnchorPoint: "Anchor-1" 470 10 basechar 0
AnchorPoint: "Anchor-0" 691 1290 basechar 0
LayerCount: 2
Fore
SplineSet
731 0 m 1,0,-1
 417 462 l 1,1,-1
 306 462 l 1,2,-1
 226 0 l 1,3,-1
 45 0 l 1,4,-1
 233 1082 l 1,5,-1
 414 1082 l 1,6,-1
 333 624 l 1,7,-1
 414 624 l 1,8,-1
 878 1082 l 1,9,-1
 1111 1082 l 1,10,-1
 572 549 l 1,11,-1
 944 0 l 1,12,-1
 731 0 l 1,0,-1
EndSplineSet
EndChar

StartChar: Lslash
Encoding: 321 321 144
Width: 1070
GlyphClass: 2
Flags: W
AnchorPoint: "Anchor-5" 1242 1596 basechar 0
AnchorPoint: "Anchor-1" 497 10 basechar 0
AnchorPoint: "Anchor-0" 426 1596 basechar 0
LayerCount: 2
Fore
SplineSet
945 157 m 1,0,-1
 917 0 l 1,1,-1
 59 0 l 1,2,-1
 173 654 l 1,3,-1
 35 613 l 1,4,-1
 59 745 l 1,5,-1
 196 787 l 1,6,-1
 312 1456 l 1,7,-1
 500 1456 l 1,8,-1
 394 849 l 1,9,-1
 664 931 l 1,10,-1
 641 799 l 1,11,-1
 371 716 l 1,12,-1
 274 157 l 1,13,-1
 945 157 l 1,0,-1
EndSplineSet
Substitution2: "'c2sc' Capitals to Small Capitals lookup 0 subtable" Lslash.smcp
Position2: "'cpsp' Capital Spacing lookup 0 subtable" dx=36 dy=0 dh=72 dv=0
EndChar

StartChar: lslash
Encoding: 322 322 145
Width: 537
GlyphClass: 2
Flags: W
AnchorPoint: "Anchor-5" 726 1697 basechar 0
AnchorPoint: "Anchor-1" 169 10 basechar 0
AnchorPoint: "Anchor-0" 461 1697 basechar 0
LayerCount: 2
Fore
SplineSet
543 804 m 1,0,-1
 379 743 l 1,1,-1
 250 0 l 1,2,-1
 69 0 l 1,3,-1
 186 671 l 1,4,-1
 36 617 l 1,5,-1
 59 747 l 1,6,-1
 208 802 l 1,7,-1
 336 1536 l 1,8,-1
 516 1536 l 1,9,-1
 401 874 l 1,10,-1
 567 934 l 1,11,-1
 543 804 l 1,0,-1
EndSplineSet
Substitution2: "'smcp' Lowercase to Small Capitals lookup 1 subtable" Lslash.smcp
EndChar

StartChar: Eng
Encoding: 330 330 146
Width: 1376
GlyphClass: 2
Flags: W
AnchorPoint: "Anchor-5" 1549 1601 basechar 0
AnchorPoint: "Anchor-1" 596 10 basechar 0
AnchorPoint: "Anchor-0" 877 1601 basechar 0
LayerCount: 2
Fore
SplineSet
52 0 m 1,0,-1
 304 1456 l 1,1,-1
 486 1456 l 1,2,-1
 989 319 l 1,3,-1
 1187 1456 l 1,4,-1
 1376 1456 l 1,5,-1
 1112 -84 l 1,6,7
 1092 -239 1092 -239 1000.5 -340 c 128,-1,8
 909 -441 909 -441 744 -439 c 0,9,10
 690 -439 690 -439 624 -420 c 1,11,-1
 654 -267 l 1,12,13
 678 -274 678 -274 702 -278.5 c 128,-1,14
 726 -283 726 -283 751 -283 c 0,15,16
 834 -284 834 -284 873 -219.5 c 128,-1,17
 912 -155 912 -155 923 -84 c 2,18,-1
 938 0 l 1,19,-1
 438 1137 l 1,20,-1
 240 0 l 1,21,-1
 52 0 l 1,0,-1
EndSplineSet
Substitution2: "'c2sc' Capitals to Small Capitals lookup 0 subtable" Eng.smcp
Position2: "'cpsp' Capital Spacing lookup 0 subtable" dx=36 dy=0 dh=72 dv=0
EndChar

StartChar: eng
Encoding: 331 331 147
Width: 1126
GlyphClass: 2
Flags: W
AnchorPoint: "Anchor-7" 616 -304 basechar 0
AnchorPoint: "Anchor-5" 1245 1290 basechar 0
AnchorPoint: "Anchor-1" 444 10 basechar 0
AnchorPoint: "Anchor-0" 675 1290 basechar 0
LayerCount: 2
Fore
SplineSet
865 -89 m 1,0,1
 845 -242 845 -242 754 -341.5 c 128,-1,2
 663 -441 663 -441 501 -439 c 0,3,4
 447 -439 447 -439 382 -420 c 1,5,-1
 412 -264 l 1,6,7
 462 -279 462 -279 511 -279 c 0,8,9
 593 -279 593 -279 632.5 -220 c 128,-1,10
 672 -161 672 -161 683 -89 c 2,11,-1
 808 680 l 1,12,13
 821 787 821 787 788 865.5 c 128,-1,14
 755 944 755 944 634 947 c 0,15,16
 549 949 549 949 481 913.5 c 128,-1,17
 413 878 413 878 360 813 c 1,18,-1
 218 0 l 1,19,-1
 37 0 l 1,20,-1
 225 1082 l 1,21,-1
 386 1083 l 1,22,-1
 364 929 l 1,23,24
 426 1009 426 1009 508 1056.5 c 128,-1,25
 590 1104 590 1104 694 1102 c 0,26,27
 878 1099 878 1099 942.5 972.5 c 128,-1,28
 1007 846 1007 846 990 682 c 1,29,-1
 865 -89 l 1,0,1
EndSplineSet
Substitution2: "'unic' Unicase lookup 2 subtable" Eng
Substitution2: "'smcp' Lowercase to Small Capitals lookup 1 subtable" Eng.smcp
EndChar

StartChar: OE
Encoding: 338 338 148
Width: 1894
GlyphClass: 2
Flags: W
AnchorPoint: "Anchor-5" 2067 1603 basechar 0
AnchorPoint: "Anchor-3" 1720 -407 basechar 0
AnchorPoint: "Anchor-2" 2067 1600 basechar 0
AnchorPoint: "Anchor-1" 820 0 basechar 0
AnchorPoint: "Anchor-0" 1097 1603 basechar 0
LayerCount: 2
Fore
SplineSet
1671 157 m 1,0,-1
 1643 0 l 1,1,-1
 832 0 l 1,2,3
 760 -4 760 -4 689 -12 c 128,-1,4
 618 -20 618 -20 546 -19 c 0,5,6
 381 -15 381 -15 274.5 69.5 c 128,-1,7
 168 154 168 154 123.5 288.5 c 128,-1,8
 79 423 79 423 99 576 c 1,9,-1
 147 880 l 2,10,11
 172 1044 172 1044 254.5 1180.5 c 128,-1,12
 337 1317 337 1317 469.5 1398 c 128,-1,13
 602 1479 602 1479 777 1478 c 0,14,15
 849 1478 849 1478 919.5 1469.5 c 128,-1,16
 990 1461 990 1461 1061 1456 c 1,17,-1
 1886 1456 l 1,18,-1
 1858 1298 l 1,19,-1
 1158 1298 l 1,20,-1
 1077 830 l 1,21,-1
 1688 830 l 1,22,-1
 1660 673 l 1,23,-1
 1050 673 l 1,24,-1
 960 157 l 1,25,-1
 1671 157 l 1,0,-1
280 575 m 2,26,27
 266 470 266 470 283.5 370 c 128,-1,28
 301 270 301 270 364.5 203.5 c 128,-1,29
 428 137 428 137 552 134 c 0,30,31
 605 132 605 132 658.5 135.5 c 128,-1,32
 712 139 712 139 765 145 c 1,33,-1
 974 1312 l 1,34,35
 924 1319 924 1319 873.5 1323.5 c 128,-1,36
 823 1328 823 1328 772 1328 c 0,37,38
 575 1329 575 1329 466 1195.5 c 128,-1,39
 357 1062 357 1062 328 882 c 2,40,-1
 280 575 l 2,26,27
EndSplineSet
Substitution2: "'c2sc' Capitals to Small Capitals lookup 0 subtable" OE.smcp
Position2: "'cpsp' Capital Spacing lookup 0 subtable" dx=36 dy=0 dh=72 dv=0
EndChar

StartChar: oe
Encoding: 339 339 149
Width: 1804
GlyphClass: 2
Flags: W
AnchorPoint: "Anchor-5" 1923 1290 basechar 0
AnchorPoint: "Anchor-3" 1630 -407 basechar 0
AnchorPoint: "Anchor-2" 1976 1600 basechar 0
AnchorPoint: "Anchor-1" 812 -1 basechar 0
AnchorPoint: "Anchor-0" 1035 1290 basechar 0
LayerCount: 2
Fore
SplineSet
1627 111 m 1,0,1
 1552 38 1552 38 1449 8 c 128,-1,2
 1346 -22 1346 -22 1243 -20 c 0,3,4
 1131 -18 1131 -18 1033 34.5 c 128,-1,5
 935 87 935 87 887 191 c 1,6,7
 808 92 808 92 704 34 c 128,-1,8
 600 -24 600 -24 471 -21 c 0,9,10
 320 -18 320 -18 229 63 c 128,-1,11
 138 144 138 144 103 268.5 c 128,-1,12
 68 393 68 393 82 527 c 2,13,-1
 84 550 l 1,14,15
 103 695 103 695 172.5 822.5 c 128,-1,16
 242 950 242 950 358.5 1028 c 128,-1,17
 475 1106 475 1106 632 1103 c 0,18,19
 745 1100 745 1100 842.5 1046 c 128,-1,20
 940 992 940 992 987 886 c 1,21,22
 1061 979 1061 979 1159.5 1042.5 c 128,-1,23
 1258 1106 1258 1106 1381 1103 c 0,24,25
 1589 1097 1589 1097 1676 954 c 128,-1,26
 1763 811 1763 811 1739 620 c 1,27,-1
 1720 498 l 1,28,-1
 1029 498 l 1,29,30
 1019 417 1019 417 1034 333.5 c 128,-1,31
 1049 250 1049 250 1100 193 c 128,-1,32
 1151 136 1151 136 1250 133 c 0,33,34
 1338 130 1338 130 1417 158 c 128,-1,35
 1496 186 1496 186 1566 238 c 1,36,-1
 1627 111 l 1,0,1
1371 951 m 0,37,38
 1242 955 1242 955 1165.5 854 c 128,-1,39
 1089 753 1089 753 1051 649 c 1,40,-1
 1561 648 l 1,41,-1
 1566 676 l 2,42,43
 1583 782 1583 782 1535 865 c 128,-1,44
 1487 948 1487 948 1371 951 c 0,37,38
266 545 m 2,45,-1
 263 522 l 2,46,47
 254 439 254 439 265.5 349.5 c 128,-1,48
 277 260 277 260 327 196.5 c 128,-1,49
 377 133 377 133 481 130 c 0,50,51
 592 126 592 126 666.5 187 c 128,-1,52
 741 248 741 248 783.5 342 c 128,-1,53
 826 436 826 436 839 531 c 1,54,-1
 841 554 l 2,55,56
 851 637 851 637 838.5 728 c 128,-1,57
 826 819 826 819 776 883 c 128,-1,58
 726 947 726 947 621 951 c 0,59,60
 510 954 510 954 436 891.5 c 128,-1,61
 362 829 362 829 320.5 734 c 128,-1,62
 279 639 279 639 266 545 c 2,45,-1
EndSplineSet
Substitution2: "'unic' Unicase lookup 2 subtable" OE
Substitution2: "'smcp' Lowercase to Small Capitals lookup 1 subtable" OE.smcp
EndChar

StartChar: longs
Encoding: 383 383 150
Width: 493
GlyphClass: 2
Flags: W
AnchorPoint: "Anchor-5" 692 1754 basechar 0
AnchorPoint: "Anchor-1" 138 10 basechar 0
AnchorPoint: "Anchor-0" 614 1754 basechar 0
LayerCount: 2
Fore
SplineSet
231 0 m 1,0,-1
 51 0 l 1,1,-1
 254 1196 l 1,2,3
 274 1354 274 1354 368.5 1458 c 128,-1,4
 463 1562 463 1562 632 1560 c 0,5,6
 669 1559 669 1559 705.5 1552.5 c 128,-1,7
 742 1546 742 1546 778 1538 c 1,8,-1
 744 1395 l 1,9,10
 696 1408 696 1408 655 1409 c 0,11,12
 559 1410 559 1410 505 1347.5 c 128,-1,13
 451 1285 451 1285 436 1196 c 2,14,-1
 231 0 l 1,0,-1
EndSplineSet
EndChar

StartChar: Bhook
Encoding: 385 385 152
Width: 1436
Flags: W
LayerCount: 2
Fore
SplineSet
123 1169 m 0,0,1
 134 1328 134 1328 246 1392.5 c 128,-1,2
 358 1457 358 1457 502 1456 c 1,3,-1
 502 1457 l 1,4,-1
 961 1455 l 2,5,6
 1142 1452 1142 1452 1263 1363 c 128,-1,7
 1384 1274 1384 1274 1368 1076 c 0,8,9
 1358 958 1358 958 1283 882.5 c 128,-1,10
 1208 807 1208 807 1106 762 c 1,11,12
 1210 723 1210 723 1254 628 c 128,-1,13
 1298 533 1298 533 1290 428 c 0,14,15
 1274 212 1274 212 1120.5 105 c 128,-1,16
 967 -2 967 -2 765 0 c 2,17,-1
 258 0 l 1,18,-1
 484 1301 l 1,19,20
 399 1297 399 1297 340.5 1256.5 c 128,-1,21
 282 1216 282 1216 272 1125 c 0,22,23
 270 1108 270 1108 271.5 1091 c 128,-1,24
 273 1074 273 1074 274 1057 c 1,25,-1
 130 1056 l 1,26,27
 119 1120 119 1120 123 1169 c 0,0,1
671 1298 m 1,28,-1
 591 836 l 1,29,-1
 862 835 l 2,30,31
 977 835 977 835 1070.5 895.5 c 128,-1,32
 1164 956 1164 956 1179 1079 c 0,33,34
 1193 1197 1193 1197 1129 1246 c 128,-1,35
 1065 1295 1065 1295 957 1297 c 2,36,-1
 671 1298 l 1,28,-1
1105 426 m 0,37,38
 1135 672 1135 672 891 680 c 1,39,-1
 564 681 l 1,40,-1
 473 157 l 1,41,-1
 769 156 l 2,42,43
 897 156 897 156 993 225 c 128,-1,44
 1089 294 1089 294 1105 426 c 0,37,38
EndSplineSet
EndChar

StartChar: btopbar
Encoding: 387 387 154
Width: 1116
Flags: W
LayerCount: 2
Fore
SplineSet
31 0 m 1,0,-1
 298 1536 l 1,1,-1
 978 1536 l 1,2,-1
 951 1384 l 1,3,-1
 453 1384 l 1,4,-1
 372 964 l 1,5,6
 501 1106 501 1106 686 1101 c 0,7,8
 834 1098 834 1098 910 1011.5 c 128,-1,9
 986 925 986 925 1008 799 c 128,-1,10
 1030 673 1030 673 1017 552 c 2,11,-1
 1014 530 l 2,12,13
 998 399 998 399 940.5 270.5 c 128,-1,14
 883 142 883 142 780.5 59 c 128,-1,15
 678 -24 678 -24 526 -21 c 0,16,17
 438 -18 438 -18 362 17 c 128,-1,18
 286 52 286 52 236 126 c 1,19,-1
 199 0 l 1,20,-1
 31 0 l 1,0,-1
633 947 m 0,21,22
 539 950 539 950 468.5 901.5 c 128,-1,23
 398 853 398 853 348 779 c 1,24,-1
 266 305 l 1,25,26
 327 142 327 142 491 136 c 0,27,28
 601 133 601 133 672 193.5 c 128,-1,29
 743 254 743 254 781 346.5 c 128,-1,30
 819 439 819 439 832 532 c 2,31,-1
 834 552 l 2,32,33
 844 633 844 633 837 723.5 c 128,-1,34
 830 814 830 814 784.5 879 c 128,-1,35
 739 944 739 944 633 947 c 0,21,22
EndSplineSet
EndChar

StartChar: Tonesix
Encoding: 388 388 155
Width: 1334
Flags: W
LayerCount: 2
Fore
SplineSet
1225 442 m 0,0,1
 1207 224 1207 224 1048.5 111 c 128,-1,2
 890 -2 890 -2 683 0 c 2,3,-1
 143 0 l 1,4,-1
 313 977 l 1,5,-1
 194 1183 l 1,6,-1
 207 1258 l 1,7,-1
 389 1456 l 1,8,-1
 584 1456 l 1,9,-1
 481 863 l 1,10,-1
 809 862 l 2,11,12
 1000 858 1000 858 1121 750.5 c 128,-1,13
 1242 643 1242 643 1225 442 c 0,0,1
359 157 m 1,14,-1
 689 155 l 2,15,16
 824 156 824 156 922 231.5 c 128,-1,17
 1020 307 1020 307 1037 445 c 0,18,19
 1052 566 1052 566 987.5 633 c 128,-1,20
 923 700 923 700 805 704 c 2,21,-1
 454 705 l 1,22,-1
 359 157 l 1,14,-1
EndSplineSet
EndChar

StartChar: tonesix
Encoding: 389 389 156
Width: 1224
Flags: W
LayerCount: 2
Fore
SplineSet
1124 530 m 1,0,1
 1107 399 1107 399 1050 271 c 128,-1,2
 993 143 993 143 890.5 59.5 c 128,-1,3
 788 -24 788 -24 637 -21 c 0,4,5
 548 -19 548 -19 472 16 c 128,-1,6
 396 51 396 51 346 126 c 1,7,-1
 309 0 l 1,8,-1
 142 0 l 1,9,-1
 326 1057 l 1,10,-1
 207 1263 l 1,11,-1
 220 1338 l 1,12,-1
 401 1536 l 1,13,-1
 589 1536 l 1,14,-1
 481 963 l 1,15,16
 611 1106 611 1106 797 1101 c 0,17,18
 945 1098 945 1098 1020.5 1011.5 c 128,-1,19
 1096 925 1096 925 1117.5 799 c 128,-1,20
 1139 673 1139 673 1126 552 c 2,21,-1
 1124 530 l 1,0,1
743 947 m 0,22,23
 648 950 648 950 578 901 c 128,-1,24
 508 852 508 852 457 777 c 1,25,-1
 376 306 l 1,26,27
 435 142 435 142 601 136 c 0,28,29
 711 133 711 133 782 193.5 c 128,-1,30
 853 254 853 254 891.5 346.5 c 128,-1,31
 930 439 930 439 942 531 c 2,32,-1
 945 552 l 2,33,34
 954 632 954 632 947 723 c 128,-1,35
 940 814 940 814 894.5 879 c 128,-1,36
 849 944 849 944 743 947 c 0,22,23
EndSplineSet
EndChar

StartChar: Oopen
Encoding: 390 390 157
Width: 1293
Flags: W
LayerCount: 2
Fore
SplineSet
65 468 m 1,0,-1
 252 468 l 1,1,2
 257 330 257 330 315.5 236 c 128,-1,3
 374 142 374 142 526 138 c 0,4,5
 672 133 672 133 770.5 210 c 128,-1,6
 869 287 869 287 925 407.5 c 128,-1,7
 981 528 981 528 1001 654 c 2,8,-1
 1023 802 l 2,9,10
 1038 908 1038 908 1026 1026.5 c 128,-1,11
 1014 1145 1014 1145 952.5 1230 c 128,-1,12
 891 1315 891 1315 755 1319 c 0,13,14
 586 1325 586 1325 490.5 1236 c 128,-1,15
 395 1147 395 1147 351 994 c 1,16,-1
 163 993 l 1,17,18
 209 1217 209 1217 370.5 1349 c 128,-1,19
 532 1481 532 1481 763 1476 c 0,20,21
 947 1472 947 1472 1052.5 1370.5 c 128,-1,22
 1158 1269 1158 1269 1195 1115 c 128,-1,23
 1232 961 1232 961 1211 801 c 2,24,-1
 1190 656 l 2,25,26
 1163 479 1163 479 1078.5 323 c 128,-1,27
 994 167 994 167 853.5 71.5 c 128,-1,28
 713 -24 713 -24 517 -20 c 0,29,30
 296 -15 296 -15 183 121 c 128,-1,31
 70 257 70 257 65 468 c 1,0,-1
EndSplineSet
EndChar

StartChar: Chook
Encoding: 391 391 158
Width: 1405
Flags: W
LayerCount: 2
Fore
SplineSet
1509 1348 m 0,0,1
 1415 1351 1415 1351 1363 1300.5 c 128,-1,2
 1311 1250 1311 1250 1297 1161 c 2,3,-1
 1269 989 l 1,4,-1
 1087 988 l 1,5,6
 1080 1126 1080 1126 1022.5 1220 c 128,-1,7
 965 1314 965 1314 811 1319 c 0,8,9
 665 1323 665 1323 567 1246 c 128,-1,10
 469 1169 469 1169 412.5 1049 c 128,-1,11
 356 929 356 929 336 802 c 2,12,-1
 314 654 l 2,13,14
 300 549 300 549 311.5 430 c 128,-1,15
 323 311 323 311 385 226 c 128,-1,16
 447 141 447 141 583 137 c 0,17,18
 751 131 751 131 846.5 220.5 c 128,-1,19
 942 310 942 310 987 462 c 1,20,-1
 1174 463 l 1,21,22
 1128 238 1128 238 966.5 106.5 c 128,-1,23
 805 -25 805 -25 574 -20 c 0,24,25
 389 -16 389 -16 284 86 c 128,-1,26
 179 188 179 188 142.5 341.5 c 128,-1,27
 106 495 106 495 127 655 c 2,28,-1
 148 800 l 2,29,30
 175 977 175 977 259.5 1132.5 c 128,-1,31
 344 1288 344 1288 484.5 1383.5 c 128,-1,32
 625 1479 625 1479 821 1476 c 0,33,34
 923 1475 923 1475 1022 1440 c 128,-1,35
 1121 1405 1121 1405 1184 1320 c 1,36,37
 1228 1410 1228 1410 1297.5 1461.5 c 128,-1,38
 1367 1513 1367 1513 1472 1511 c 0,39,40
 1502 1511 1502 1511 1532 1505.5 c 128,-1,41
 1562 1500 1562 1500 1591 1493 c 1,42,-1
 1574 1338 l 1,43,44
 1557 1342 1557 1342 1541 1344.5 c 128,-1,45
 1525 1347 1525 1347 1509 1348 c 0,0,1
EndSplineSet
EndChar

StartChar: chook
Encoding: 392 392 159
Width: 1205
Flags: W
LayerCount: 2
Fore
SplineSet
1201 1020 m 0,0,1
 1118 1022 1118 1022 1073 975 c 128,-1,2
 1028 928 1028 928 1015 850 c 2,3,-1
 993 710 l 1,4,-1
 826 709 l 1,5,6
 824 806 824 806 772.5 876.5 c 128,-1,7
 721 947 721 947 617 951 c 0,8,9
 506 955 506 955 432 897 c 128,-1,10
 358 839 358 839 316 747.5 c 128,-1,11
 274 656 274 656 261 560 c 2,12,-1
 256 518 l 2,13,14
 247 434 247 434 257.5 345.5 c 128,-1,15
 268 257 268 257 317.5 195.5 c 128,-1,16
 367 134 367 134 474 131 c 0,17,18
 573 128 573 128 650.5 187 c 128,-1,19
 728 246 728 246 754 341 c 1,20,-1
 926 342 l 1,21,22
 902 179 902 179 764 77.5 c 128,-1,23
 626 -24 626 -24 465 -21 c 0,24,25
 313 -17 313 -17 223 60.5 c 128,-1,26
 133 138 133 138 98.5 260 c 128,-1,27
 64 382 64 382 78 517 c 2,28,-1
 83 560 l 2,29,30
 100 706 100 706 169.5 831 c 128,-1,31
 239 956 239 956 354.5 1031 c 128,-1,32
 470 1106 470 1106 628 1103 c 0,33,34
 709 1101 709 1101 786 1072.5 c 128,-1,35
 863 1044 863 1044 917 981 c 1,36,37
 954 1062 954 1062 1013 1109 c 128,-1,38
 1072 1156 1072 1156 1166 1155 c 0,39,40
 1193 1155 1193 1155 1219.5 1150 c 128,-1,41
 1246 1145 1246 1145 1272 1138 c 1,42,-1
 1258 1011 l 1,43,44
 1222 1019 1222 1019 1201 1020 c 0,0,1
EndSplineSet
EndChar

StartChar: Dhook
Encoding: 394 394 161
Width: 1502
Flags: W
LayerCount: 2
Fore
SplineSet
122 1169 m 0,0,1
 134 1328 134 1328 245.5 1392.5 c 128,-1,2
 357 1457 357 1457 501 1456 c 1,3,-1
 501 1457 l 1,4,-1
 897 1455 l 2,5,6
 1091 1452 1091 1452 1213 1355.5 c 128,-1,7
 1335 1259 1335 1259 1384.5 1104.5 c 128,-1,8
 1434 950 1434 950 1412 771 c 2,9,-1
 1400 685 l 2,10,11
 1357 387 1357 387 1158.5 193 c 128,-1,12
 960 -1 960 -1 651 0 c 2,13,-1
 257 0 l 1,14,-1
 483 1301 l 1,15,16
 398 1297 398 1297 339 1256.5 c 128,-1,17
 280 1216 280 1216 271 1125 c 0,18,19
 269 1107 269 1107 270.5 1090.5 c 128,-1,20
 272 1074 272 1074 273 1057 c 1,21,-1
 129 1056 l 1,22,23
 119 1120 119 1120 122 1169 c 0,0,1
893 1297 m 2,24,-1
 670 1298 l 1,25,-1
 472 157 l 1,26,-1
 656 156 l 2,27,28
 894 155 894 155 1036 307 c 128,-1,29
 1178 459 1178 459 1213 684 c 1,30,-1
 1225 774 l 2,31,32
 1242 902 1242 902 1220 1020.5 c 128,-1,33
 1198 1139 1198 1139 1120 1216 c 128,-1,34
 1042 1293 1042 1293 893 1297 c 2,24,-1
EndSplineSet
EndChar

StartChar: Dtopbar
Encoding: 395 395 162
Width: 1245
Flags: W
LayerCount: 2
Fore
SplineSet
982 0 m 1,0,-1
 466 1 l 1,1,2
 274 7 274 7 153.5 116 c 128,-1,3
 33 225 33 225 50 427 c 0,4,5
 69 646 69 646 227.5 755 c 128,-1,6
 386 864 386 864 592 864 c 2,7,-1
 943 863 l 1,8,-1
 1019 1298 l 1,9,-1
 337 1298 l 1,10,-1
 365 1456 l 1,11,-1
 1235 1456 l 1,12,-1
 982 0 l 1,0,-1
821 157 m 1,13,-1
 916 705 l 1,14,-1
 586 707 l 2,15,16
 455 706 455 706 355.5 636.5 c 128,-1,17
 256 567 256 567 238 430 c 0,18,19
 223 309 223 309 286.5 236 c 128,-1,20
 350 163 350 163 470 158 c 1,21,-1
 821 157 l 1,13,-1
EndSplineSet
EndChar

StartChar: dtopbar
Encoding: 396 396 163
Width: 1120
Flags: W
LayerCount: 2
Fore
SplineSet
435 1384 m 1,0,-1
 462 1536 l 1,1,-1
 1141 1536 l 1,2,-1
 875 0 l 1,3,-1
 710 0 l 1,4,-1
 729 116 l 1,5,6
 598 -24 598 -24 413 -20 c 0,7,8
 271 -16 271 -16 194 71.5 c 128,-1,9
 117 159 117 159 92 284 c 128,-1,10
 67 409 67 409 79 526 c 2,11,-1
 82 548 l 2,12,13
 98 681 98 681 157 810 c 128,-1,14
 216 939 216 939 320.5 1022.5 c 128,-1,15
 425 1106 425 1106 577 1102 c 0,16,17
 660 1101 660 1101 732 1070 c 128,-1,18
 804 1039 804 1039 855 973 c 1,19,-1
 933 1384 l 1,20,-1
 435 1384 l 1,0,-1
262 527 m 2,21,22
 253 448 253 448 262 358 c 128,-1,23
 271 268 271 268 317.5 204 c 128,-1,24
 364 140 364 140 467 137 c 0,25,26
 557 134 557 134 625 178.5 c 128,-1,27
 693 223 693 223 743 293 c 1,28,-1
 830 794 l 1,29,30
 770 942 770 942 613 947 c 0,31,32
 503 951 503 951 430.5 890 c 128,-1,33
 358 829 358 829 318 735.5 c 128,-1,34
 278 642 278 642 265 548 c 2,35,-1
 262 527 l 2,21,22
EndSplineSet
EndChar

StartChar: deltaturn
Encoding: 397 397 164
Width: 1126
Flags: W
LayerCount: 2
Fore
SplineSet
723 -376 m 1,0,-1
 35 -376 l 1,1,-1
 61 -228 l 1,2,-1
 506 -227 l 1,3,4
 474 -172 474 -172 427 -125.5 c 128,-1,5
 380 -79 380 -79 337 -34 c 0,6,7
 224 86 224 86 145 230 c 128,-1,8
 66 374 66 374 84 545 c 2,9,-1
 87 569 l 2,10,11
 105 713 105 713 175 835.5 c 128,-1,12
 245 958 245 958 361 1031.5 c 128,-1,13
 477 1105 477 1105 631 1101 c 0,14,15
 779 1098 779 1098 871 1022 c 128,-1,16
 963 946 963 946 1001 827 c 128,-1,17
 1039 708 1039 708 1026 574 c 2,18,-1
 1023 550 l 2,19,20
 999 348 999 348 850.5 216.5 c 128,-1,21
 702 85 702 85 503 69 c 0,22,23
 490 68 490 68 476.5 68 c 128,-1,24
 463 68 463 68 451 68 c 1,25,26
 516 -19 516 -19 594 -97.5 c 128,-1,27
 672 -176 672 -176 741 -262 c 1,28,-1
 723 -376 l 1,0,-1
841 555 m 2,29,-1
 844 578 l 2,30,31
 853 661 853 661 839 746 c 128,-1,32
 825 831 825 831 774 889.5 c 128,-1,33
 723 948 723 948 622 951 c 0,34,35
 515 954 515 954 440.5 897.5 c 128,-1,36
 366 841 366 841 323.5 751.5 c 128,-1,37
 281 662 281 662 267 568 c 1,38,-1
 265 546 l 2,39,40
 254 451 254 451 280 360 c 128,-1,41
 306 269 306 269 378 202 c 1,42,43
 429 190 429 190 469 189 c 0,44,45
 629 185 629 185 725 296.5 c 128,-1,46
 821 408 821 408 841 555 c 2,29,-1
EndSplineSet
EndChar

StartChar: Eturn
Encoding: 398 398 165
Width: 1129
Flags: W
LayerCount: 2
Fore
SplineSet
187 1299 m 1,0,-1
 215 1456 l 1,1,-1
 1114 1456 l 1,2,-1
 861 0 l 1,3,-1
 -28 0 l 1,4,-1
 0 158 l 1,5,-1
 700 158 l 1,6,-1
 782 630 l 1,7,-1
 170 630 l 1,8,-1
 198 787 l 1,9,-1
 809 787 l 1,10,-1
 898 1299 l 1,11,-1
 187 1299 l 1,0,-1
EndSplineSet
EndChar

StartChar: Schwa
Encoding: 399 399 166
Width: 1373
GlyphClass: 2
Flags: W
AnchorPoint: "Anchor-5" 1545 1603 basechar 0
AnchorPoint: "Anchor-1" 571 0 basechar 0
AnchorPoint: "Anchor-0" 814 1603 basechar 0
LayerCount: 2
Fore
SplineSet
1275 680 m 2,0,1
 1250 506 1250 506 1159.5 344 c 128,-1,2
 1069 182 1069 182 923 79 c 128,-1,3
 777 -24 777 -24 583 -20 c 0,4,5
 391 -17 391 -17 276.5 75.5 c 128,-1,6
 162 168 162 168 119 318 c 128,-1,7
 76 468 76 468 100 643 c 1,8,-1
 120 767 l 1,9,-1
 1096 764 l 1,10,-1
 1099 776 l 1,11,12
 1127 908 1127 908 1101 1030.5 c 128,-1,13
 1075 1153 1075 1153 990 1232.5 c 128,-1,14
 905 1312 905 1312 755 1315 c 0,15,16
 658 1316 658 1316 566.5 1293.5 c 128,-1,17
 475 1271 475 1271 387 1232 c 1,18,-1
 352 1377 l 1,19,20
 436 1437 436 1437 548.5 1456.5 c 128,-1,21
 661 1476 661 1476 761 1475 c 0,22,23
 963 1473 963 1473 1088 1375 c 128,-1,24
 1213 1277 1213 1277 1262.5 1118 c 128,-1,25
 1312 959 1312 959 1288 774 c 2,26,-1
 1275 680 l 2,0,1
592 138 m 0,27,28
 729 135 729 135 825.5 207 c 128,-1,29
 922 279 922 279 984 391 c 128,-1,30
 1046 503 1046 503 1079 619 c 1,31,-1
 287 618 l 1,32,-1
 280 583 l 1,33,34
 251 405 251 405 323 274 c 128,-1,35
 395 143 395 143 592 138 c 0,27,28
EndSplineSet
EndChar

StartChar: Epsilon1
Encoding: 400 400 167
Width: 1189
GlyphClass: 2
Flags: W
AnchorPoint: "Anchor-5" 1362 1603 basechar 0
AnchorPoint: "Anchor-1" 489 0 basechar 0
AnchorPoint: "Anchor-0" 765 1603 basechar 0
LayerCount: 2
Fore
SplineSet
618 823 m 2,0,-1
 791 822 l 1,1,-1
 762 663 l 1,2,-1
 613 664 l 2,3,4
 474 664 474 664 364 605 c 128,-1,5
 254 546 254 546 237 394 c 0,6,7
 221 257 221 257 309 196.5 c 128,-1,8
 397 136 397 136 520 134 c 0,9,10
 649 132 649 132 751.5 202.5 c 128,-1,11
 854 273 854 273 877 403 c 1,12,-1
 1063 404 l 1,13,14
 1040 191 1040 191 877 83 c 128,-1,15
 714 -25 714 -25 512 -22 c 0,16,17
 315 -18 315 -18 173 81 c 128,-1,18
 31 180 31 180 48 398 c 0,19,20
 59 537 59 537 144 621 c 128,-1,21
 229 705 229 705 354 750 c 1,22,23
 171 848 171 848 185 1054 c 0,24,25
 196 1202 196 1202 277.5 1296.5 c 128,-1,26
 359 1391 359 1391 482.5 1435.5 c 128,-1,27
 606 1480 606 1480 741 1477 c 0,28,29
 919 1473 919 1473 1046.5 1368 c 128,-1,30
 1174 1263 1174 1263 1165 1074 c 1,31,-1
 979 1075 l 1,32,33
 986 1189 986 1189 914.5 1252.5 c 128,-1,34
 843 1316 843 1316 733 1319 c 0,35,36
 606 1322 606 1322 497.5 1259 c 128,-1,37
 389 1196 389 1196 372 1060 c 0,38,39
 357 935 357 935 430.5 880.5 c 128,-1,40
 504 826 504 826 618 823 c 2,0,-1
EndSplineSet
EndChar

StartChar: Fhook
Encoding: 401 401 168
Width: 1158
Flags: W
LayerCount: 2
Fore
SplineSet
1221 1298 m 1,0,-1
 532 1298 l 1,1,-1
 446 801 l 1,2,-1
 1038 801 l 1,3,-1
 1010 643 l 1,4,-1
 419 643 l 1,5,-1
 296 -89 l 1,6,7
 276 -242 276 -242 184.5 -341.5 c 128,-1,8
 93 -441 93 -441 -70 -439 c 0,9,10
 -124 -438 -124 -438 -187 -420 c 1,11,-1
 -155 -261 l 1,12,13
 -132 -268 -132 -268 -108 -273 c 128,-1,14
 -84 -278 -84 -278 -60 -278 c 0,15,16
 22 -279 22 -279 59.5 -219 c 128,-1,17
 97 -159 97 -159 108 -89 c 2,18,-1
 372 1456 l 1,19,-1
 1249 1456 l 1,20,-1
 1221 1298 l 1,0,-1
EndSplineSet
EndChar

StartChar: florin
Encoding: 402 402 169
Width: 677
Flags: W
LayerCount: 2
Fore
SplineSet
666 1082 m 1,0,-1
 644 940 l 1,1,-1
 447 940 l 1,2,-1
 290 -89 l 1,3,4
 273 -242 273 -242 184 -342 c 128,-1,5
 95 -442 95 -442 -67 -440 c 0,6,7
 -121 -439 -121 -439 -185 -420 c 1,8,-1
 -156 -273 l 1,9,10
 -133 -280 -133 -280 -109 -284.5 c 128,-1,11
 -85 -289 -85 -289 -60 -289 c 0,12,13
 22 -289 22 -289 60 -224 c 128,-1,14
 98 -159 98 -159 108 -89 c 2,15,-1
 266 940 l 1,16,-1
 100 940 l 1,17,-1
 122 1082 l 1,18,-1
 288 1082 l 1,19,-1
 302 1196 l 2,20,21
 321 1354 321 1354 415 1458 c 128,-1,22
 509 1562 509 1562 677 1559 c 0,23,24
 715 1559 715 1559 751.5 1552 c 128,-1,25
 788 1545 788 1545 824 1536 c 1,26,-1
 788 1391 l 1,27,28
 735 1403 735 1403 692 1403 c 0,29,30
 596 1403 596 1403 546.5 1343.5 c 128,-1,31
 497 1284 497 1284 484 1196 c 2,32,-1
 469 1082 l 1,33,-1
 666 1082 l 1,0,-1
EndSplineSet
EndChar

StartChar: Ghook
Encoding: 403 403 170
Width: 1407
Flags: W
LayerCount: 2
Fore
SplineSet
1514 1355 m 0,0,1
 1420 1358 1420 1358 1368.5 1303.5 c 128,-1,2
 1317 1249 1317 1249 1303 1161 c 2,3,-1
 1282 1030 l 1,4,-1
 1100 1029 l 1,5,6
 1088 1158 1088 1158 1020 1236 c 128,-1,7
 952 1314 952 1314 816 1318 c 0,8,9
 664 1323 664 1323 565.5 1244 c 128,-1,10
 467 1165 467 1165 413 1041 c 128,-1,11
 359 917 359 917 339 787 c 2,12,-1
 322 671 l 2,13,14
 307 557 307 557 323.5 434.5 c 128,-1,15
 340 312 340 312 409.5 226.5 c 128,-1,16
 479 141 479 141 622 138 c 0,17,18
 714 136 714 136 800.5 158.5 c 128,-1,19
 887 181 887 181 957 243 c 1,20,-1
 1016 569 l 1,21,-1
 688 569 l 1,22,-1
 716 725 l 1,23,-1
 1230 725 l 1,24,-1
 1143 192 l 1,25,26
 1053 69 1053 69 906 23.5 c 128,-1,27
 759 -22 759 -22 614 -20 c 0,28,29
 421 -17 421 -17 307.5 85 c 128,-1,30
 194 187 194 187 152 344 c 128,-1,31
 110 501 110 501 133 672 c 2,32,-1
 149 785 l 2,33,34
 176 969 176 969 258 1128 c 128,-1,35
 340 1287 340 1287 480.5 1383.5 c 128,-1,36
 621 1480 621 1480 825 1476 c 0,37,38
 927 1474 927 1474 1028 1441.5 c 128,-1,39
 1129 1409 1129 1409 1194 1324 c 1,40,41
 1238 1413 1238 1413 1306.5 1463 c 128,-1,42
 1375 1513 1375 1513 1477 1512 c 0,43,44
 1508 1511 1508 1511 1537.5 1505.5 c 128,-1,45
 1567 1500 1567 1500 1597 1493 c 1,46,-1
 1579 1344 l 1,47,48
 1563 1348 1563 1348 1547 1351 c 128,-1,49
 1531 1354 1531 1354 1514 1355 c 0,0,1
EndSplineSet
EndChar

StartChar: Gamma1
Encoding: 404 404 171
Width: 1247
Flags: W
LayerCount: 2
Fore
SplineSet
739 -188 m 0,0,1
 731 -302 731 -302 656 -366 c 128,-1,2
 581 -430 581 -430 468 -429 c 0,3,4
 364 -428 364 -428 300 -368.5 c 128,-1,5
 236 -309 236 -309 243 -202 c 0,6,7
 250 -85 250 -85 332.5 35.5 c 128,-1,8
 415 156 415 156 473 251 c 1,9,-1
 173 1456 l 1,10,-1
 373 1456 l 1,11,-1
 595 471 l 1,12,-1
 1164 1456 l 1,13,-1
 1381 1456 l 1,14,-1
 650 240 l 1,15,16
 671 139 671 139 709 28 c 128,-1,17
 747 -83 747 -83 739 -188 c 0,0,1
435 -203 m 0,18,19
 432 -231 432 -231 442.5 -253 c 128,-1,20
 453 -275 453 -275 486 -275 c 0,21,22
 523 -276 523 -276 544.5 -250.5 c 128,-1,23
 566 -225 566 -225 571 -192 c 0,24,25
 580 -137 580 -137 564.5 -77.5 c 128,-1,26
 549 -18 549 -18 538 35 c 1,27,28
 508 -18 508 -18 474.5 -79 c 128,-1,29
 441 -140 441 -140 435 -203 c 0,18,19
EndSplineSet
EndChar

StartChar: hv
Encoding: 405 405 172
Width: 1664
Flags: W
LayerCount: 2
Fore
SplineSet
697 1101 m 0,0,1
 874 1098 874 1098 935.5 980.5 c 128,-1,2
 997 863 997 863 978 705 c 2,3,-1
 941 442 l 2,4,5
 935 384 935 384 937.5 314 c 128,-1,6
 940 244 940 244 971 192 c 128,-1,7
 1002 140 1002 140 1080 136 c 0,8,9
 1165 131 1165 131 1215.5 179.5 c 128,-1,10
 1266 228 1266 228 1291 301 c 128,-1,11
 1316 374 1316 374 1326 442 c 2,12,-1
 1432 1082 l 1,13,-1
 1614 1082 l 1,14,-1
 1506 445 l 1,15,16
 1479 254 1479 254 1379.5 114 c 128,-1,17
 1280 -26 1280 -26 1066 -21 c 0,18,19
 930 -17 930 -17 859 49.5 c 128,-1,20
 788 116 788 116 766 221 c 128,-1,21
 744 326 744 326 758 445 c 2,22,-1
 796 706 l 2,23,24
 807 805 807 805 775 874.5 c 128,-1,25
 743 944 743 944 631 947 c 0,26,27
 538 949 538 949 467.5 897.5 c 128,-1,28
 397 846 397 846 347 774 c 1,29,-1
 213 0 l 1,30,-1
 32 0 l 1,31,-1
 299 1536 l 1,32,-1
 480 1536 l 1,33,-1
 370 952 l 1,34,35
 435 1022 435 1022 517 1062.5 c 128,-1,36
 599 1103 599 1103 697 1101 c 0,0,1
EndSplineSet
EndChar

StartChar: Khook
Encoding: 408 408 174
Width: 1246
Flags: W
LayerCount: 2
Fore
SplineSet
926 0 m 1,0,-1
 548 671 l 1,1,-1
 327 455 l 1,2,-1
 248 0 l 1,3,-1
 59 0 l 1,4,-1
 312 1456 l 1,5,-1
 501 1456 l 1,6,-1
 373 727 l 1,7,-1
 565 926 l 1,8,-1
 898 1282 l 2,9,10
 958 1349 958 1349 1027 1414.5 c 128,-1,11
 1096 1480 1096 1480 1195 1479 c 0,12,13
 1251 1478 1251 1478 1298.5 1455 c 128,-1,14
 1346 1432 1346 1432 1389 1398 c 1,15,-1
 1312 1266 l 1,16,17
 1262 1304 1262 1304 1207 1304 c 0,18,19
 1155 1304 1155 1304 1118 1267 c 128,-1,20
 1081 1230 1081 1230 1049 1195 c 2,21,-1
 683 806 l 1,22,-1
 1136 0 l 1,23,-1
 926 0 l 1,0,-1
EndSplineSet
EndChar

StartChar: khook
Encoding: 409 409 175
Width: 1007
Flags: W
LayerCount: 2
Fore
SplineSet
615 1425 m 0,0,1
 532 1428 532 1428 486.5 1380 c 128,-1,2
 441 1332 441 1332 429 1255 c 2,3,-1
 321 619 l 1,4,-1
 430 729 l 1,5,-1
 815 1082 l 1,6,-1
 1050 1081 l 1,7,-1
 553 622 l 1,8,-1
 896 0 l 1,9,-1
 697 0 l 1,10,-1
 421 500 l 1,11,-1
 279 373 l 1,12,-1
 214 0 l 1,13,-1
 32 0 l 1,14,-1
 245 1255 l 1,15,16
 263 1388 263 1388 351.5 1475 c 128,-1,17
 440 1562 440 1562 579 1559 c 0,18,19
 606 1559 606 1559 632.5 1554 c 128,-1,20
 659 1549 659 1549 686 1543 c 1,21,-1
 671 1415 l 1,22,23
 657 1419 657 1419 643 1421.5 c 128,-1,24
 629 1424 629 1424 615 1425 c 0,0,1
EndSplineSet
EndChar

StartChar: lambdabar
Encoding: 411 411 177
Width: 1101
Flags: W
AnchorPoint: "Anchor-5" 1118 1611 basechar 0
LayerCount: 2
Fore
SplineSet
953 -5 m 1,0,1
 917 -15 917 -15 884 -16 c 0,2,3
 785 -17 785 -17 741 41 c 128,-1,4
 697 99 697 99 674 187 c 1,5,-1
 549 779 l 1,6,-1
 136 0 l 1,7,-1
 -72 0 l 1,8,-1
 495 1041 l 1,9,-1
 474 1133 l 1,10,-1
 277 1062 l 1,11,-1
 308 1232 l 1,12,-1
 436 1280 l 1,13,14
 425 1317 425 1317 407 1339 c 128,-1,15
 389 1361 389 1361 347 1364 c 0,16,17
 335 1365 335 1365 322.5 1364 c 128,-1,18
 310 1363 310 1363 298 1363 c 1,19,-1
 311 1505 l 1,20,21
 360 1516 360 1516 399 1516 c 0,22,23
 579 1516 579 1516 619 1346 c 1,24,-1
 815 1419 l 1,25,-1
 784 1249 l 1,26,-1
 651 1200 l 1,27,-1
 847 233 l 2,28,29
 856 200 856 200 871.5 175.5 c 128,-1,30
 887 151 887 151 924 148 c 0,31,32
 934 147 934 147 960 149 c 1,33,-1
 953 -5 l 1,0,1
EndSplineSet
EndChar

StartChar: mcapturn
Encoding: 412 412 178
Width: 1809
Flags: W
LayerCount: 2
Fore
SplineSet
1368 0 m 1,0,-1
 1392 123 l 1,1,2
 1265 -23 1265 -23 1069 -20 c 0,3,4
 968 -18 968 -18 892 30 c 128,-1,5
 816 78 816 78 793 181 c 1,6,7
 726 82 726 82 634.5 28.5 c 128,-1,8
 543 -25 543 -25 421 -22 c 0,9,10
 290 -18 290 -18 226.5 53 c 128,-1,11
 163 124 163 124 147.5 230 c 128,-1,12
 132 336 132 336 145 445 c 1,13,-1
 316 1456 l 1,14,-1
 497 1456 l 1,15,-1
 326 442 l 2,16,17
 320 386 320 386 322.5 315.5 c 128,-1,18
 325 245 325 245 355 192.5 c 128,-1,19
 385 140 385 140 462 136 c 0,20,21
 568 132 568 132 660 195.5 c 128,-1,22
 752 259 752 259 778 365 c 0,23,24
 783 384 783 384 784 404.5 c 128,-1,25
 785 425 785 425 788 445 c 2,26,-1
 963 1456 l 1,27,-1
 1144 1456 l 1,28,-1
 973 442 l 2,29,30
 967 386 967 386 969.5 315.5 c 128,-1,31
 972 245 972 245 1002 192.5 c 128,-1,32
 1032 140 1032 140 1109 136 c 0,33,34
 1212 132 1212 132 1301.5 192 c 128,-1,35
 1391 252 1391 252 1420 354 c 1,36,-1
 1610 1456 l 1,37,-1
 1791 1456 l 1,38,-1
 1538 0 l 1,39,-1
 1368 0 l 1,0,-1
EndSplineSet
EndChar

StartChar: Nhook
Encoding: 413 413 179
Width: 1476
Flags: W
LayerCount: 2
Fore
SplineSet
1023 0 m 1,0,-1
 504 1131 l 1,1,-1
 296 -88 l 1,2,3
 276 -242 276 -242 184.5 -341.5 c 128,-1,4
 93 -441 93 -441 -70 -439 c 0,5,6
 -124 -439 -124 -439 -187 -420 c 1,7,-1
 -155 -261 l 1,8,9
 -132 -268 -132 -268 -108 -272.5 c 128,-1,10
 -84 -277 -84 -277 -60 -278 c 0,11,12
 22 -279 22 -279 59.5 -219 c 128,-1,13
 97 -159 97 -159 108 -89 c 2,14,-1
 372 1456 l 1,15,-1
 553 1456 l 1,16,-1
 1075 322 l 1,17,-1
 1272 1456 l 1,18,-1
 1459 1456 l 1,19,-1
 1206 0 l 1,20,-1
 1023 0 l 1,0,-1
EndSplineSet
EndChar

StartChar: Ohorn
Encoding: 416 416 180
Width: 1365
GlyphClass: 2
Flags: W
AnchorPoint: "Anchor-5" 1536 1595 basechar 0
AnchorPoint: "Anchor-1" 567 0 basechar 0
AnchorPoint: "Anchor-0" 853 1595 basechar 0
LayerCount: 2
Fore
SplineSet
1250 682 m 2,0,1
 1224 503 1224 503 1141 340.5 c 128,-1,2
 1058 178 1058 178 916.5 76.5 c 128,-1,3
 775 -25 775 -25 575 -20 c 0,4,5
 382 -16 382 -16 274 90 c 128,-1,6
 166 196 166 196 129.5 356 c 128,-1,7
 93 516 93 516 114 682 c 2,8,-1
 126 773 l 2,9,10
 152 951 152 951 236.5 1113.5 c 128,-1,11
 321 1276 321 1276 463 1378 c 128,-1,12
 605 1480 605 1480 804 1476 c 0,13,14
 908 1474 908 1474 1002.5 1436.5 c 128,-1,15
 1097 1399 1097 1399 1167 1320 c 1,16,17
 1284 1333 1284 1333 1333.5 1408.5 c 128,-1,18
 1383 1484 1383 1484 1400 1591 c 1,19,-1
 1561 1592 l 1,20,21
 1544 1441 1544 1441 1471 1337 c 128,-1,22
 1398 1233 1398 1233 1244 1197 c 1,23,24
 1294 995 1294 995 1263 774 c 2,25,-1
 1250 682 l 2,0,1
1063 682 m 2,26,-1
 1077 777 l 2,27,28
 1091 890 1091 890 1079 1012.5 c 128,-1,29
 1067 1135 1067 1135 1002.5 1221.5 c 128,-1,30
 938 1308 938 1308 794 1313 c 0,31,32
 645 1317 645 1317 545.5 1235.5 c 128,-1,33
 446 1154 446 1154 389 1029 c 128,-1,34
 332 904 332 904 314 776 c 2,35,-1
 300 681 l 2,36,37
 286 570 286 570 299 446.5 c 128,-1,38
 312 323 312 323 376.5 235 c 128,-1,39
 441 147 441 147 584 142 c 0,40,41
 736 137 736 137 835 218.5 c 128,-1,42
 934 300 934 300 989 426 c 128,-1,43
 1044 552 1044 552 1063 682 c 2,26,-1
EndSplineSet
EndChar

StartChar: ohorn
Encoding: 417 417 181
Width: 1136
GlyphClass: 2
Flags: W
AnchorPoint: "Anchor-5" 1255 1290 basechar 0
AnchorPoint: "Anchor-1" 459 -10 basechar 0
AnchorPoint: "Anchor-0" 683 1290 basechar 0
LayerCount: 2
Fore
SplineSet
1033 530 m 2,0,1
 1013 385 1013 385 941.5 258 c 128,-1,2
 870 131 870 131 752.5 53.5 c 128,-1,3
 635 -24 635 -24 477 -20 c 0,4,5
 326 -17 326 -17 232.5 63 c 128,-1,6
 139 143 139 143 101 266.5 c 128,-1,7
 63 390 63 390 78 526 c 2,8,-1
 80 550 l 1,9,10
 99 696 99 696 171 823.5 c 128,-1,11
 243 951 243 951 361.5 1028.5 c 128,-1,12
 480 1106 480 1106 638 1103 c 0,13,14
 730 1101 730 1101 812 1066.5 c 128,-1,15
 894 1032 894 1032 955 962 c 1,16,17
 1052 980 1052 980 1085 1046 c 128,-1,18
 1118 1112 1118 1112 1132 1201 c 1,19,-1
 1274 1201 l 1,20,21
 1261 1073 1261 1073 1206 982 c 128,-1,22
 1151 891 1151 891 1019 857 c 1,23,24
 1055 712 1055 712 1036 554 c 2,25,-1
 1033 530 l 2,0,1
262 545 m 2,26,-1
 259 522 l 2,27,28
 249 438 249 438 263 348.5 c 128,-1,29
 277 259 277 259 329 196.5 c 128,-1,30
 381 134 381 134 485 131 c 0,31,32
 596 127 596 127 672.5 187.5 c 128,-1,33
 749 248 749 248 793.5 342 c 128,-1,34
 838 436 838 436 851 531 c 2,35,-1
 854 554 l 2,36,37
 864 638 864 638 850 728.5 c 128,-1,38
 836 819 836 819 784 883 c 128,-1,39
 732 947 732 947 628 951 c 0,40,41
 516 954 516 954 439.5 892.5 c 128,-1,42
 363 831 363 831 319 736 c 128,-1,43
 275 641 275 641 262 545 c 2,26,-1
EndSplineSet
EndChar

StartChar: OI
Encoding: 418 418 182
Width: 1686
Flags: W
LayerCount: 2
Fore
SplineSet
611 -20 m 0,0,1
 416 -17 416 -17 303 84 c 128,-1,2
 190 185 190 185 149 342.5 c 128,-1,3
 108 500 108 500 131 672 c 2,4,-1
 146 784 l 2,5,6
 173 967 173 967 261.5 1126 c 128,-1,7
 350 1285 350 1285 496 1382 c 128,-1,8
 642 1479 642 1479 843 1476 c 0,9,10
 948 1475 948 1475 1057.5 1448.5 c 128,-1,11
 1167 1422 1167 1422 1246 1346 c 1,12,-1
 1516 1456 l 1,13,-1
 1669 1456 l 1,14,-1
 1344 -416 l 1,15,-1
 1162 -416 l 1,16,-1
 1454 1265 l 1,17,-1
 1307 1210 l 1,18,-1
 1136 193 l 1,19,20
 1046 70 1046 70 900.5 24 c 128,-1,21
 755 -22 755 -22 611 -20 c 0,0,1
837 1321 m 0,22,23
 686 1323 686 1323 581 1244.5 c 128,-1,24
 476 1166 476 1166 414.5 1041.5 c 128,-1,25
 353 917 353 917 333 784 c 2,26,-1
 316 671 l 2,27,28
 301 553 301 553 318 430.5 c 128,-1,29
 335 308 335 308 406.5 224.5 c 128,-1,30
 478 141 478 141 625 138 c 0,31,32
 718 136 718 136 802.5 160 c 128,-1,33
 887 184 887 184 958 245 c 1,34,-1
 1130 1213 l 1,35,36
 1082 1282 1082 1282 998 1301 c 128,-1,37
 914 1320 914 1320 837 1321 c 0,22,23
EndSplineSet
EndChar

StartChar: oi
Encoding: 419 419 183
Width: 1327
Flags: W
LayerCount: 2
Fore
SplineSet
1045 830 m 1,0,-1
 917 760 l 1,1,-1
 816 132 l 1,2,3
 670 -24 670 -24 465 -20 c 0,4,5
 313 -17 313 -17 223.5 61 c 128,-1,6
 134 139 134 139 99 260.5 c 128,-1,7
 64 382 64 382 78 517 c 2,8,-1
 83 560 l 2,9,10
 101 706 101 706 170.5 830.5 c 128,-1,11
 240 955 240 955 355.5 1030 c 128,-1,12
 471 1105 471 1105 628 1102 c 0,13,14
 709 1101 709 1101 786 1072.5 c 128,-1,15
 863 1044 863 1044 917 982 c 1,16,-1
 1115 1082 l 1,17,-1
 1270 1082 l 1,18,-1
 1010 -416 l 1,19,-1
 828 -416 l 1,20,-1
 1045 830 l 1,0,-1
470 132 m 0,21,22
 514 131 514 131 554 144 c 128,-1,23
 594 157 594 157 632 177 c 1,24,-1
 763 903 l 1,25,26
 703 950 703 950 622 953 c 0,27,28
 455 957 455 957 368.5 831.5 c 128,-1,29
 282 706 282 706 263 560 c 2,30,-1
 258 518 l 2,31,32
 249 437 249 437 259.5 348 c 128,-1,33
 270 259 270 259 318.5 196.5 c 128,-1,34
 367 134 367 134 470 132 c 0,21,22
EndSplineSet
EndChar

StartChar: Phook
Encoding: 420 420 184
Width: 1451
Flags: W
LayerCount: 2
Fore
SplineSet
122 1169 m 0,0,1
 134 1328 134 1328 245.5 1392.5 c 128,-1,2
 357 1457 357 1457 501 1456 c 1,3,-1
 501 1457 l 1,4,-1
 1018 1455 l 2,5,6
 1215 1451 1215 1451 1340.5 1338 c 128,-1,7
 1466 1225 1466 1225 1448 1019 c 0,8,9
 1428 788 1428 788 1266.5 679 c 128,-1,10
 1105 570 1105 570 889 570 c 2,11,-1
 544 571 l 1,12,-1
 445 0 l 1,13,-1
 257 0 l 1,14,-1
 483 1301 l 1,15,16
 398 1297 398 1297 339.5 1256.5 c 128,-1,17
 281 1216 281 1216 271 1125 c 0,18,19
 269 1108 269 1108 270.5 1091 c 128,-1,20
 272 1074 272 1074 273 1057 c 1,21,-1
 129 1056 l 1,22,23
 119 1120 119 1120 122 1169 c 0,0,1
670 1298 m 1,24,-1
 571 728 l 1,25,-1
 894 726 l 2,26,27
 1036 727 1036 727 1139 799 c 128,-1,28
 1242 871 1242 871 1260 1018 c 0,29,30
 1276 1145 1276 1145 1208 1219 c 128,-1,31
 1140 1293 1140 1293 1014 1297 c 2,32,-1
 670 1298 l 1,24,-1
EndSplineSet
EndChar

StartChar: phook
Encoding: 421 421 185
Width: 1116
Flags: W
LayerCount: 2
Fore
SplineSet
525 -21 m 0,0,1
 441 -20 441 -20 366.5 10.5 c 128,-1,2
 292 41 292 41 238 106 c 1,3,-1
 141 -416 l 1,4,-1
 -41 -416 l 1,5,-1
 212 1082 l 1,6,-1
 212 1082 l 1,7,8
 235 1211 235 1211 320 1296 c 128,-1,9
 405 1381 405 1381 542 1380 c 0,10,11
 568 1379 568 1379 594 1374.5 c 128,-1,12
 620 1370 620 1370 646 1364 c 1,13,-1
 638 1234 l 1,14,15
 624 1237 624 1237 610 1240 c 128,-1,16
 596 1243 596 1243 582 1244 c 0,17,18
 499 1247 499 1247 454 1199 c 128,-1,19
 409 1151 409 1151 395 1075 c 2,20,-1
 373 971 l 1,21,22
 505 1106 505 1106 684 1101 c 0,23,24
 833 1098 833 1098 908.5 1011.5 c 128,-1,25
 984 925 984 925 1006 799.5 c 128,-1,26
 1028 674 1028 674 1015 553 c 2,27,-1
 1012 531 l 2,28,29
 996 399 996 399 938.5 270.5 c 128,-1,30
 881 142 881 142 779 59 c 128,-1,31
 677 -24 677 -24 525 -21 c 0,0,1
623 947 m 0,32,33
 536 950 536 950 469 907.5 c 128,-1,34
 402 865 402 865 352 798 c 1,35,-1
 261 278 l 1,36,37
 323 136 323 136 480 131 c 0,38,39
 590 128 590 128 663 189 c 128,-1,40
 736 250 736 250 776.5 343.5 c 128,-1,41
 817 437 817 437 830 532 c 2,42,-1
 833 552 l 2,43,44
 842 632 842 632 832 723 c 128,-1,45
 822 814 822 814 774.5 879 c 128,-1,46
 727 944 727 944 623 947 c 0,32,33
EndSplineSet
EndChar

StartChar: YR
Encoding: 422 422 186
Width: 1362
Flags: W
LayerCount: 2
Fore
SplineSet
248 0 m 1,0,-1
 59 0 l 1,1,-1
 330 1558 l 1,2,-1
 518 1558 l 1,3,-1
 500 1456 l 1,4,-1
 768 1455 l 2,5,6
 967 1451 967 1451 1092.5 1345 c 128,-1,7
 1218 1239 1218 1239 1199 1027 c 0,8,9
 1186 877 1186 877 1092.5 777 c 128,-1,10
 999 677 999 677 864 627 c 1,11,-1
 1219 -346 l 1,12,-1
 1219 -361 l 1,13,-1
 1019 -359 l 1,14,-1
 686 590 l 1,15,-1
 351 590 l 1,16,-1
 248 0 l 1,0,-1
473 1298 m 1,17,-1
 377 747 l 1,18,-1
 653 746 l 2,19,20
 784 746 784 746 889 817.5 c 128,-1,21
 994 889 994 889 1012 1028 c 0,22,23
 1028 1158 1028 1158 959 1225.5 c 128,-1,24
 890 1293 890 1293 764 1297 c 2,25,-1
 473 1298 l 1,17,-1
EndSplineSet
EndChar

StartChar: Tonetwo
Encoding: 423 423 187
Width: 1180
Flags: W
LayerCount: 2
Fore
SplineSet
223 360 m 0,0,1
 209 240 209 240 292.5 189.5 c 128,-1,2
 376 139 376 139 481 136 c 0,3,4
 623 133 623 133 738 203 c 128,-1,5
 853 273 853 273 878 421 c 1,6,-1
 1065 422 l 1,7,8
 1049 276 1049 276 959.5 176.5 c 128,-1,9
 870 77 870 77 740 27 c 128,-1,10
 610 -23 610 -23 473 -20 c 0,11,12
 358 -18 358 -18 254 23.5 c 128,-1,13
 150 65 150 65 87.5 148.5 c 128,-1,14
 25 232 25 232 35 362 c 0,15,16
 45 503 45 503 127 592 c 128,-1,17
 209 681 209 681 327 733.5 c 128,-1,18
 445 786 445 786 564 818 c 0,19,20
 636 838 636 838 721.5 867 c 128,-1,21
 807 896 807 896 872.5 948.5 c 128,-1,22
 938 1001 938 1001 950 1090 c 0,23,24
 966 1208 966 1208 887.5 1262.5 c 128,-1,25
 809 1317 809 1317 703 1319 c 0,26,27
 564 1322 564 1322 465 1249 c 128,-1,28
 366 1176 366 1176 344 1037 c 1,29,-1
 157 1036 l 1,30,31
 171 1176 171 1176 253 1275.5 c 128,-1,32
 335 1375 335 1375 456.5 1427 c 128,-1,33
 578 1479 578 1479 712 1476 c 0,34,35
 825 1474 825 1474 926 1429.5 c 128,-1,36
 1027 1385 1027 1385 1087.5 1299 c 128,-1,37
 1148 1213 1148 1213 1139 1088 c 0,38,39
 1129 953 1129 953 1046 867.5 c 128,-1,40
 963 782 963 782 846.5 731.5 c 128,-1,41
 730 681 730 681 618 650 c 0,42,43
 539 628 539 628 451.5 597.5 c 128,-1,44
 364 567 364 567 299 512 c 128,-1,45
 234 457 234 457 223 360 c 0,0,1
EndSplineSet
EndChar

StartChar: tonetwo
Encoding: 424 424 188
Width: 1025
Flags: W
LayerCount: 2
Fore
SplineSet
225 280 m 0,0,1
 215 195 215 195 282 163.5 c 128,-1,2
 349 132 349 132 419 130 c 0,3,4
 522 127 522 127 599 179 c 128,-1,5
 676 231 676 231 702 333 c 1,6,-1
 883 334 l 1,7,8
 866 157 866 157 721 66.5 c 128,-1,9
 576 -24 576 -24 412 -21 c 0,10,11
 272 -18 272 -18 154.5 58.5 c 128,-1,12
 37 135 37 135 45 293 c 0,13,14
 51 405 51 405 118 469.5 c 128,-1,15
 185 534 185 534 280.5 569 c 128,-1,16
 376 604 376 604 467 625 c 0,17,18
 517 636 517 636 579.5 652 c 128,-1,19
 642 668 642 668 690.5 701.5 c 128,-1,20
 739 735 739 735 747 799 c 0,21,22
 757 880 757 880 698 916 c 128,-1,23
 639 952 639 952 569 953 c 0,24,25
 481 953 481 953 409.5 903 c 128,-1,26
 338 853 338 853 320 765 c 1,27,-1
 140 764 l 1,28,29
 156 932 156 932 287 1019 c 128,-1,30
 418 1106 418 1106 577 1103 c 0,31,32
 710 1100 710 1100 823 1021.5 c 128,-1,33
 936 943 936 943 929 794 c 0,34,35
 923 684 923 684 855.5 621 c 128,-1,36
 788 558 788 558 692 525.5 c 128,-1,37
 596 493 596 493 507 474 c 0,38,39
 423 456 423 456 330 419 c 128,-1,40
 237 382 237 382 225 280 c 0,0,1
EndSplineSet
EndChar

StartChar: eshlooprev
Encoding: 426 426 190
Width: 926
Flags: W
LayerCount: 2
Fore
SplineSet
721 -392 m 1,0,1
 664 -408 664 -408 616 -407 c 0,2,3
 468 -405 468 -405 422 -296 c 128,-1,4
 376 -187 376 -187 389 -61 c 1,5,-1
 561 920 l 1,6,7
 485 883 485 883 413 884 c 0,8,9
 280 886 280 886 200.5 985.5 c 128,-1,10
 121 1085 121 1085 129 1213 c 0,11,12
 138 1355 138 1355 244.5 1460.5 c 128,-1,13
 351 1566 351 1566 497 1562 c 0,14,15
 633 1559 633 1559 714.5 1456 c 128,-1,16
 796 1353 796 1353 783 1221 c 1,17,-1
 569 -62 l 2,18,19
 561 -126 561 -126 574.5 -186.5 c 128,-1,20
 588 -247 588 -247 667 -249 c 0,21,22
 684 -249 684 -249 700 -247 c 128,-1,23
 716 -245 716 -245 732 -243 c 1,24,-1
 721 -392 l 1,0,1
431 1052 m 0,25,26
 508 1051 508 1051 558.5 1104 c 128,-1,27
 609 1157 609 1157 617 1231 c 0,28,29
 623 1297 623 1297 589.5 1345.5 c 128,-1,30
 556 1394 556 1394 485 1395 c 0,31,32
 408 1396 408 1396 356.5 1342 c 128,-1,33
 305 1288 305 1288 298 1214 c 0,34,35
 291 1147 291 1147 326 1099.5 c 128,-1,36
 361 1052 361 1052 431 1052 c 0,25,26
EndSplineSet
EndChar

StartChar: tpalatalhook
Encoding: 427 427 191
Width: 650
Flags: W
LayerCount: 2
Fore
SplineSet
471 -65 m 2,0,1
 455 -185 455 -185 395 -277.5 c 128,-1,2
 335 -370 335 -370 199 -370 c 0,3,4
 172 -370 172 -370 146.5 -365.5 c 128,-1,5
 121 -361 121 -361 95 -355 c 1,6,-1
 102 -224 l 1,7,8
 117 -228 117 -228 130.5 -231 c 128,-1,9
 144 -234 144 -234 159 -234 c 0,10,11
 243 -237 243 -237 289 -189 c 128,-1,12
 335 -141 335 -141 349 -63 c 2,13,-1
 356 -19 l 1,14,15
 355 -19 355 -19 353 -18.5 c 128,-1,16
 351 -18 351 -18 349 -18 c 0,17,18
 226 -11 226 -11 182.5 72.5 c 128,-1,19
 139 156 139 156 149 269 c 1,20,-1
 259 940 l 1,21,-1
 67 940 l 1,22,-1
 92 1082 l 1,23,-1
 284 1082 l 1,24,-1
 330 1345 l 1,25,-1
 511 1345 l 1,26,-1
 464 1082 l 1,27,-1
 661 1082 l 1,28,-1
 636 940 l 1,29,-1
 440 940 l 1,30,-1
 327 267 l 2,31,32
 321 214 321 214 337 177.5 c 128,-1,33
 353 141 353 141 412 140 c 0,34,35
 434 140 434 140 456.5 143.5 c 128,-1,36
 479 147 479 147 500 152 c 1,37,-1
 477 0 l 1,38,-1
 480 -1 l 1,39,-1
 471 -65 l 2,0,1
EndSplineSet
EndChar

StartChar: Thook
Encoding: 428 428 192
Width: 1244
Flags: W
LayerCount: 2
Fore
SplineSet
123 1170 m 0,0,1
 135 1328 135 1328 246.5 1392 c 128,-1,2
 358 1456 358 1456 501 1457 c 2,3,-1
 1347 1456 l 1,4,-1
 1318 1298 l 1,5,-1
 865 1298 l 1,6,-1
 640 0 l 1,7,-1
 453 0 l 1,8,-1
 678 1298 l 1,9,-1
 496 1300 l 2,10,11
 408 1300 408 1300 345 1259 c 128,-1,12
 282 1218 282 1218 272 1125 c 0,13,14
 270 1108 270 1108 271 1091 c 128,-1,15
 272 1074 272 1074 273 1057 c 1,16,-1
 130 1056 l 1,17,18
 120 1121 120 1121 123 1170 c 0,0,1
EndSplineSet
EndChar

StartChar: thook
Encoding: 429 429 193
Width: 660
Flags: W
LayerCount: 2
Fore
SplineSet
692 1430 m 0,0,1
 609 1433 609 1433 563.5 1385 c 128,-1,2
 518 1337 518 1337 505 1260 c 2,3,-1
 477 1082 l 1,4,-1
 673 1082 l 1,5,-1
 648 940 l 1,6,-1
 453 940 l 1,7,-1
 344 295 l 2,8,9
 339 245 339 245 350.5 194.5 c 128,-1,10
 362 144 362 144 425 142 c 0,11,12
 447 141 447 141 468.5 144.5 c 128,-1,13
 490 148 490 148 511 151 c 1,14,-1
 497 -1 l 1,15,16
 434 -19 434 -19 365 -18 c 0,17,18
 236 -16 236 -16 196 86 c 128,-1,19
 156 188 156 188 166 297 c 1,20,-1
 272 940 l 1,21,-1
 81 940 l 1,22,-1
 106 1082 l 1,23,-1
 297 1082 l 1,24,-1
 323 1260 l 2,25,26
 340 1393 340 1393 429 1480 c 128,-1,27
 518 1567 518 1567 657 1565 c 0,28,29
 684 1564 684 1564 710 1559 c 128,-1,30
 736 1554 736 1554 762 1547 c 1,31,-1
 748 1420 l 1,32,33
 734 1423 734 1423 720 1426 c 128,-1,34
 706 1429 706 1429 692 1430 c 0,0,1
EndSplineSet
EndChar

StartChar: Trthook
Encoding: 430 430 194
Width: 1185
Flags: W
LayerCount: 2
Fore
SplineSet
168 1298 m 1,0,-1
 196 1456 l 1,1,-1
 1288 1456 l 1,2,-1
 1260 1298 l 1,3,-1
 807 1298 l 1,4,-1
 570 -90 l 2,5,6
 563 -144 563 -144 573.5 -208.5 c 128,-1,7
 584 -273 584 -273 657 -275 c 0,8,9
 681 -276 681 -276 705.5 -272 c 128,-1,10
 730 -268 730 -268 754 -264 c 1,11,-1
 752 -420 l 1,12,13
 700 -436 700 -436 649 -435 c 0,14,15
 499 -432 499 -432 435.5 -330 c 128,-1,16
 372 -228 372 -228 385 -89 c 1,17,-1
 621 1298 l 1,18,-1
 168 1298 l 1,0,-1
EndSplineSet
EndChar

StartChar: Uhorn
Encoding: 431 431 195
Width: 1381
GlyphClass: 2
Flags: W
AnchorPoint: "Anchor-5" 1556 1612 basechar 0
AnchorPoint: "Anchor-1" 566 -9 basechar 0
AnchorPoint: "Anchor-0" 848 1612 basechar 0
LayerCount: 2
Fore
SplineSet
1139 471 m 1,0,1
 1106 244 1106 244 943.5 109.5 c 128,-1,2
 781 -25 781 -25 552 -20 c 0,3,4
 335 -16 335 -16 212.5 118 c 128,-1,5
 90 252 90 252 115 471 c 1,6,-1
 283 1456 l 1,7,-1
 469 1456 l 1,8,-1
 302 470 l 1,9,10
 285 328 285 328 349.5 234 c 128,-1,11
 414 140 414 140 564 136 c 0,12,13
 723 131 723 131 825 223.5 c 128,-1,14
 927 316 927 316 951 471 c 2,15,-1
 1119 1456 l 1,16,-1
 1307 1456 l 1,17,-1
 1267 1241 l 1,18,19
 1398 1256 1398 1256 1452 1336 c 128,-1,20
 1506 1416 1506 1416 1524 1538 c 1,21,-1
 1675 1538 l 1,22,23
 1654 1343 1654 1343 1553.5 1231.5 c 128,-1,24
 1453 1120 1453 1120 1251 1108 c 1,25,-1
 1139 471 l 1,0,1
EndSplineSet
EndChar

StartChar: uhorn
Encoding: 432 432 196
Width: 1229
GlyphClass: 2
Flags: W
AnchorPoint: "Anchor-5" 1344 1269 basechar 0
AnchorPoint: "Anchor-1" 442 0 basechar 0
AnchorPoint: "Anchor-0" 678 1269 basechar 0
LayerCount: 2
Fore
SplineSet
683 0 m 1,0,-1
 706 108 l 1,1,2
 581 -25 581 -25 385 -20 c 0,3,4
 209 -16 209 -16 145.5 104.5 c 128,-1,5
 82 225 82 225 99 384 c 1,6,-1
 215 1082 l 1,7,-1
 396 1082 l 1,8,-1
 279 381 l 1,9,10
 270 294 270 294 295.5 217.5 c 128,-1,11
 321 141 321 141 424 137 c 0,12,13
 617 130 617 130 725 293 c 1,14,-1
 861 1082 l 1,15,-1
 1042 1082 l 1,16,-1
 1018 950 l 1,17,18
 1129 957 1129 957 1165 1012 c 128,-1,19
 1201 1067 1201 1067 1216 1169 c 1,20,-1
 1352 1169 l 1,21,22
 1335 1004 1335 1004 1254.5 924 c 128,-1,23
 1174 844 1174 844 1005 838 c 1,24,-1
 855 0 l 1,25,-1
 683 0 l 1,0,-1
EndSplineSet
EndChar

StartChar: Upsilon2
Encoding: 433 433 197
Width: 1320
Flags: W
LayerCount: 2
Fore
SplineSet
1030 730 m 2,0,1
 1042 822 1042 822 1042.5 942.5 c 128,-1,2
 1043 1063 1043 1063 1000.5 1162 c 128,-1,3
 958 1261 958 1261 842 1292 c 1,4,-1
 867 1456 l 1,5,-1
 1345 1456 l 1,6,-1
 1316 1298 l 1,7,-1
 1101 1296 l 1,8,9
 1262 1034 1262 1034 1221 729 c 1,10,-1
 1204 615 l 2,11,12
 1180 450 1180 450 1098.5 303 c 128,-1,13
 1017 156 1017 156 883.5 65.5 c 128,-1,14
 750 -25 750 -25 568 -21 c 0,15,16
 393 -18 393 -18 288 76.5 c 128,-1,17
 183 171 183 171 143 315.5 c 128,-1,18
 103 460 103 460 123 615 c 2,19,-1
 139 728 l 2,20,21
 165 896 165 896 246 1045.5 c 128,-1,22
 327 1195 327 1195 460 1301 c 1,23,-1
 246 1298 l 1,24,-1
 274 1456 l 1,25,-1
 744 1456 l 1,26,-1
 719 1293 l 1,27,28
 590 1266 590 1266 510.5 1175.5 c 128,-1,29
 431 1085 431 1085 389 965 c 128,-1,30
 347 845 347 845 330 729 c 2,31,-1
 313 612 l 2,32,33
 300 508 300 508 313 399.5 c 128,-1,34
 326 291 326 291 387 215.5 c 128,-1,35
 448 140 448 140 577 135 c 0,36,37
 713 131 713 131 803.5 201.5 c 128,-1,38
 894 272 894 272 945 383.5 c 128,-1,39
 996 495 996 495 1013 613 c 2,40,-1
 1030 730 l 2,0,1
EndSplineSet
EndChar

StartChar: Vcursive
Encoding: 434 434 198
Width: 1297
Flags: W
LayerCount: 2
Fore
SplineSet
554 -20 m 0,0,1
 337 -16 337 -16 215 118 c 128,-1,2
 93 252 93 252 118 471 c 1,3,-1
 286 1456 l 1,4,-1
 471 1456 l 1,5,-1
 304 470 l 1,6,7
 287 328 287 328 351 234.5 c 128,-1,8
 415 141 415 141 565 136 c 0,9,10
 725 132 725 132 827 223.5 c 128,-1,11
 929 315 929 315 953 470 c 2,12,-1
 1061 1129 l 2,13,14
 1070 1204 1070 1204 1047.5 1258 c 128,-1,15
 1025 1312 1025 1312 940 1314 c 0,16,17
 922 1314 922 1314 905 1311.5 c 128,-1,18
 888 1309 888 1309 870 1306 c 1,19,-1
 883 1459 l 1,20,21
 941 1475 941 1475 990 1474 c 0,22,23
 1138 1473 1138 1473 1199.5 1367 c 128,-1,24
 1261 1261 1261 1261 1248 1128 c 1,25,-1
 1142 471 l 1,26,27
 1110 243 1110 243 947 109 c 128,-1,28
 784 -25 784 -25 554 -20 c 0,0,1
EndSplineSet
EndChar

StartChar: Yhook
Encoding: 435 435 199
Width: 1288
Flags: W
LayerCount: 2
Fore
SplineSet
1038 1042 m 2,0,-1
 677 530 l 1,1,-1
 585 0 l 1,2,-1
 397 0 l 1,3,-1
 493 554 l 1,4,-1
 168 1456 l 1,5,-1
 373 1456 l 1,6,-1
 611 719 l 1,7,-1
 881 1124 l 2,8,9
 926 1196 926 1196 977.5 1279.5 c 128,-1,10
 1029 1363 1029 1363 1098.5 1422 c 128,-1,11
 1168 1481 1168 1481 1268 1479 c 0,12,13
 1327 1477 1327 1477 1378 1455 c 128,-1,14
 1429 1433 1429 1433 1474 1397 c 1,15,-1
 1397 1266 l 1,16,17
 1348 1303 1348 1303 1291 1304 c 0,18,19
 1228 1306 1228 1306 1182 1258 c 128,-1,20
 1136 1210 1136 1210 1101.5 1147.5 c 128,-1,21
 1067 1085 1067 1085 1038 1042 c 2,0,-1
EndSplineSet
EndChar

StartChar: yhook
Encoding: 436 436 200
Width: 1180
Flags: W
LayerCount: 2
Fore
SplineSet
369 -168 m 2,0,1
 319 -276 319 -276 234 -360 c 128,-1,2
 149 -444 149 -444 20 -442 c 0,3,4
 -7 -441 -7 -441 -34 -435.5 c 128,-1,5
 -61 -430 -61 -430 -87 -425 c 1,6,-1
 -76 -272 l 1,7,8
 -64 -274 -64 -274 -52.5 -275.5 c 128,-1,9
 -41 -277 -41 -277 -29 -278 c 0,10,11
 71 -282 71 -282 132 -231 c 128,-1,12
 193 -180 193 -180 235 -95 c 2,13,-1
 296 23 l 1,14,-1
 107 1082 l 1,15,-1
 297 1082 l 1,16,-1
 407 354 l 1,17,-1
 415 263 l 1,18,-1
 790 1048 l 2,19,20
 825 1126 825 1126 868 1202 c 128,-1,21
 911 1278 911 1278 976 1327.5 c 128,-1,22
 1041 1377 1041 1377 1141 1375 c 0,23,24
 1195 1374 1195 1374 1244 1353.5 c 128,-1,25
 1293 1333 1293 1333 1335 1300 c 1,26,-1
 1281 1187 l 1,27,28
 1254 1205 1254 1205 1224 1218 c 128,-1,29
 1194 1231 1194 1231 1161 1232 c 0,30,31
 1098 1234 1098 1234 1056 1191 c 128,-1,32
 1014 1148 1014 1148 986 1089 c 128,-1,33
 958 1030 958 1030 937 984 c 2,34,-1
 369 -168 l 2,0,1
EndSplineSet
EndChar

StartChar: Zbar
Encoding: 437 437 201
Width: 1190
GlyphClass: 2
Flags: W
AnchorPoint: "Anchor-5" 1363 1601 basechar 0
AnchorPoint: "Anchor-1" 492 10 basechar 0
AnchorPoint: "Anchor-0" 770 1601 basechar 0
LayerCount: 2
Fore
SplineSet
216 1298 m 1,0,-1
 244 1456 l 1,1,-1
 1229 1456 l 1,2,-1
 1203 1306 l 1,3,-1
 786 812 l 1,4,-1
 1078 812 l 1,5,-1
 1051 661 l 1,6,-1
 659 661 l 1,7,-1
 234 157 l 1,8,-1
 1035 157 l 1,9,-1
 1007 0 l 1,10,-1
 -21 0 l 1,11,-1
 6 154 l 1,12,-1
 434 661 l 1,13,-1
 129 661 l 1,14,-1
 156 812 l 1,15,-1
 561 812 l 1,16,-1
 972 1298 l 1,17,-1
 216 1298 l 1,0,-1
EndSplineSet
EndChar

StartChar: zbar
Encoding: 438 438 202
Width: 1003
GlyphClass: 2
Flags: W
AnchorPoint: "Anchor-5" 1122 1290 basechar 0
AnchorPoint: "Anchor-1" 406 10 basechar 0
AnchorPoint: "Anchor-0" 616 1290 basechar 0
LayerCount: 2
Fore
SplineSet
159 929 m 1,0,-1
 186 1082 l 1,1,-1
 984 1082 l 1,2,-1
 959 942 l 1,3,-1
 670 622 l 1,4,-1
 851 622 l 1,5,-1
 824 470 l 1,6,-1
 533 470 l 1,7,-1
 246 152 l 1,8,-1
 851 152 l 1,9,-1
 824 0 l 1,10,-1
 -9 0 l 1,11,-1
 16 145 l 1,12,-1
 309 470 l 1,13,-1
 122 470 l 1,14,-1
 149 622 l 1,15,-1
 446 622 l 1,16,-1
 723 929 l 1,17,-1
 159 929 l 1,0,-1
EndSplineSet
EndChar

StartChar: uni01B7
Encoding: 439 439 203
Width: 1279
Flags: W
LayerCount: 2
Fore
SplineSet
231 1298 m 1,0,-1
 259 1456 l 1,1,-1
 1239 1456 l 1,2,-1
 1213 1310 l 1,3,-1
 608 740 l 1,4,-1
 611 740 l 1,5,6
 874 736 874 736 994.5 580 c 128,-1,7
 1115 424 1115 424 1089 169 c 0,8,9
 1062 -98 1062 -98 892.5 -260.5 c 128,-1,10
 723 -423 723 -423 450 -417 c 0,11,12
 228 -412 228 -412 110 -280.5 c 128,-1,13
 -8 -149 -8 -149 -17 65 c 1,14,-1
 171 65 l 1,15,16
 178 -83 178 -83 238.5 -170.5 c 128,-1,17
 299 -258 299 -258 459 -262 c 0,18,19
 662 -268 662 -268 770.5 -145 c 128,-1,20
 879 -22 879 -22 901 169 c 0,21,22
 921 347 921 347 860.5 465.5 c 128,-1,23
 800 584 800 584 604 588 c 2,24,-1
 376 589 l 1,25,-1
 402 741 l 1,26,-1
 981 1298 l 1,27,-1
 231 1298 l 1,0,-1
EndSplineSet
EndChar

StartChar: uni01B8
Encoding: 440 440 204
Width: 1279
Flags: W
LayerCount: 2
Fore
SplineSet
923 723 m 1,0,-1
 899 589 l 1,1,-1
 693 590 l 2,2,3
 482 591 482 591 366 475.5 c 128,-1,4
 250 360 250 360 227 154 c 0,5,6
 207 -15 207 -15 264.5 -137 c 128,-1,7
 322 -259 322 -259 513 -263 c 0,8,9
 684 -267 684 -267 777 -179.5 c 128,-1,10
 870 -92 870 -92 915 63 c 1,11,-1
 1103 64 l 1,12,13
 1056 -159 1056 -159 895.5 -290 c 128,-1,14
 735 -421 735 -421 505 -418 c 0,15,16
 244 -414 244 -414 128 -254.5 c 128,-1,17
 12 -95 12 -95 37 155 c 0,18,19
 66 438 66 438 243.5 588 c 128,-1,20
 421 738 421 738 699 742 c 1,21,-1
 711 742 l 1,22,-1
 314 1328 l 1,23,-1
 337 1456 l 1,24,-1
 1317 1456 l 1,25,-1
 1289 1298 l 1,26,-1
 524 1298 l 1,27,-1
 923 723 l 1,0,-1
EndSplineSet
EndChar

StartChar: uni01B9
Encoding: 441 441 205
Width: 1121
Flags: W
LayerCount: 2
Fore
SplineSet
432 929 m 1,0,-1
 721 468 l 1,1,-1
 695 326 l 1,2,-1
 568 327 l 2,3,4
 414 327 414 327 310.5 252.5 c 128,-1,5
 207 178 207 178 190 18 c 0,6,7
 177 -101 177 -101 246 -171.5 c 128,-1,8
 315 -242 315 -242 433 -245 c 0,9,10
 557 -247 557 -247 644.5 -169 c 128,-1,11
 732 -91 732 -91 753 28 c 1,12,-1
 932 29 l 1,13,14
 911 -171 911 -171 766.5 -285.5 c 128,-1,15
 622 -400 622 -400 424 -395 c 0,16,17
 237 -391 237 -391 114.5 -281.5 c 128,-1,18
 -8 -172 -8 -172 7 24 c 0,19,20
 24 239 24 239 167.5 346.5 c 128,-1,21
 311 454 311 454 512 472 c 1,22,-1
 214 973 l 1,23,-1
 235 1082 l 1,24,-1
 1079 1082 l 1,25,-1
 1052 929 l 1,26,-1
 432 929 l 1,0,-1
EndSplineSet
EndChar

StartChar: uni01BA
Encoding: 442 442 206
Width: 1059
Flags: W
LayerCount: 2
Fore
SplineSet
652 381 m 0,0,1
 663 459 663 459 601.5 481.5 c 128,-1,2
 540 504 540 504 479 505 c 2,3,-1
 301 506 l 1,4,-1
 323 631 l 1,5,-1
 744 930 l 1,6,-1
 177 930 l 1,7,-1
 204 1082 l 1,8,-1
 1036 1082 l 1,9,-1
 1015 958 l 1,10,-1
 615 641 l 1,11,12
 710 616 710 616 773.5 548.5 c 128,-1,13
 837 481 837 481 832 377 c 0,14,15
 827 265 827 265 759 201.5 c 128,-1,16
 691 138 691 138 594.5 105 c 128,-1,17
 498 72 498 72 406 52 c 0,18,19
 326 34 326 34 233.5 -2.5 c 128,-1,20
 141 -39 141 -39 129 -138 c 0,21,22
 119 -222 119 -222 186 -254 c 128,-1,23
 253 -286 253 -286 322 -287 c 0,24,25
 426 -290 426 -290 503 -238 c 128,-1,26
 580 -186 580 -186 606 -84 c 1,27,-1
 786 -83 l 1,28,29
 770 -260 770 -260 625 -350.5 c 128,-1,30
 480 -441 480 -441 315 -438 c 0,31,32
 175 -435 175 -435 58 -358 c 128,-1,33
 -59 -281 -59 -281 -51 -123 c 0,34,35
 -45 -11 -45 -11 25.5 54 c 128,-1,36
 96 119 96 119 195 152.5 c 128,-1,37
 294 186 294 186 385 205 c 0,38,39
 465 222 465 222 552 253 c 128,-1,40
 639 284 639 284 652 381 c 0,0,1
EndSplineSet
EndChar

StartChar: uni01BB
Encoding: 443 443 207
Width: 1122
Flags: W
LayerCount: 2
Fore
SplineSet
965 152 m 1,0,-1
 938 0 l 1,1,-1
 13 0 l 1,2,-1
 38 142 l 1,3,-1
 567 648 l 1,4,-1
 296 648 l 1,5,-1
 322 799 l 1,6,-1
 717 799 l 1,7,8
 770 858 770 858 816 925.5 c 128,-1,9
 862 993 862 993 873 1074 c 0,10,11
 887 1176 887 1176 835.5 1249 c 128,-1,12
 784 1322 784 1322 677 1326 c 0,13,14
 537 1330 537 1330 452.5 1245 c 128,-1,15
 368 1160 368 1160 348 1029 c 1,16,-1
 170 1027 l 1,17,18
 190 1233 190 1233 335.5 1357 c 128,-1,19
 481 1481 481 1481 686 1476 c 0,20,21
 855 1473 855 1473 965.5 1372.5 c 128,-1,22
 1076 1272 1076 1272 1059 1095 c 0,23,24
 1050 1010 1050 1010 1008.5 935.5 c 128,-1,25
 967 861 967 861 914 797 c 1,26,-1
 1077 799 l 1,27,-1
 1050 648 l 1,28,-1
 793 648 l 1,29,30
 750 607 750 607 716 575 c 2,31,-1
 264 152 l 1,32,-1
 965 152 l 1,0,-1
EndSplineSet
EndChar

StartChar: Tonefive
Encoding: 444 444 208
Width: 1116
Flags: W
LayerCount: 2
Fore
SplineSet
179 1285 m 1,0,-1
 209 1456 l 1,1,-1
 1145 1456 l 1,2,-1
 1114 1285 l 1,3,-1
 544 1285 l 1,4,-1
 424 888 l 1,5,6
 533 952 533 952 663 951 c 0,7,8
 797 949 797 949 878.5 879.5 c 128,-1,9
 960 810 960 810 992.5 701 c 128,-1,10
 1025 592 1025 592 1014 472 c 0,11,12
 994 259 994 259 857.5 116.5 c 128,-1,13
 721 -26 721 -26 499 -21 c 0,14,15
 318 -17 318 -17 216.5 95.5 c 128,-1,16
 115 208 115 208 110 384 c 1,17,-1
 280 384 l 1,18,19
 285 276 285 276 339 205 c 128,-1,20
 393 134 393 134 508 131 c 0,21,22
 654 127 654 127 735.5 232.5 c 128,-1,23
 817 338 817 338 831 471 c 0,24,25
 845 587 845 587 794.5 684.5 c 128,-1,26
 744 782 744 782 612 785 c 0,27,28
 540 787 540 787 483 762.5 c 128,-1,29
 426 738 426 738 370 695 c 1,30,-1
 221 734 l 1,31,-1
 371 1285 l 1,32,-1
 179 1285 l 1,0,-1
EndSplineSet
EndChar

StartChar: tonefive
Encoding: 445 445 209
Width: 996
Flags: W
LayerCount: 2
Fore
SplineSet
94 920 m 1,0,-1
 122 1082 l 1,1,-1
 957 1082 l 1,2,-1
 928 920 l 1,3,-1
 430 920 l 1,4,-1
 346 670 l 1,5,6
 444 733 444 733 562 735 c 0,7,8
 727 737 727 737 811.5 632.5 c 128,-1,9
 896 528 896 528 885 370 c 0,10,11
 871 179 871 179 739.5 78.5 c 128,-1,12
 608 -22 608 -22 424 -18 c 0,13,14
 281 -14 281 -14 169.5 69.5 c 128,-1,15
 58 153 58 153 61 307 c 1,16,-1
 238 321 l 1,17,18
 235 231 235 231 290.5 184.5 c 128,-1,19
 346 138 346 138 433 136 c 0,20,21
 542 134 542 134 617 196 c 128,-1,22
 692 258 692 258 704 368 c 0,23,24
 714 462 714 462 667 523 c 128,-1,25
 620 584 620 584 523 586 c 0,26,27
 384 587 384 587 293 476 c 1,28,-1
 132 488 l 1,29,-1
 255 920 l 1,30,-1
 94 920 l 1,0,-1
EndSplineSet
EndChar

StartChar: glottalstopbarinv
Encoding: 446 446 210
Width: 1016
Flags: W
LayerCount: 2
Fore
SplineSet
871 309 m 0,0,1
 865 195 865 195 797.5 121.5 c 128,-1,2
 730 48 730 48 630 13 c 128,-1,3
 530 -22 530 -22 428 -20 c 0,4,5
 269 -17 269 -17 152 74 c 128,-1,6
 35 165 35 165 41 335 c 1,7,-1
 221 335 l 1,8,9
 221 237 221 237 280 186 c 128,-1,10
 339 135 339 135 435 133 c 0,11,12
 514 132 514 132 596 168 c 128,-1,13
 678 204 678 204 692 295 c 0,14,15
 702 365 702 365 660.5 417.5 c 128,-1,16
 619 470 619 470 561 520.5 c 128,-1,17
 503 571 503 571 460 633.5 c 128,-1,18
 417 696 417 696 425 786 c 1,19,-1
 447 940 l 1,20,-1
 255 940 l 1,21,-1
 280 1082 l 1,22,-1
 471 1082 l 1,23,-1
 517 1345 l 1,24,-1
 699 1345 l 1,25,-1
 653 1082 l 1,26,-1
 849 1082 l 1,27,-1
 824 940 l 1,28,-1
 629 940 l 1,29,-1
 604 790 l 1,30,31
 594 705 594 705 634 651 c 128,-1,32
 674 597 674 597 731 552.5 c 128,-1,33
 788 508 788 508 831.5 453 c 128,-1,34
 875 398 875 398 871 309 c 0,0,1
EndSplineSet
EndChar

StartChar: wynn
Encoding: 447 447 211
Width: 1116
Flags: W
LayerCount: 2
Fore
SplineSet
1014 535 m 1,0,1
 986 320 986 320 860.5 186.5 c 128,-1,2
 735 53 735 53 556.5 -25.5 c 128,-1,3
 378 -104 378 -104 191 -153 c 1,4,-1
 141 -416 l 1,5,-1
 -41 -416 l 1,6,-1
 219 1082 l 1,7,-1
 383 1083 l 1,8,-1
 364 963 l 1,9,10
 498 1106 498 1106 684 1102 c 0,11,12
 832 1098 832 1098 908 1013 c 128,-1,13
 984 928 984 928 1006.5 803.5 c 128,-1,14
 1029 679 1029 679 1016 557 c 2,15,-1
 1014 535 l 1,0,1
623 947 m 0,16,17
 536 949 536 949 469 907 c 128,-1,18
 402 865 402 865 352 798 c 1,19,-1
 207 -5 l 1,20,21
 349 34 349 34 483 99 c 128,-1,22
 617 164 617 164 712 269.5 c 128,-1,23
 807 375 807 375 831 537 c 1,24,-1
 833 557 l 2,25,26
 843 638 843 638 832.5 727.5 c 128,-1,27
 822 817 822 817 774.5 880.5 c 128,-1,28
 727 944 727 944 623 947 c 0,16,17
EndSplineSet
EndChar

StartChar: pipe
Encoding: 448 448 212
Width: 505
Flags: W
LayerCount: 2
Fore
SplineSet
474 1456 m 1,0,-1
 221 0 l 1,1,-1
 75 0 l 1,2,-1
 328 1456 l 1,3,-1
 474 1456 l 1,0,-1
EndSplineSet
EndChar

StartChar: uni01C5
Encoding: 453 453 217
Width: 2160
Flags: W
LayerCount: 2
Fore
SplineSet
1680 1515 m 1,0,-1
 1798 1366 l 1,1,-1
 1970 1514 l 1,2,-1
 2132 1516 l 1,3,-1
 2131 1496 l 1,4,-1
 1852 1252 l 1,5,-1
 1738 1252 l 1,6,-1
 1528 1493 l 1,7,-1
 1530 1516 l 1,8,-1
 1680 1515 l 1,0,-1
59 0 m 1,9,-1
 312 1456 l 1,10,-1
 700 1455 l 2,11,12
 894 1451 894 1451 1015.5 1354.5 c 128,-1,13
 1137 1258 1137 1258 1187 1104 c 128,-1,14
 1237 950 1237 950 1215 771 c 2,15,-1
 1203 684 l 2,16,17
 1159 388 1159 388 961 193.5 c 128,-1,18
 763 -1 763 -1 454 0 c 2,19,-1
 59 0 l 1,9,-1
696 1297 m 2,20,-1
 473 1298 l 1,21,-1
 275 157 l 1,22,-1
 459 156 l 2,23,24
 697 156 697 156 839.5 307 c 128,-1,25
 982 458 982 458 1016 684 c 2,26,-1
 1029 774 l 2,27,28
 1046 902 1046 902 1023.5 1020.5 c 128,-1,29
 1001 1139 1001 1139 923.5 1216 c 128,-1,30
 846 1293 846 1293 696 1297 c 2,20,-1
1326 929 m 1,31,-1
 1353 1082 l 1,32,-1
 2150 1082 l 1,33,-1
 2125 942 l 1,34,-1
 1412 152 l 1,35,-1
 2017 152 l 1,36,-1
 1990 0 l 1,37,-1
 1157 0 l 1,38,-1
 1182 145 l 1,39,-1
 1889 929 l 1,40,-1
 1326 929 l 1,31,-1
EndSplineSet
EndChar

StartChar: uni01C6
Encoding: 454 454 218
Width: 1973
Flags: W
LayerCount: 2
Fore
SplineSet
719 0 m 1,0,-1
 733 121 l 1,1,2
 600 -25 600 -25 412 -20 c 0,3,4
 270 -16 270 -16 193 71.5 c 128,-1,5
 116 159 116 159 90.5 284 c 128,-1,6
 65 409 65 409 77 526 c 2,7,-1
 79 548 l 1,8,9
 96 681 96 681 155.5 810 c 128,-1,10
 215 939 215 939 319.5 1022.5 c 128,-1,11
 424 1106 424 1106 577 1102 c 0,12,13
 659 1100 659 1100 731.5 1069.5 c 128,-1,14
 804 1039 804 1039 855 973 c 1,15,-1
 964 1560 l 1,16,-1
 1145 1560 l 1,17,-1
 875 0 l 1,18,-1
 719 0 l 1,0,-1
1492 1515 m 1,19,-1
 1609 1366 l 1,20,-1
 1782 1514 l 1,21,-1
 1943 1516 l 1,22,-1
 1943 1496 l 1,23,-1
 1663 1252 l 1,24,-1
 1550 1252 l 1,25,-1
 1340 1493 l 1,26,-1
 1342 1516 l 1,27,-1
 1492 1515 l 1,19,-1
1138 929 m 1,28,-1
 1165 1082 l 1,29,-1
 1962 1082 l 1,30,-1
 1937 942 l 1,31,-1
 1223 152 l 1,32,-1
 1829 152 l 1,33,-1
 1802 0 l 1,34,-1
 968 0 l 1,35,-1
 994 145 l 1,36,-1
 1701 929 l 1,37,-1
 1138 929 l 1,28,-1
264 527 m 2,38,39
 254 448 254 448 263 358.5 c 128,-1,40
 272 269 272 269 318.5 204.5 c 128,-1,41
 365 140 365 140 467 137 c 0,42,43
 558 134 558 134 625.5 178.5 c 128,-1,44
 693 223 693 223 744 293 c 1,45,-1
 830 794 l 1,46,47
 771 942 771 942 614 947 c 0,48,49
 503 951 503 951 431 890 c 128,-1,50
 359 829 359 829 319 735.5 c 128,-1,51
 279 642 279 642 266 548 c 1,52,-1
 264 527 l 2,38,39
EndSplineSet
EndChar

StartChar: Gbar
Encoding: 484 484 219
Width: 1353
GlyphClass: 2
Flags: W
AnchorPoint: "Anchor-5" 1531 1633 basechar 0
AnchorPoint: "Anchor-1" 548 -9 basechar 0
AnchorPoint: "Anchor-0" 830 1633 basechar 0
LayerCount: 2
Fore
SplineSet
1142 192 m 1,0,1
 1053 69 1053 69 905.5 23.5 c 128,-1,2
 758 -22 758 -22 614 -20 c 0,3,4
 421 -17 421 -17 307.5 85 c 128,-1,5
 194 187 194 187 152 344.5 c 128,-1,6
 110 502 110 502 132 672 c 2,7,-1
 148 785 l 2,8,9
 174 968 174 968 256 1127.5 c 128,-1,10
 338 1287 338 1287 478.5 1383.5 c 128,-1,11
 619 1480 619 1480 823 1476 c 0,12,13
 1031 1472 1031 1472 1150 1352.5 c 128,-1,14
 1269 1233 1269 1233 1284 1029 c 1,15,-1
 1098 1029 l 1,16,17
 1088 1159 1088 1159 1019 1236.5 c 128,-1,18
 950 1314 950 1314 815 1318 c 0,19,20
 663 1323 663 1323 565 1244 c 128,-1,21
 467 1165 467 1165 412.5 1041 c 128,-1,22
 358 917 358 917 338 787 c 2,23,-1
 321 671 l 2,24,25
 306 557 306 557 323 434.5 c 128,-1,26
 340 312 340 312 409 226.5 c 128,-1,27
 478 141 478 141 621 138 c 0,28,29
 713 136 713 136 799.5 158 c 128,-1,30
 886 180 886 180 956 243 c 1,31,-1
 973 329 l 1,32,-1
 685 329 l 1,33,-1
 712 481 l 1,34,-1
 999 481 l 1,35,-1
 1015 569 l 1,36,-1
 687 569 l 1,37,-1
 715 725 l 1,38,-1
 1230 725 l 1,39,-1
 1187 481 l 1,40,-1
 1331 481 l 1,41,-1
 1304 329 l 1,42,-1
 1161 329 l 1,43,-1
 1142 192 l 1,0,1
EndSplineSet
EndChar

StartChar: gbar
Encoding: 485 485 220
Width: 1116
GlyphClass: 2
Flags: W
AnchorPoint: "Anchor-9" 432 -116 basechar 0
AnchorPoint: "Anchor-5" 1234 1290 basechar 0
AnchorPoint: "Anchor-1" 362 -484 basechar 0
AnchorPoint: "Anchor-0" 671 1290 basechar 0
LayerCount: 2
Fore
SplineSet
971 -169 m 1,0,-1
 856 -170 l 1,1,2
 792 -324 792 -324 667.5 -410 c 128,-1,3
 543 -496 543 -496 373 -492 c 0,4,5
 265 -489 265 -489 165.5 -441 c 128,-1,6
 66 -393 66 -393 5 -303 c 1,7,-1
 108 -192 l 1,8,9
 154 -258 154 -258 218.5 -298 c 128,-1,10
 283 -338 283 -338 365 -340 c 0,11,12
 466 -343 466 -343 540 -297.5 c 128,-1,13
 614 -252 614 -252 666 -168 c 1,14,-1
 -104 -169 l 1,15,-1
 -83 -54 l 1,16,-1
 692 -57 l 1,17,-1
 695 -48 l 1,18,-1
 735 109 l 1,19,20
 609 -24 609 -24 426 -20 c 0,21,22
 283 -16 283 -16 206.5 71.5 c 128,-1,23
 130 159 130 159 105.5 284 c 128,-1,24
 81 409 81 409 94 526 c 2,25,-1
 96 548 l 1,26,27
 113 682 113 682 171.5 810.5 c 128,-1,28
 230 939 230 939 333.5 1022.5 c 128,-1,29
 437 1106 437 1106 591 1102 c 0,30,31
 677 1100 677 1100 751.5 1066.5 c 128,-1,32
 826 1033 826 1033 876 961 c 1,33,-1
 911 1082 l 1,34,-1
 1077 1082 l 1,35,-1
 879 -40 l 2,36,37
 878 -43 878 -43 874 -57 c 1,38,-1
 993 -54 l 1,39,-1
 971 -169 l 1,0,-1
277 527 m 2,40,41
 267 448 267 448 276 358.5 c 128,-1,42
 285 269 285 269 331.5 204.5 c 128,-1,43
 378 140 378 140 481 137 c 0,44,45
 572 134 572 134 640 179 c 128,-1,46
 708 224 708 224 758 295 c 1,47,-1
 845 792 l 1,48,49
 785 942 785 942 627 947 c 0,50,51
 516 951 516 951 444 890 c 128,-1,52
 372 829 372 829 332 735.5 c 128,-1,53
 292 642 292 642 279 548 c 1,54,-1
 277 527 l 2,40,41
EndSplineSet
EndChar

StartChar: uni01EF
Encoding: 495 495 222
Width: 1156
Flags: W
LayerCount: 2
Fore
SplineSet
550 1515 m 1,0,-1
 667 1366 l 1,1,-1
 839 1514 l 1,2,-1
 1001 1516 l 1,3,-1
 1001 1496 l 1,4,-1
 720 1252 l 1,5,-1
 607 1252 l 1,6,-1
 397 1493 l 1,7,-1
 399 1516 l 1,8,-1
 550 1515 l 1,0,-1
496 325 m 2,9,-1
 348 326 l 1,10,-1
 376 486 l 1,11,-1
 805 929 l 1,12,-1
 199 929 l 1,13,-1
 226 1082 l 1,14,-1
 1070 1082 l 1,15,-1
 1050 955 l 1,16,-1
 577 466 l 1,17,18
 756 449 756 449 852 335.5 c 128,-1,19
 948 222 948 222 933 41 c 0,20,21
 916 -170 916 -170 758.5 -285 c 128,-1,22
 601 -400 601 -400 399 -395 c 0,23,24
 212 -391 212 -391 101.5 -274.5 c 128,-1,25
 -9 -158 -9 -158 2 29 c 1,26,-1
 181 29 l 1,27,28
 173 -82 173 -82 233 -161 c 128,-1,29
 293 -240 293 -240 411 -243 c 0,30,31
 539 -246 539 -246 638.5 -171 c 128,-1,32
 738 -96 738 -96 753 35 c 0,33,34
 770 176 770 176 702.5 248.5 c 128,-1,35
 635 321 635 321 496 325 c 2,9,-1
EndSplineSet
EndChar

StartChar: uni01F6
Encoding: 502 502 223
Width: 2167
Flags: W
LayerCount: 2
Fore
SplineSet
1211 1456 m 1,0,-1
 1399 1456 l 1,1,-1
 1231 462 l 1,2,3
 1217 328 1217 328 1268 235 c 128,-1,4
 1319 142 1319 142 1466 137 c 0,5,6
 1624 132 1624 132 1715 223.5 c 128,-1,7
 1806 315 1806 315 1828 464 c 2,8,-1
 1932 1081 l 1,9,-1
 2120 1081 l 1,10,-1
 2015 465 l 1,11,12
 1983 245 1983 245 1833 109.5 c 128,-1,13
 1683 -26 1683 -26 1456 -21 c 0,14,15
 1241 -17 1241 -17 1129 118 c 128,-1,16
 1017 253 1017 253 1042 465 c 1,17,-1
 1075 673 l 1,18,-1
 365 673 l 1,19,-1
 248 0 l 1,20,-1
 59 0 l 1,21,-1
 312 1456 l 1,22,-1
 501 1456 l 1,23,-1
 392 830 l 1,24,-1
 1102 830 l 1,25,-1
 1211 1456 l 1,0,-1
EndSplineSet
EndChar

StartChar: uni01F7
Encoding: 503 503 224
Width: 1312
Flags: W
LayerCount: 2
Fore
SplineSet
1233 818 m 2,0,1
 1196 565 1196 565 1048 363 c 128,-1,2
 900 161 900 161 683.5 27.5 c 128,-1,3
 467 -106 467 -106 225 -153 c 1,4,-1
 174 -418 l 1,5,-1
 -14 -418 l 1,6,-1
 311 1456 l 1,7,-1
 492 1458 l 1,8,-1
 481 1403 l 1,9,10
 605 1477 605 1477 765 1475 c 0,11,12
 1036 1473 1036 1473 1153 1299.5 c 128,-1,13
 1270 1126 1270 1126 1240 871 c 2,14,-1
 1233 818 l 2,0,1
756 1319 m 0,15,16
 569 1322 569 1322 452 1180 c 1,17,-1
 243 7 l 1,18,19
 435 58 435 58 606.5 172 c 128,-1,20
 778 286 778 286 896 450.5 c 128,-1,21
 1014 615 1014 615 1046 820 c 2,22,-1
 1054 875 l 2,23,24
 1076 1052 1076 1052 1017 1184 c 128,-1,25
 958 1316 958 1316 756 1319 c 0,15,16
EndSplineSet
EndChar

StartChar: uni021C
Encoding: 540 540 225
Width: 1192
Flags: W
LayerCount: 2
Fore
SplineSet
1042 334 m 0,0,1
 1022 140 1022 140 920.5 6.5 c 128,-1,2
 819 -127 819 -127 668 -213.5 c 128,-1,3
 517 -300 517 -300 344 -352.5 c 128,-1,4
 171 -405 171 -405 7 -437 c 1,5,-1
 24 -280 l 1,6,7
 198 -241 198 -241 379.5 -176 c 128,-1,8
 561 -111 561 -111 693.5 9.5 c 128,-1,9
 826 130 826 130 855 336 c 0,10,11
 864 401 864 401 862 475 c 128,-1,12
 860 549 860 549 813 602 c 1,13,14
 658 503 658 503 488 437 c 128,-1,15
 318 371 318 371 140 329 c 1,16,-1
 154 474 l 1,17,18
 271 510 271 510 402.5 555 c 128,-1,19
 534 600 534 600 654 666 c 128,-1,20
 774 732 774 732 856.5 830.5 c 128,-1,21
 939 929 939 929 957 1073 c 0,22,23
 973 1199 973 1199 891.5 1258.5 c 128,-1,24
 810 1318 810 1318 695 1321 c 0,25,26
 578 1323 578 1323 482 1257.5 c 128,-1,27
 386 1192 386 1192 364 1074 c 1,28,-1
 177 1073 l 1,29,30
 190 1205 190 1205 268.5 1296 c 128,-1,31
 347 1387 347 1387 462.5 1433 c 128,-1,32
 578 1479 578 1479 703 1477 c 0,33,34
 892 1474 892 1474 1029 1375.5 c 128,-1,35
 1166 1277 1166 1277 1146 1069 c 0,36,37
 1135 955 1135 955 1075.5 864 c 128,-1,38
 1016 773 1016 773 933 700 c 1,39,40
 1011 630 1011 630 1031.5 532 c 128,-1,41
 1052 434 1052 434 1042 334 c 0,0,1
EndSplineSet
EndChar

StartChar: uni021D
Encoding: 541 541 226
Width: 999
Flags: W
LayerCount: 2
Fore
SplineSet
821 200 m 0,0,1
 800 -18 800 -18 672 -148 c 128,-1,2
 544 -278 544 -278 360 -345 c 128,-1,3
 176 -412 176 -412 -13 -437 c 1,4,-1
 4 -288 l 1,5,6
 141 -256 141 -256 279.5 -204 c 128,-1,7
 418 -152 418 -152 518 -57 c 128,-1,8
 618 38 618 38 642 198 c 0,9,10
 650 250 650 250 647.5 305.5 c 128,-1,11
 645 361 645 361 619 408 c 1,12,13
 500 334 500 334 369 287 c 128,-1,14
 238 240 238 240 100 214 c 1,15,-1
 114 354 l 1,16,17
 229 385 229 385 364.5 433.5 c 128,-1,18
 500 482 500 482 602 567.5 c 128,-1,19
 704 653 704 653 720 795 c 0,20,21
 729 878 729 878 674 915 c 128,-1,22
 619 952 619 952 545 953 c 0,23,24
 462 955 462 955 389 911 c 128,-1,25
 316 867 316 867 297 782 c 1,26,-1
 117 781 l 1,27,28
 134 945 134 945 267.5 1025 c 128,-1,29
 401 1105 401 1105 553 1102 c 0,30,31
 695 1099 695 1099 805 1027.5 c 128,-1,32
 915 956 915 956 902 795 c 0,33,34
 895 705 895 705 848.5 633 c 128,-1,35
 802 561 802 561 737 502 c 1,36,37
 793 440 793 440 811 360.5 c 128,-1,38
 829 281 829 281 821 200 c 0,0,1
EndSplineSet
EndChar

StartChar: uni0220
Encoding: 544 544 227
Width: 1312
Flags: W
LayerCount: 2
Fore
SplineSet
1242 993 m 1,0,-1
 1001 -418 l 1,1,-1
 819 -418 l 1,2,-1
 1061 994 l 1,3,4
 1078 1136 1078 1136 1014 1225.5 c 128,-1,5
 950 1315 950 1315 803 1318 c 0,6,7
 629 1323 629 1323 460 1241 c 1,8,-1
 241 0 l 1,9,-1
 59 0 l 1,10,-1
 312 1456 l 1,11,-1
 486 1457 l 1,12,-1
 473 1392 l 1,13,14
 636 1477 636 1477 809 1475 c 0,15,16
 1017 1472 1017 1472 1141 1337.5 c 128,-1,17
 1265 1203 1265 1203 1242 993 c 1,0,-1
EndSplineSet
EndChar

StartChar: uni0221
Encoding: 545 545 228
Width: 1416
Flags: W
LayerCount: 2
Fore
SplineSet
959 1536 m 1,0,-1
 1141 1536 l 1,1,-1
 879 61 l 1,2,3
 911 73 911 73 944 80 c 128,-1,4
 977 87 977 87 1011 87 c 0,5,6
 1122 87 1122 87 1189.5 16.5 c 128,-1,7
 1257 -54 1257 -54 1252 -166 c 0,8,9
 1246 -292 1246 -292 1153.5 -365 c 128,-1,10
 1061 -438 1061 -438 940 -437 c 0,11,12
 847 -436 847 -436 772.5 -392 c 128,-1,13
 698 -348 698 -348 679 -252 c 1,14,-1
 527 -395 l 1,15,-1
 432 -275 l 1,16,-1
 685 -48 l 1,17,-1
 720 108 l 1,18,19
 592 -24 592 -24 413 -20 c 0,20,21
 271 -16 271 -16 194.5 71.5 c 128,-1,22
 118 159 118 159 93 284.5 c 128,-1,23
 68 410 68 410 80 526 c 2,24,-1
 82 548 l 1,25,26
 99 681 99 681 158 810 c 128,-1,27
 217 939 217 939 321.5 1022.5 c 128,-1,28
 426 1106 426 1106 578 1103 c 0,29,30
 660 1101 660 1101 732.5 1070 c 128,-1,31
 805 1039 805 1039 855 973 c 1,32,-1
 959 1536 l 1,0,-1
262 527 m 2,33,34
 253 448 253 448 262 358 c 128,-1,35
 271 268 271 268 317.5 204 c 128,-1,36
 364 140 364 140 467 137 c 0,37,38
 557 134 557 134 625 178.5 c 128,-1,39
 693 223 693 223 744 293 c 1,40,-1
 830 794 l 1,41,42
 770 942 770 942 614 947 c 0,43,44
 503 951 503 951 430.5 890 c 128,-1,45
 358 829 358 829 317.5 735.5 c 128,-1,46
 277 642 277 642 265 548 c 2,47,-1
 262 527 l 2,33,34
851 -165 m 2,48,49
 845 -217 845 -217 870 -250.5 c 128,-1,50
 895 -284 895 -284 950 -284 c 0,51,52
 999 -283 999 -283 1034 -249 c 128,-1,53
 1069 -215 1069 -215 1075 -167 c 0,54,55
 1080 -121 1080 -121 1054.5 -92.5 c 128,-1,56
 1029 -64 1029 -64 984 -62 c 0,57,58
 951 -61 951 -61 920.5 -74 c 128,-1,59
 890 -87 890 -87 862 -102 c 1,60,-1
 851 -165 l 2,48,49
EndSplineSet
EndChar

StartChar: uni0222
Encoding: 546 546 229
Width: 1326
Flags: W
LayerCount: 2
Fore
SplineSet
1180 441 m 0,0,1
 1166 282 1166 282 1078 179.5 c 128,-1,2
 990 77 990 77 857.5 27 c 128,-1,3
 725 -23 725 -23 579 -21 c 2,4,-1
 556 -21 l 1,5,6
 354 -15 354 -15 211 93.5 c 128,-1,7
 68 202 68 202 87 423 c 0,8,9
 99 556 99 556 171 650.5 c 128,-1,10
 243 745 243 745 358 806 c 1,11,12
 274 854 274 854 236.5 933.5 c 128,-1,13
 199 1013 199 1013 206 1109 c 0,14,15
 218 1293 218 1293 345 1380.5 c 128,-1,16
 472 1468 472 1468 642 1477 c 1,17,-1
 625 1328 l 1,18,19
 534 1307 534 1307 469.5 1257.5 c 128,-1,20
 405 1208 405 1208 393 1108 c 0,21,22
 382 1019 382 1019 426 973 c 128,-1,23
 470 927 470 927 541 910.5 c 128,-1,24
 612 894 612 894 684 892 c 2,25,-1
 724 891 l 2,26,27
 807 891 807 891 892.5 908.5 c 128,-1,28
 978 926 978 926 1040 976.5 c 128,-1,29
 1102 1027 1102 1027 1114 1125 c 0,30,31
 1125 1215 1125 1215 1082.5 1260 c 128,-1,32
 1040 1305 1040 1305 958 1326 c 1,33,-1
 973 1476 l 1,34,35
 1123 1462 1123 1462 1216 1373 c 128,-1,36
 1309 1284 1309 1284 1298 1126 c 0,37,38
 1289 1001 1289 1001 1217.5 922 c 128,-1,39
 1146 843 1146 843 1037 796 c 1,40,41
 1120 731 1120 731 1154 638 c 128,-1,42
 1188 545 1188 545 1180 441 c 0,0,1
701 729 m 2,43,-1
 678 730 l 1,44,45
 528 731 528 731 409.5 657 c 128,-1,46
 291 583 291 583 273 423 c 0,47,48
 256 276 256 276 343 212 c 128,-1,49
 430 148 430 148 563 143 c 2,50,-1
 584 142 l 1,51,52
 733 141 733 141 854 210 c 128,-1,53
 975 279 975 279 994 441 c 0,54,55
 1011 588 1011 588 923.5 656 c 128,-1,56
 836 724 836 724 701 729 c 2,43,-1
EndSplineSet
EndChar

